<svg xmlns="http://www.w3.org/2000/svg" viewBox="0 0 400 220"><defs><style>.cls-1{fill:#fff;}.cls-2{fill:#e0e0e0;}.cls-3{fill:#f5f5f5;}.cls-4{fill:#fafafa;}.cls-5{fill:#ebebeb;}.cls-6{fill:#282937;}.cls-7{fill:#50536d;}.cls-8{fill:#eb6471;}.cls-9{opacity:0.3;}.cls-10{fill:#eebd9d;}.cls-11{fill:#d79870;}.cls-12{opacity:0.6;}</style></defs><g id="Layer_2" data-name="Layer 2"><g id="Background_Complete" data-name="Background Complete"><rect class="cls-1" width="400" height="220"/></g><g id="Layer_10" data-name="Layer 10"><polygon class="cls-2" points="304.73 18.17 304.73 56.97 249.01 56.97 247 18.44 304.73 18.17"/><rect class="cls-1" x="255.64" y="9.8" width="38.44" height="55.72" transform="translate(237.2 312.53) rotate(-90)"/><path class="cls-2" d="M303,57.15H246.74v-39H303Zm-55.72-.53h55.19V18.71H247.27Z"/><rect class="cls-1" x="253.04" y="23.22" width="43.65" height="28.89"/><path class="cls-2" d="M296.69,23.22h-.84l-2.39,0-9,0L253,23.34l.12-.12c0,8.83,0,18.61,0,28.89h0L253,52l43.65,0-.11.11c0-8.79,0-16,.06-21,0-2.51,0-4.47,0-5.81,0-.67,0-1.18,0-1.53s0-.53,0-.53,0,.17,0,.5,0,.86,0,1.51c0,1.34,0,3.29,0,5.79,0,5,0,12.27.06,21.09v.11h-.11l-43.65,0h-.14v-.14h0c0-10.28,0-20.06,0-28.89v-.13H253l31.5.06,9,0h3.18Z"/><path class="cls-2" d="M247,18.33a4.84,4.84,0,0,1,1,.62c.57.42,1.35,1,2.18,1.67s1.58,1.31,2.1,1.78a4.81,4.81,0,0,1,.8.82A37.35,37.35,0,0,1,250,20.84,29.89,29.89,0,0,1,247,18.33Z"/><path class="cls-2" d="M302.72,18.44a26,26,0,0,1-2.93,2.5,26,26,0,0,1-3.1,2.28,26,26,0,0,1,2.93-2.5A28,28,0,0,1,302.72,18.44Z"/><path class="cls-1" d="M302.68,56.89l-6.21-5"/><path class="cls-2" d="M296.47,51.86a28.33,28.33,0,0,1,3.19,2.41,28.47,28.47,0,0,1,3,2.62,28.33,28.33,0,0,1-3.19-2.41A28.47,28.47,0,0,1,296.47,51.86Z"/><path class="cls-2" d="M247,56.89a25.38,25.38,0,0,1,2.9-2.47A27,27,0,0,1,253,52.16a25.38,25.38,0,0,1-2.9,2.47A26,26,0,0,1,247,56.89Z"/><rect class="cls-2" x="270.8" y="23.32" width="9.67" height="27.47" transform="translate(238.58 312.69) rotate(-90)"/><rect class="cls-2" x="264.29" y="75.98" width="49.4" height="143.4" transform="translate(577.99 295.36) rotate(180)"/><rect class="cls-3" x="237.77" y="75.98" width="54.09" height="143.4" transform="translate(529.64 295.36) rotate(180)"/><path class="cls-2" d="M256.53,184H271a1,1,0,0,1,1,1v.86a0,0,0,0,1,0,0H255.5a0,0,0,0,1,0,0v-.86A1,1,0,0,1,256.53,184Z" transform="translate(527.51 369.95) rotate(180)"/><path class="cls-2" d="M240.16,184s0,.17,0,.52,0,.87,0,1.54c0,1.36,0,3.35,0,5.91,0,5.15,0,12.56-.06,21.64v.1h.11l48.21,0h.16v-.13c0-10.48,0-20.47,0-29.57V184h-.13l-34.78,0-9.92,0-2.63,0h2.68l10,.05,34.69.09-.13-.13c0,9.1,0,19.09,0,29.57l.14-.14h0l-48.21,0,.11.11c0-9,0-16.44-.06-21.57,0-2.57,0-4.57,0-5.94,0-.68,0-1.2,0-1.56S240.16,184,240.16,184Z"/><rect class="cls-2" x="256.15" y="191.26" width="14.35" height="3.88" transform="translate(526.65 386.4) rotate(180)"/><path class="cls-2" d="M257.18,149.52h14.45a1,1,0,0,1,1,1v.86a0,0,0,0,1,0,0H256.15a0,0,0,0,1,0,0v-.86A1,1,0,0,1,257.18,149.52Z" transform="translate(528.82 300.94) rotate(180)"/><path class="cls-2" d="M240.29,149.52s0,.18,0,.52,0,.87,0,1.54c0,1.36,0,3.36,0,5.92,0,5.15,0,12.56-.05,21.63v.11h.1l48.21,0h.16v-.14c0-10.48,0-20.47,0-29.56v-.13h-.12l-34.78,0-9.93,0h-2.6l2.66,0,10,0,34.7.1-.13-.13c0,9.09,0,19.08,0,29.56l.14-.14h0l-48.21,0,.11.11c0-9,0-16.43-.05-21.57,0-2.57,0-4.57,0-5.94,0-.68,0-1.2,0-1.56S240.29,149.52,240.29,149.52Z"/><rect class="cls-2" x="257.23" y="156.53" width="14.35" height="3.88" transform="translate(528.82 316.93) rotate(180)"/><path class="cls-2" d="M256.56,79.89H271a1,1,0,0,1,1,1v.86a0,0,0,0,1,0,0H255.52a0,0,0,0,1,0,0v-.86a1,1,0,0,1,1-1Z" transform="translate(527.56 161.67) rotate(-180)"/><path class="cls-2" d="M240.19,79.89s0,.17,0,.52,0,.87,0,1.54c0,1.36,0,3.36,0,5.91,0,5.15,0,12.56-.06,21.64v.11h.11l48.2,0h.17v-.14c0-10.48,0-20.47,0-29.57v-.12h-.12l-34.78,0-9.93,0-2.63,0h2.69l9.95,0,34.7.09-.13-.13c0,9.1,0,19.09,0,29.57l.14-.14h0l-48.2,0,.1.11c0-9,0-16.44,0-21.57,0-2.57,0-4.57,0-5.94,0-.68,0-1.2,0-1.56S240.19,79.89,240.19,79.89Z"/><rect class="cls-2" x="256.86" y="86.2" width="14.35" height="3.88" transform="translate(528.08 176.27) rotate(180)"/><path class="cls-2" d="M256.56,114.69H271a1,1,0,0,1,1,1v.86a0,0,0,0,1,0,0H255.52a0,0,0,0,1,0,0v-.86A1,1,0,0,1,256.56,114.69Z" transform="translate(527.56 231.27) rotate(180)"/><path class="cls-2" d="M240.19,114.69s0,.17,0,.52,0,.86,0,1.53c0,1.37,0,3.36,0,5.92,0,5.15,0,12.56-.06,21.64v.1h.11l48.2,0h.17v-.13c0-10.48,0-20.47,0-29.57v-.13h-.12l-34.78,0-9.93,0h-2.6l2.66,0,9.95,0,34.7.09-.13-.13c0,9.1,0,19.09,0,29.57l.14-.14h0l-48.2,0,.1.11c0-9.05,0-16.44,0-21.57,0-2.57,0-4.57,0-5.94,0-.68,0-1.2,0-1.56S240.19,114.69,240.19,114.69Z"/><rect class="cls-2" x="256.86" y="120.99" width="14.35" height="3.88" transform="translate(528.08 245.87) rotate(180)"/><rect class="cls-4" x="109.92" y="24.92" width="51.8" height="46.34"/><path class="cls-2" d="M161.72,71.26s0-.3,0-.86,0-1.4,0-2.48c0-2.18,0-5.36,0-9.41,0-8.1,0-19.66-.06-33.59l.12.12-51.8,0h0l.14-.14c0,16.86,0,32.72,0,46.34l-.12-.12,37.46.06,10.57,0,2.8,0H158l-10.54,0-37.54.06h-.12v-.12c0-13.62,0-29.48,0-46.34v-.14h.14l51.8,0h.11v.12c0,14,0,25.55-.06,33.67,0,4,0,7.21,0,9.38,0,1.07,0,1.89,0,2.46S161.72,71.26,161.72,71.26Z"/><path class="cls-2" d="M129.78,33.15c0,.08-2.73.14-6.09.14s-6.09-.06-6.09-.14,2.73-.13,6.09-.13S129.78,33.08,129.78,33.15Z"/><path class="cls-2" d="M151.73,36.63c0,.08-7.49.14-16.73.14s-16.73-.06-16.73-.14,7.49-.13,16.73-.13S151.73,36.56,151.73,36.63Z"/><rect class="cls-2" x="117.69" y="42.53" width="2.18" height="2.18"/><rect class="cls-2" x="123.06" y="42.53" width="2.18" height="2.18"/><rect class="cls-2" x="128.53" y="42.43" width="2.18" height="2.18"/><rect class="cls-2" x="133.81" y="42.53" width="2.18" height="2.18"/><rect class="cls-2" x="139.18" y="42.53" width="2.18" height="2.18"/><rect class="cls-2" x="144.55" y="42.53" width="2.18" height="2.18"/><rect class="cls-5" x="149.92" y="42.53" width="2.18" height="2.18"/><rect class="cls-5" x="117.69" y="47.17" width="2.18" height="2.18"/><rect class="cls-2" x="123.06" y="47.17" width="2.18" height="2.18"/><rect class="cls-5" x="128.43" y="47.17" width="2.18" height="2.18"/><rect class="cls-2" x="133.81" y="47.17" width="2.18" height="2.18"/><rect class="cls-2" x="139.18" y="47.17" width="2.18" height="2.18"/><rect class="cls-2" x="144.65" y="47.07" width="2.18" height="2.18"/><rect class="cls-2" x="149.92" y="47.17" width="2.18" height="2.18"/><rect class="cls-2" x="117.69" y="51.81" width="2.18" height="2.18"/><rect class="cls-2" x="123.16" y="51.71" width="2.18" height="2.18"/><rect class="cls-2" x="128.43" y="51.81" width="2.18" height="2.18"/><rect class="cls-5" x="133.81" y="51.81" width="2.18" height="2.18"/><rect class="cls-2" x="139.18" y="51.81" width="2.18" height="2.18"/><rect class="cls-2" x="144.55" y="51.81" width="2.18" height="2.18"/><rect class="cls-2" x="149.92" y="51.81" width="2.18" height="2.18"/><rect class="cls-2" x="117.69" y="56.45" width="2.18" height="2.18"/><rect class="cls-2" x="123.06" y="56.45" width="2.18" height="2.18"/><rect class="cls-2" x="128.43" y="56.45" width="2.18" height="2.18"/><rect class="cls-2" x="133.9" y="56.35" width="2.18" height="2.18"/><rect class="cls-2" x="139.18" y="56.45" width="2.18" height="2.18"/><rect class="cls-5" x="144.55" y="56.45" width="2.18" height="2.18"/><rect class="cls-2" x="149.92" y="56.45" width="2.18" height="2.18"/><rect class="cls-2" x="117.69" y="61.08" width="2.18" height="2.18"/><rect class="cls-5" x="123.06" y="61.08" width="2.18" height="2.18"/><rect class="cls-2" x="128.43" y="61.08" width="2.18" height="2.18"/><rect class="cls-2" x="133.81" y="61.08" width="2.18" height="2.18"/><rect class="cls-2" x="139.18" y="61.08" width="2.18" height="2.18"/><rect class="cls-2" x="144.65" y="60.99" width="2.18" height="2.18"/><rect class="cls-2" x="149.92" y="61.08" width="2.18" height="2.18"/><rect class="cls-5" x="189.05" y="82.45" width="19.09" height="12.87" transform="translate(-18.58 75.65) rotate(-20.63)"/><path class="cls-2" d="M205.37,79.62a1.71,1.71,0,0,1-.11.22l-.33.63-1.26,2.27-4.2,7.51,0,.06-.07,0-.16-.06-8.28-2.71-2.51-.84-.67-.24-.24-.1.25.07.68.2,2.53.79,8.29,2.67.17.05-.1,0c1.65-2.92,3.15-5.55,4.25-7.48l1.3-2.25.36-.6A1.48,1.48,0,0,1,205.37,79.62Z"/><path class="cls-2" d="M192,98.39s.67-2.18,1.61-4.82,1.73-4.77,1.77-4.76-.67,2.17-1.61,4.82S192.08,98.4,192,98.39Z"/><path class="cls-2" d="M201.31,86.43s2,1.1,4.34,2.54,4.27,2.65,4.25,2.69-2-1.1-4.34-2.54S201.28,86.47,201.31,86.43Z"/><path class="cls-2" d="M217.68,57.62a5.71,5.71,0,0,1,1.46-.63l.3-1.45,2.45,0,.35,1.43a5.87,5.87,0,0,1,1.48.59l1.24-.81,1.76,1.69L226,59.67a6.11,6.11,0,0,1,.64,1.46l1.44.3.05,2.44-1.44.36a5.84,5.84,0,0,1-.58,1.48l.81,1.24-1.7,1.75-1.26-.76a5.93,5.93,0,0,1-1.47.63l-.3,1.45-2.44,0-.35-1.43a5.94,5.94,0,0,1-1.49-.59l-1.23.81-1.76-1.69.76-1.27a6.08,6.08,0,0,1-.63-1.46l-1.45-.3,0-2.44,1.44-.36a5.84,5.84,0,0,1,.58-1.48l-.81-1.23,1.7-1.76,1.26.76Zm1.3,3.26a2.62,2.62,0,1,0,3.71-.07A2.63,2.63,0,0,0,219,60.88Z"/><path class="cls-2" d="M219,60.88a2.16,2.16,0,0,1,.49-.43,2.57,2.57,0,0,1,1.71-.4,2.62,2.62,0,0,1,1.17.41,2.7,2.7,0,0,1,.94,1.06,2.84,2.84,0,0,1,.24.73,2.74,2.74,0,0,1,0,.81,2.71,2.71,0,0,1-2.21,2.3,2.76,2.76,0,0,1-.81,0,3.08,3.08,0,0,1-.75-.21,2.72,2.72,0,0,1-1.09-.91,2.55,2.55,0,0,1-.45-1.14,2.66,2.66,0,0,1,.34-1.73,2.11,2.11,0,0,1,.41-.5s-.15.17-.36.53a2.71,2.71,0,0,0-.29,1.68,2.56,2.56,0,0,0,.45,1.09,2.69,2.69,0,0,0,1.05.85,2.5,2.5,0,0,0,1.47.18A2.54,2.54,0,0,0,223.39,63a2.15,2.15,0,0,0,0-.76,2.29,2.29,0,0,0-.22-.7,2.52,2.52,0,0,0-.88-1,2.62,2.62,0,0,0-2.78-.06A6.38,6.38,0,0,0,219,60.88Z"/><path class="cls-2" d="M217.68,57.62l-.08,0-.24-.14-1-.56h0l-1.68,1.77v0l.82,1.24v0a6.34,6.34,0,0,0-.58,1.48v0h0l-1.44.36,0-.06c0,.77,0,1.59.05,2.45l0-.06,1.44.3h0v0a5.55,5.55,0,0,0,.63,1.45l0,0,0,0-.76,1.26v-.08l1.76,1.69h-.09c.38-.26.81-.53,1.23-.82l0,0,0,0a5.93,5.93,0,0,0,1.46.58h0v0l.35,1.44L219.7,70l2.44,0-.07.06c.1-.46.2-1,.3-1.45v0h0a5.71,5.71,0,0,0,1.45-.62h0l0,0,0,0,1.26.77h-.09l1.69-1.76V67c-.28-.42-.55-.83-.81-1.24l0,0,0,0a5.71,5.71,0,0,0,.58-1.46v0h0l1.44-.35-.05.07c0-.84,0-1.65,0-2.45l.06.07-1.45-.3h0v0a5.87,5.87,0,0,0-.62-1.45l0,0,0,0,.76-1.26v.08l-1.75-1.7H225l-1.24.81,0,0,0,0a6.31,6.31,0,0,0-1.47-.58h0v0c-.12-.52-.24-1-.35-1.43l0,0-2.45,0,0,0c-.13.57-.23,1.05-.31,1.44v0h0a5.72,5.72,0,0,0-1.12.43l-.26.14-.09,0,.08,0,.26-.15a5.77,5.77,0,0,1,1.12-.46l0,0c.08-.39.17-.87.29-1.45v0h0l2.45-.06h0v0l.36,1.43,0,0a6,6,0,0,1,1.5.59h-.06l1.24-.81,0,0,0,0,1.76,1.7,0,0,0,0L226,59.7v-.07a6.13,6.13,0,0,1,.64,1.48l-.05,0,1.45.3h0v.06c0,.79,0,1.61.05,2.44v.06h-.06l-1.43.36.05-.06a6.07,6.07,0,0,1-.59,1.51v-.08l.81,1.23,0,0,0,0-1.7,1.76,0,0-.05,0L223.87,68h.07a5.86,5.86,0,0,1-1.48.65l.06-.06-.3,1.45,0,0h-.06l-2.44,0h-.06v-.06l-.35-1.43.05,0a6.25,6.25,0,0,1-1.5-.59h.07l-1.23.81,0,0,0,0-1.76-1.7,0,0,0,0,.77-1.26v.07a6.5,6.5,0,0,1-.64-1.48l.05,0-1.45-.3h0v-.05c0-.86,0-1.67,0-2.44v0h0l1.43-.34,0,0a6,6,0,0,1,.59-1.49v0l-.8-1.23,0,0,0,0,1.71-1.75h0l.93.57.24.16Z"/><path class="cls-3" d="M109.9,214.51c-.88-.75-2.83-3.13-1.32-5.9a5.27,5.27,0,0,1,2.78-2,10.91,10.91,0,0,0,3-1.58c1.66-1.41,2.12-3.75,3.21-5.63a7.07,7.07,0,0,1,6.11-3.66c2.85.13,5.22,2.46,6.3,5.11s1.11,5.6,1.14,8.47c0,1.58-.06,3.37-1.22,4.44s-2.69,1-4.14.95l-15.57-.48"/><path class="cls-2" d="M139.67,171.7H98.73l7.38,44a4.92,4.92,0,0,0,3.49,3.92l.15,0c.12,0,.23.07.36.09a4.59,4.59,0,0,0,.83.1v0l.2,0H129.4a5.47,5.47,0,0,0,1-.1,4.92,4.92,0,0,0,4.14-4.3l3.56-30.3.16-1.2h0l1.41-12ZM132,199.75h-4.2l.42-12.76H133Zm1.5-12.76h4L136,199.75h-3.61Zm-12,26.91-.25-11.09h6l-.37,11.09Zm-6.54-11.09h5.88L121,213.9h-5.28Zm.46,11.09h-4.93l-1.74-11.09h5.81Zm-.7-14.15-1-12.76h6.75l.29,12.76Zm6.46,0-.3-12.76h6.94l-.42,12.76Zm-.37-15.82-.27-11.82h7.78l-.39,11.82Zm-.4,0h-6.91l-.92-11.82h7.55Zm-7.32,0h-7.32c-.25-1.64-.5-3.18-.72-4.57-.76-4.78-1-6.58-1.21-7.25h8.33Zm.24,3.06,1,12.76h-6.05c-.2-1.3-.41-2.61-.62-3.92-.47-3-.94-6-1.39-8.84Zm-5.47,12.76h-4L101.71,187h4.08C106.41,190.93,107.1,195.32,107.8,199.75Zm.48,3.06c.6,3.84,1.19,7.62,1.74,11.09h-3.8l-1.86-11.09Zm19,11.09.37-11.09h4l-.95,11.09Zm1-30,.4-11.82h5.64l-1,11.82Zm-24.88-11.82c.16.85.91,5.5,1.91,11.82h-4.11l-2-11.82Zm30.92,41.79h-3.16l.95-11.09h3.51Zm3.52-30h-4.12l1-11.82h4.5Z"/><path class="cls-6" d="M306.37,219.38c0,.07-43.87.13-98,.13s-98-.06-98-.13,43.87-.12,98-.12S306.37,219.31,306.37,219.38Z"/><path class="cls-7" d="M264.63,110.28s5.66-6.51,7.8-13,1.12-5.76,1.12-5.76a75.61,75.61,0,0,1-5.07,9.38c-2.19,3.06-6.09,7.55-6.09,7.55Z"/><path class="cls-7" d="M263.5,92.5a.33.33,0,0,1,.62.21,86.18,86.18,0,0,0-1.07,11.14c0,4.53,0,6.28,0,6.28H260.7s.42-9.36.95-12.21A19.44,19.44,0,0,1,263.5,92.5Z"/><path class="cls-7" d="M262.22,109.37a25.11,25.11,0,0,1-1.94-7,27.41,27.41,0,0,1,.67-6.92,18.2,18.2,0,0,0,.29-3.33.56.56,0,0,0-1.05-.26,14.73,14.73,0,0,0-1.32,3.33c-.57,3-1.21,4.45-.72,7.26a43.31,43.31,0,0,0,2.32,7.15Z"/><path class="cls-7" d="M260.1,109.56s-6.22-13.36-6.65-15.34-1.89-6.55-2.07-6.29a9.23,9.23,0,0,0,.69,5.43c1.12,2.76,5.9,16.6,5.9,16.6h2.13"/><path class="cls-6" d="M262.9,109l.17-.12c.11-.08.28-.2.48-.37a19.64,19.64,0,0,0,1.67-1.47,27.62,27.62,0,0,0,4.51-5.79,37,37,0,0,0,3.08-6.67c.31-.88.54-1.61.69-2.11.08-.26.13-.45.16-.59s.06-.2,0-.2,0,.07-.07.2-.11.33-.19.57c-.16.5-.4,1.22-.73,2.1a39.69,39.69,0,0,1-3.1,6.63,29.24,29.24,0,0,1-4.46,5.79c-.67.66-1.24,1.17-1.64,1.5l-.46.39Z"/><path class="cls-6" d="M262.22,102.55a1.83,1.83,0,0,0,0-.39c0-.28.07-.64.12-1.07.1-.9.25-2.15.47-3.52s.47-2.6.66-3.49c.09-.42.16-.78.22-1a1.62,1.62,0,0,0,.07-.39,2.25,2.25,0,0,0-.12.38c-.07.24-.16.6-.27,1-.21.89-.47,2.12-.69,3.49s-.36,2.62-.43,3.53c0,.45-.07.82-.08,1.08A2,2,0,0,0,262.22,102.55Z"/><path class="cls-6" d="M260.76,91.71a1.78,1.78,0,0,0-.07.17l-.19.5c-.08.22-.17.48-.26.8a11,11,0,0,0-.31,1.07l-.15.62c0,.22-.09.45-.14.69-.1.48-.16,1-.24,1.53a25.05,25.05,0,0,0-.14,3.54,24.54,24.54,0,0,0,.4,3.52c.11.53.21,1,.35,1.51.06.23.11.46.18.67l.2.62c.12.39.26.74.38,1a8.2,8.2,0,0,0,.32.78l.22.48c.05.11.08.16.09.16l-.06-.17-.2-.49c-.09-.22-.2-.48-.3-.78s-.25-.66-.36-1l-.19-.62c-.07-.21-.12-.44-.18-.67-.13-.47-.22-1-.33-1.5a26.14,26.14,0,0,1-.39-3.51,24.83,24.83,0,0,1,.14-3.52c.07-.53.13-1,.22-1.52.05-.24.08-.47.13-.68l.15-.63c.08-.4.19-.76.28-1.07s.17-.59.24-.8l.16-.51C260.75,91.78,260.77,91.72,260.76,91.71Z"/><path class="cls-6" d="M251.45,88.2a.28.28,0,0,0,0,.06l0,.17c0,.15.06.38.12.67.12.57.32,1.4.63,2.4s.73,2.18,1.24,3.47,1.08,2.71,1.63,4.21,1,2.95,1.4,4.28.78,2.52,1.15,3.5.72,1.76,1,2.29c.13.26.25.46.32.59l.09.16,0,0s0,0,0-.06l-.08-.16c-.06-.14-.17-.34-.29-.61a24.38,24.38,0,0,1-.94-2.29c-.36-1-.73-2.18-1.12-3.51s-.83-2.79-1.39-4.29-1.14-2.91-1.65-4.2-.94-2.46-1.26-3.46-.53-1.81-.67-2.38c-.07-.29-.11-.51-.15-.66l0-.17S251.46,88.2,251.45,88.2Z"/><path class="cls-7" d="M270.62,85.25a.53.53,0,0,1,.88.54,15.41,15.41,0,0,1-.78,2c-.86,1.82-3.37,8.33-4.54,11.91S263.35,110,263.35,110l-2.51-.4s2.3-11,4.54-14.92C267.18,91.46,269,86.87,270.62,85.25Z"/><path class="cls-6" d="M265.49,102a1.79,1.79,0,0,0-.13.3c-.07.2-.17.48-.29.84-.23.72-.51,1.72-.79,2.83s-.53,2.12-.69,2.85c-.08.35-.14.64-.19.87a1.55,1.55,0,0,0,0,.32,1.3,1.3,0,0,0,.1-.31c.06-.23.14-.51.23-.86l.72-2.84c.29-1.11.56-2.11.76-2.83.1-.34.19-.63.25-.85A1.6,1.6,0,0,0,265.49,102Z"/><path class="cls-6" d="M262.09,109.76a.17.17,0,0,0,0-.07l0-.19c0-.18.05-.44.1-.76.1-.66.26-1.61.53-2.77s.66-2.52,1.17-4,1.16-3.09,1.9-4.75c1.47-3.32,2.95-6.27,3.92-8.45.48-1.08.86-2,1.11-2.59.13-.3.22-.55.29-.71l.07-.19s0-.06,0-.06l0,.06-.08.18c-.07.17-.17.41-.3.7-.27.61-.66,1.49-1.16,2.58-1,2.16-2.48,5.1-4,8.42-.73,1.67-1.37,3.28-1.88,4.77a38.22,38.22,0,0,0-1.15,4c-.26,1.16-.41,2.12-.49,2.78,0,.33-.06.59-.08.76v.27Z"/><path class="cls-6" d="M260.84,109.56a2.73,2.73,0,0,0,.09-.42c0-.3.11-.69.19-1.16.17-1,.44-2.31.82-3.77s.8-2.75,1.12-3.68l.39-1.11a2.51,2.51,0,0,0,.14-.4,1.49,1.49,0,0,0-.18.39c-.11.25-.26.62-.44,1.08a37.91,37.91,0,0,0-1.16,3.69A38.47,38.47,0,0,0,261,108c-.07.49-.13.88-.16,1.16A2.28,2.28,0,0,0,260.84,109.56Z"/><rect class="cls-8" x="255.69" y="109.2" width="9.79" height="11.93" transform="translate(521.17 230.32) rotate(180)"/><g class="cls-9"><rect x="255.69" y="109.2" width="9.79" height="11.93" transform="translate(521.17 230.32) rotate(180)"/></g><rect class="cls-8" x="258.82" y="109.2" width="8.69" height="11.93" transform="translate(526.32 230.32) rotate(180)"/><circle class="cls-1" cx="212.31" cy="23.57" r="17.9"/><path class="cls-6" d="M230.21,23.57l0-.29-.05-.85,0-.63c0-.23-.07-.47-.11-.74a13.27,13.27,0,0,0-.38-1.85,16.93,16.93,0,0,0-2-4.75,17.86,17.86,0,0,0-12-8.37,16.66,16.66,0,0,0-2.25-.26c-.38,0-.77,0-1.16,0L211,5.85l-.59,0-.6.1c-.39.06-.79.11-1.19.19a16.88,16.88,0,0,0-2.37.7,17.58,17.58,0,0,0-2.32,1c-.38.2-.74.44-1.11.66-.18.11-.37.21-.55.34l-.52.4a19,19,0,0,0-2,1.71A20.36,20.36,0,0,0,198,13.06l-.41.55-.36.58-.35.59a4,4,0,0,0-.33.61l-.61,1.25L195.46,18a19.09,19.09,0,0,0-.92,5.6,19.1,19.1,0,0,0,.92,5.61l.48,1.32.6,1.25a4,4,0,0,0,.34.61l.35.59.36.58.41.55a20.36,20.36,0,0,0,1.74,2.06,20.42,20.42,0,0,0,2,1.72l.52.39c.17.13.37.23.55.35.37.22.73.45,1.11.66a19,19,0,0,0,2.32,1,18.28,18.28,0,0,0,2.37.69c.4.09.8.13,1.2.2l.59.09c.2,0,.4,0,.59,0l1.18.06c.39,0,.78,0,1.16-.05A15.19,15.19,0,0,0,215.6,41a17.6,17.6,0,0,0,7.49-3.32,17.86,17.86,0,0,0,4.53-5,16.81,16.81,0,0,0,2-4.75,13.15,13.15,0,0,0,.38-1.84c0-.27.09-.52.11-.75l0-.62c0-.37,0-.65.05-.85l0-.29v.29l0,.85,0,.63c0,.23-.06.48-.1.75A13.2,13.2,0,0,1,229.7,28a16.82,16.82,0,0,1-2,4.79,18,18,0,0,1-12.1,8.51,17.11,17.11,0,0,1-2.28.27c-.39,0-.78,0-1.17,0L211,41.51c-.2,0-.4,0-.6,0l-.61-.09c-.4-.07-.8-.11-1.21-.2a17.68,17.68,0,0,1-2.4-.7,16.76,16.76,0,0,1-2.35-1c-.38-.2-.75-.44-1.13-.66-.18-.12-.38-.22-.55-.35l-.53-.4a18.68,18.68,0,0,1-2.05-1.74,20.87,20.87,0,0,1-1.77-2.08l-.41-.56-.37-.59-.36-.6a4.47,4.47,0,0,1-.33-.61c-.21-.42-.41-.85-.62-1.27s-.32-.89-.49-1.34a19.32,19.32,0,0,1-.93-5.69,19.64,19.64,0,0,1,.93-5.68c.17-.45.33-.89.49-1.34s.41-.84.62-1.27a5.15,5.15,0,0,1,.33-.61l.37-.6.36-.59.41-.55a21,21,0,0,1,1.77-2.09,18.59,18.59,0,0,1,2.05-1.73l.53-.4c.17-.13.37-.23.56-.35.37-.23.74-.46,1.12-.67a19.48,19.48,0,0,1,2.35-1,19.24,19.24,0,0,1,2.4-.7c.41-.08.81-.13,1.21-.19l.6-.09c.2,0,.41,0,.61,0l1.19-.06c.39,0,.78,0,1.17,0a15.6,15.6,0,0,1,2.28.27,17.93,17.93,0,0,1,12.1,8.5,16.75,16.75,0,0,1,2,4.8,12.69,12.69,0,0,1,.35,1.86c0,.27.08.52.1.75l0,.63,0,.85Z"/><path class="cls-6" d="M220.8,23.06a3.73,3.73,0,0,1-.72.21l-2,.48c-1.69.39-4,.92-6.66,1.49l-.15,0V24.6c0-2.8,0-5.34,0-7.18,0-.89,0-1.62,0-2.18a7.21,7.21,0,0,1,0-.79,3.81,3.81,0,0,1,.05.79c0,.56,0,1.29,0,2.18,0,1.84,0,4.38,0,7.18v.52l-.15-.12c2.62-.57,5-1.07,6.68-1.42l2-.4A6.51,6.51,0,0,1,220.8,23.06Z"/><path class="cls-6" d="M231.49,31a1.91,1.91,0,0,1,.08-.29c.06-.19.16-.46.26-.82a20,20,0,0,0,.7-3.07,21.17,21.17,0,0,0-.94-10.23A21.44,21.44,0,0,0,223.36,6.1c-.31-.22-.56-.36-.72-.47l-.25-.17s.1,0,.27.13a6.18,6.18,0,0,1,.75.43A18,18,0,0,1,226,7.9a20.39,20.39,0,0,1,6.75,18.9,19.37,19.37,0,0,1-.78,3.07c-.12.35-.24.62-.31.8A1.18,1.18,0,0,1,231.49,31Z"/><path class="cls-6" d="M234.93,22.14c-.05,0-.07-.72-.21-1.86a22.87,22.87,0,0,0-1-4.36,22.42,22.42,0,0,0-1.88-4.06c-.58-1-1-1.56-1-1.59a1.92,1.92,0,0,1,.33.38,12.67,12.67,0,0,1,.79,1.12,18.63,18.63,0,0,1,2,4.07,19.3,19.3,0,0,1,.94,4.43c.05.57.07,1,.07,1.36A3.45,3.45,0,0,1,234.93,22.14Z"/><path class="cls-6" d="M194.45,13.2a2.48,2.48,0,0,1-.13.28c-.08.17-.23.42-.38.76a20.81,20.81,0,0,0-1.18,2.92,20.72,20.72,0,0,0,3.62,19.56A21.9,21.9,0,0,0,198.53,39c.27.26.49.44.64.57s.21.21.21.21-.09-.05-.25-.17-.39-.29-.67-.54a19.22,19.22,0,0,1-2.21-2.26,20.38,20.38,0,0,1-3.66-19.74,19.28,19.28,0,0,1,1.26-2.9c.17-.34.33-.58.43-.75A1.12,1.12,0,0,1,194.45,13.2Z"/><path class="cls-6" d="M189.66,21.35s0,.72-.09,1.86a22.1,22.1,0,0,0,.3,4.47A21.84,21.84,0,0,0,191.08,32c.42,1.07.74,1.7.71,1.72s-.12-.14-.27-.42a13.53,13.53,0,0,1-.6-1.24,19,19,0,0,1-1.52-8.84c0-.58.1-1.05.15-1.37A1.6,1.6,0,0,1,189.66,21.35Z"/><path class="cls-6" d="M227.13,26.52l-1.22-.26s.55.1,1.22.24,1.23.25,1.22.26Z"/><path class="cls-6" d="M225.39,31c-.59-.35-1.07-.63-1.06-.64s.48.27,1.08.62,1.07.64,1.07.65Z"/><path class="cls-6" d="M222.28,34.73l-.8-1s.37.42.82.95.81,1,.8,1Z"/><path class="cls-6" d="M218.15,37.22c-.26-.64-.46-1.16-.45-1.16l.47,1.15c.25.64.45,1.16.45,1.17S218.4,37.86,218.15,37.22Z"/><path class="cls-6" d="M213.42,38.24c0-.69,0-1.25,0-1.25s0,.56.07,1.25.05,1.24,0,1.24S213.45,38.92,213.42,38.24Z"/><path class="cls-6" d="M208.62,37.66c.19-.66.36-1.2.36-1.2s-.14.54-.33,1.2l-.36,1.2S208.43,38.32,208.62,37.66Z"/><path class="cls-6" d="M204.27,35.56c.4-.57.72-1,.73-1s-.31.47-.71,1-.73,1-.73,1S203.87,36.12,204.27,35.56Z"/><path class="cls-6" d="M200.84,32.15l1-.72s-.45.34-1,.74l-1,.72Z"/><path class="cls-6" d="M198.7,27.82l1.19-.35s-.53.17-1.19.37l-1.19.36S198,28,198.7,27.82Z"/><path class="cls-6" d="M198.08,23c.69,0,1.24,0,1.24.06l-1.24,0c-.69,0-1.25-.05-1.25-.06Z"/><path class="cls-6" d="M199.05,18.29c.64.25,1.16.45,1.16.46s-.53-.19-1.17-.43l-1.16-.46Z"/><path class="cls-6" d="M201.5,14.13c.53.44.95.81.95.81s-.44-.35-1-.79l-1-.81Z"/><path class="cls-6" d="M205.17,11c.36.59.65,1.07.64,1.08s-.3-.48-.66-1.07-.64-1.07-.63-1.07S204.82,10.4,205.17,11Z"/><path class="cls-6" d="M209.66,9.21c.15.67.26,1.22.26,1.22s-.13-.54-.28-1.21S209.38,8,209.39,8,209.52,8.54,209.66,9.21Z"/><path class="cls-6" d="M214.49,9c-.08.68-.15,1.24-.16,1.24s.06-.56.14-1.24.15-1.24.16-1.24S214.57,8.31,214.49,9Z"/><path class="cls-6" d="M219.13,10.34c-.29.62-.54,1.13-.55,1.12s.23-.51.53-1.13l.55-1.12S219.43,9.72,219.13,10.34Z"/><path class="cls-6" d="M223.08,13.13c-.49.49-.88.89-.89.88l.87-.89c.49-.49.88-.89.89-.88Z"/><path class="cls-6" d="M225.91,17.05l-1.13.55s.5-.26,1.12-.57,1.11-.55,1.12-.55Z"/><path class="cls-6" d="M227.31,21.67l-1.24.15,1.24-.17c.68-.09,1.24-.16,1.24-.15Z"/><path class="cls-6" d="M236.19,20a13.44,13.44,0,0,1-1,2.33l0,.06-.1.19-.12-.18a12.68,12.68,0,0,1-1.26-2.14,12.12,12.12,0,0,1,1.47,2l-.22,0,0-.06A13.21,13.21,0,0,1,236.19,20Z"/><path class="cls-2" d="M126,161.73s12.13,5.47,24.77,5.47c11.71,0,24.1-5.9,24.1-5.9Z"/><rect class="cls-2" x="147.03" y="161.83" width="5.01" height="52.51"/><rect class="cls-2" x="127.3" y="211.26" width="44.49" height="3.08"/><path class="cls-6" d="M132.74,215.35a3.4,3.4,0,1,1-3.4-3.4A3.4,3.4,0,0,1,132.74,215.35Z"/><path class="cls-6" d="M152.51,215.35a3.4,3.4,0,1,1-3.4-3.4A3.4,3.4,0,0,1,152.51,215.35Z"/><path class="cls-6" d="M175.41,215.35A3.4,3.4,0,1,1,172,212,3.39,3.39,0,0,1,175.41,215.35Z"/><rect class="cls-2" x="143.91" y="180.73" width="6.82" height="2.82"/><rect class="cls-2" x="142.66" y="178.75" width="2.48" height="6.77"/><path class="cls-7" d="M124.76,81.81h20.34a0,0,0,0,1,0,0V155a0,0,0,0,1,0,0H119.2a0,0,0,0,1,0,0V87.37A5.56,5.56,0,0,1,124.76,81.81Z"/><path class="cls-6" d="M124.94,153.94c-.07,0-.13-15.9-.13-35.49s.06-35.5.13-35.5.12,15.89.12,35.5S125,153.94,124.94,153.94Z"/><path class="cls-7" d="M119.2,154.9h64.12a0,0,0,0,1,0,0v8a0,0,0,0,1,0,0H123A3.81,3.81,0,0,1,119.2,159V154.9A0,0,0,0,1,119.2,154.9Z"/><path class="cls-10" d="M155.5,52.85l-2.78,26.49c-.47,4.51-.24,11.23,6.92,11.65h0c6.23-.11,8.41-5.8,8.85-10,.2-2,.38-3.65.42-3.86,0,0,6.81.07,8-6.55.57-3.2,1.21-9.89,1.73-15.95A12.54,12.54,0,0,0,168.2,41.2l-.64-.11C160.58,40.35,156.05,45.85,155.5,52.85Z"/><path class="cls-11" d="M168.91,77.12a16.25,16.25,0,0,1-8.22-4s1.3,5.2,8,5.7Z"/><path class="cls-6" d="M167,56.3c-.15.12-.86-.57-2-.7s-2,.34-2.11.18.11-.3.5-.52a2.81,2.81,0,0,1,3.26.41C167,56,167,56.25,167,56.3Z"/><path class="cls-6" d="M166.85,58.87a.91.91,0,0,1-1,.76.88.88,0,0,1-.79-1,.92.92,0,0,1,1-.76A.87.87,0,0,1,166.85,58.87Z"/><path class="cls-6" d="M169.05,64.34a6.92,6.92,0,0,1,1.71,0c.26,0,.52,0,.59-.17a1.4,1.4,0,0,0,0-.8c-.14-.67-.29-1.37-.44-2.11a34.79,34.79,0,0,1-.87-5.48,35.62,35.62,0,0,1,1.3,5.4c.15.74.28,1.44.41,2.12a1.56,1.56,0,0,1,0,1,.7.7,0,0,1-.5.31,2.18,2.18,0,0,1-.45,0A6.88,6.88,0,0,1,169.05,64.34Z"/><path class="cls-6" d="M166.88,52.05c-.13.24-1,0-2.09-.08s-2,.12-2.08-.13.14-.34.53-.52a3.38,3.38,0,0,1,1.61-.3,3.24,3.24,0,0,1,1.56.46C166.77,51.71,166.94,51.94,166.88,52.05Z"/><path class="cls-6" d="M177.31,55.1c-.13.2-1-.11-2-.24s-2-.08-2-.3.15-.27.54-.4a4,4,0,0,1,3.11.42C177.22,54.8,177.37,55,177.31,55.1Z"/><path class="cls-10" d="M155.22,57.85c-.1-.07-4.33-2.11-4.94,2.46s4.09,4.23,4.12,4.1S155.22,57.85,155.22,57.85Z"/><path class="cls-11" d="M153.24,62.5s-.09,0-.23.08a.77.77,0,0,1-.6-.06,2,2,0,0,1-.67-1.89,2.61,2.61,0,0,1,.37-1.11,1,1,0,0,1,.68-.53.42.42,0,0,1,.44.28c0,.14,0,.23,0,.24s.1-.07.09-.26a.45.45,0,0,0-.14-.31.6.6,0,0,0-.42-.17,1.1,1.1,0,0,0-.93.59,2.74,2.74,0,0,0-.44,1.24,2.07,2.07,0,0,0,.89,2.12.86.86,0,0,0,.75,0C153.21,62.61,153.25,62.51,153.24,62.5Z"/><path class="cls-6" d="M167.68,67.41c.06-.11-.81-.46-1.37-1.36a5.57,5.57,0,0,1-.52-1.25c-.1-.35-.19-.57-.24-.56s-.05.24,0,.61a3.36,3.36,0,0,0,.46,1.39,2.82,2.82,0,0,0,1.09,1C167.43,67.42,167.66,67.45,167.68,67.41Z"/><path class="cls-6" d="M149.82,49.87c1.1-1.52,1.5-3.43,2.19-5.18s1.86-3.53,3.69-4l0,0a4.84,4.84,0,0,1,4.8.9,6.29,6.29,0,0,1,5.18-4.44,15.65,15.65,0,0,1,8.22,1.42,17.08,17.08,0,0,1,5,4.7A22.41,22.41,0,0,1,181,46.34l1.45,6.42-2,3.12c-.13.21-.26.42-.41.63v0l-2.19,6.76c.07-1.89.81-8.42.89-10.31a10.56,10.56,0,0,1-7.16-4.14c-.92-1.23-1.59-2.73-2.91-3.54-1.69-1-3.86-.6-5.78-.12l.08-.07a8.42,8.42,0,0,0-2.75,1.63,26.3,26.3,0,0,1-2.15,10.93c-.23.52-.8,1.57-1.35,1.73-1.06.3-1.24-.77-1.81-1.39a2.77,2.77,0,0,0-1.83-.63,40.82,40.82,0,0,1-.82-4.87,4.2,4.2,0,0,1-1.93,0l.72-1.36a2.21,2.21,0,0,1-.86.3.76.76,0,0,1-.75-.42C149.31,50.58,149.59,50.19,149.82,49.87Z"/><path class="cls-7" d="M162.57,42.57a6,6,0,0,0-.72.55,4.81,4.81,0,0,0-1.23,2.13,8.2,8.2,0,0,0-.33,1.68c-.06.62-.07,1.28-.09,2a18.75,18.75,0,0,1-.15,2.19,7.8,7.8,0,0,1-.26,1.14,2.46,2.46,0,0,1-.57,1.08,1,1,0,0,1-1,.23,1.5,1.5,0,0,1-.81-.56,3.54,3.54,0,0,1-.49-1.75l.14,0a5.26,5.26,0,0,1-.94,1.32,2,2,0,0,1-1.36.59,1.22,1.22,0,0,1-.68-.19,1.15,1.15,0,0,1-.43-.5,1.18,1.18,0,0,1-.08-.61.87.87,0,0,1,.26-.5l.06.07a4.36,4.36,0,0,1-1.53.95,3.54,3.54,0,0,1-.46.13l-.16,0s0,0,.15-.05.26-.08.45-.16a4.55,4.55,0,0,0,1.49-1l.06.07a.84.84,0,0,0-.13,1,.93.93,0,0,0,.38.45,1.17,1.17,0,0,0,.62.16,1.84,1.84,0,0,0,1.26-.56,5.2,5.2,0,0,0,.91-1.3l.12-.2,0,.23a3.43,3.43,0,0,0,.47,1.68,1.32,1.32,0,0,0,.72.5.85.85,0,0,0,.82-.19,2.24,2.24,0,0,0,.53-1,7.55,7.55,0,0,0,.26-1.12,20.93,20.93,0,0,0,.16-2.18c0-.69,0-1.36.1-2a8.33,8.33,0,0,1,.35-1.71,4.72,4.72,0,0,1,1.3-2.13A3,3,0,0,1,162.57,42.57Z"/><path class="cls-7" d="M182.64,51l-.06,0-.18.11a1.38,1.38,0,0,1-.3.15,2.79,2.79,0,0,1-.42.18,5.91,5.91,0,0,1-2.91.25,7.59,7.59,0,0,1-3.89-1.86,13.18,13.18,0,0,1-3.1-4.31c-.41-.86-.73-1.72-1.1-2.53a8.8,8.8,0,0,0-1.3-2.17,4.69,4.69,0,0,0-1.82-1.35,3.57,3.57,0,0,0-1-.21,3.69,3.69,0,0,0-.95.1,3.81,3.81,0,0,0-1.47.71,3.67,3.67,0,0,0-.84.91,4.53,4.53,0,0,0-.44,1,.28.28,0,0,1,0-.06l0-.21a3.43,3.43,0,0,1,.33-.73,3.69,3.69,0,0,1,.84-.94,3.84,3.84,0,0,1,1.5-.75,3.8,3.8,0,0,1,1-.11,3.63,3.63,0,0,1,1.05.21,4.75,4.75,0,0,1,1.88,1.38,8.77,8.77,0,0,1,1.33,2.2c.37.81.69,1.67,1.1,2.52A13.19,13.19,0,0,0,175,49.74a7.64,7.64,0,0,0,3.82,1.86,6,6,0,0,0,2.87-.2A9.26,9.26,0,0,0,182.64,51Z"/><path class="cls-6" d="M177.13,57.66c-.15.13-.86-.57-2-.7s-2,.34-2.1.18.1-.3.49-.52a2.84,2.84,0,0,1,1.71-.32,2.72,2.72,0,0,1,1.55.73C177.11,57.34,177.2,57.61,177.13,57.66Z"/><path class="cls-6" d="M176.18,59.73a.91.91,0,0,1-1,.76.87.87,0,0,1-.79-1,.93.93,0,0,1,1-.76A.87.87,0,0,1,176.18,59.73Z"/><path class="cls-6" d="M180.56,45.52a2.87,2.87,0,0,0,2.23,1.58,6.93,6.93,0,0,0,1-.19c.3.23.11,1.34-.15,1.63a6.75,6.75,0,0,1-.77.65c1,.71,2.06.52,3.27.21a5.78,5.78,0,0,1-3.88,4.25,2.06,2.06,0,0,1-1.85-.16,2.36,2.36,0,0,1-.66-1.52,25.9,25.9,0,0,1-.18-6.22Z"/><path class="cls-8" d="M168.2,83.34s4.22,1.71,6.62,7.55c1.69,4.1,11.07,17,11.07,17l25,5.54.85,8-39.9-.33-5.55-17.65Z"/><path class="cls-8" d="M151.4,76,147,77.84c-4.09,1.72-9.34,5.67-11.09,9.75a135.22,135.22,0,0,0-9.52,33.66c-1.48,11.27,1.47,28,1.47,28l37.44-21.4-2.18-1.53,7.09-38.61L168.86,83l.88-4s-9.93-4-17.17-6.85Z"/><g class="cls-9"><path d="M147.83,138.05q.19-2.9.41-5.78a2.56,2.56,0,0,1-1.62.69,16.5,16.5,0,0,0,2.48-3l-1.71.74a5,5,0,0,0,1.45-1.73c-.91-.72-2.2-.6-3.36-.48a106.2,106.2,0,0,1-17.83-.2,4,4,0,0,1-1.7-.5,7.23,7.23,0,0,1,.14-2.23c.27-.61.68-.44,1.3-.66a7.09,7.09,0,0,1,2-.3,162.06,162.06,0,0,1,21.69.81,2.28,2.28,0,0,1,1.27.37c.59.48.54,1.38.44,2.13-.37,2.7-.73,5.4-1.1,8.1"/></g><path class="cls-6" d="M169.74,86.12a1.71,1.71,0,0,1,0,.37l-.15,1c-.14.89-.36,2.18-.64,3.77-.56,3.19-1.41,7.58-2.42,12.41s-2,9.19-2.69,12.35c-.36,1.55-.65,2.82-.86,3.73l-.25,1a2.24,2.24,0,0,1-.1.35,1.89,1.89,0,0,1,.05-.36l.2-1c.19-.92.46-2.19.79-3.75.67-3.19,1.6-7.55,2.62-12.36s1.88-9.21,2.49-12.39c.29-1.57.54-2.85.71-3.76.08-.43.15-.77.2-1A2.64,2.64,0,0,1,169.74,86.12Z"/><path class="cls-6" d="M135.88,140.93s.07-.08.22-.23l.67-.61c.29-.27.65-.6,1.09-1s.91-.78,1.48-1.21c1.11-.89,2.47-1.88,4-2.92s3.33-2.09,5.24-3.11,3.79-1.86,5.53-2.57,3.33-1.27,4.68-1.68c.67-.22,1.29-.39,1.84-.54s1-.27,1.39-.36l.89-.21.31-.05-.3.1-.87.25c-.39.1-.85.23-1.39.4s-1.15.34-1.81.58c-1.35.43-2.93,1-4.66,1.72s-3.58,1.58-5.49,2.58-3.67,2.07-5.23,3.08-2.94,2-4.05,2.87c-.57.42-1.06.83-1.5,1.17s-.82.66-1.12.92l-.7.58Z"/><path class="cls-6" d="M155.1,126.8c0,.06-3.61,2.11-8.14,4.57s-8.22,4.41-8.25,4.35,3.61-2.1,8.14-4.57S155.06,126.74,155.1,126.8Z"/><g class="cls-9"><path d="M141.94,97.22a33.75,33.75,0,0,0,18.89,23.14A224.21,224.21,0,0,1,141.94,97.22Z"/></g><g class="cls-9"><path d="M169.15,89.57a20.31,20.31,0,0,1-1.9,13.36l-.53-1.1c.75-3.2,1.83-8.87,2.43-12.26"/></g><path class="cls-7" d="M189.05,191.11l-4.49,13.51s12.23,9.1,11.64,11.68l-26.5-7.76,6.13-21.34Z"/><g class="cls-9"><path d="M189.05,191.11l-4.49,13.51s12.23,9.1,11.64,11.68l-26.5-7.76,6.13-21.34Z"/></g><path class="cls-2" d="M176.71,201.07a1.13,1.13,0,0,0-1.11,1,1.08,1.08,0,0,0,1,1.11,1.19,1.19,0,0,0,1.17-1.08c0-.56-.62-1.16-1.16-1"/><g class="cls-12"><path class="cls-1" d="M169.7,208.54l.7-2.13,25.15,8.24s1,.86.65,1.65Z"/></g><path class="cls-6" d="M185,204.61c0,.13-.7,0-1.46.23s-1.26.67-1.36.59.3-.78,1.23-1S185.1,204.5,185,204.61Z"/><path class="cls-6" d="M187.48,206.58c0,.13-.64.19-1.24.61s-.89,1-1,.91,0-.8.76-1.3S187.51,206.45,187.48,206.58Z"/><path class="cls-6" d="M188.08,210.37c-.12,0-.12-.71.42-1.32s1.23-.72,1.26-.59-.47.39-.9.9S188.21,210.39,188.08,210.37Z"/><path class="cls-6" d="M185.71,201.42c-.08.1-.63-.25-1.37-.41s-1.39-.1-1.42-.24.65-.43,1.52-.22S185.81,201.34,185.71,201.42Z"/><path class="cls-7" d="M196.78,197.14l-.56,14.23s14.27,5.34,14.42,8L183,219.26l0-22.2Z"/><path class="cls-2" d="M187.69,210.14a1.13,1.13,0,0,0-.79,1.29,1.08,1.08,0,0,0,1.27.78,1.17,1.17,0,0,0,.82-1.36,1.12,1.12,0,0,0-1.4-.67"/><g class="cls-12"><path class="cls-1" d="M183,219.26l.08-2.24,26.45.92s1.23.54,1.08,1.41Z"/></g><path class="cls-6" d="M196.67,211.23c0,.13-.68.19-1.34.62s-1,1-1.15,1,.08-.84.9-1.34S196.7,211.1,196.67,211.23Z"/><path class="cls-6" d="M199.56,212.44c0,.13-.55.35-1,.92s-.6,1.17-.73,1.17-.22-.77.37-1.47S199.56,212.31,199.56,212.44Z"/><path class="cls-6" d="M201.2,215.91c-.13,0-.31-.65,0-1.39s1-1,1-.91-.33.5-.61,1.11S201.33,215.89,201.2,215.91Z"/><path class="cls-6" d="M196.44,208c-.06.12-.68-.06-1.44,0s-1.36.28-1.43.17.51-.6,1.41-.64S196.51,207.87,196.44,208Z"/><path class="cls-6" d="M163.71,127.5s33.09,8.6,37.2,14.33c3.48,4.84-14.75,54.33-14.75,54.33l-14.37-1.24L178,153.53,140.9,141.74l5.6-14.24Z"/><path class="cls-6" d="M166.08,135.25s33.83,8.22,37.25,14.06c1.6,2.73.55,11.68,0,15.9-.41,2.85-6.39,42.68-6.39,42.68H182.27l.32-45h0l-35.15-7.08s-18.87,1.43-19.61-6.61l7.88-10.68,18.59-9.19Z"/><path class="cls-7" d="M163.5,134.22s.17,0,.49.12l1.44.4,5.51,1.55c2.4.67,5.33,1.49,8.72,2.49s7.23,2.23,11.39,3.8q3.13,1.17,6.46,2.67l1.68.76a16.69,16.69,0,0,1,1.65.91,11.2,11.2,0,0,1,1.53,1.16,5.64,5.64,0,0,1,1.24,1.54c1.14,5.18.45,10.85-.4,16.64-.37,2.92-.84,5.9-1.29,8.94s-.92,6.16-1.39,9.32c-.95,6.33-1.93,12.89-2.94,19.6l-.57,3.79V208H182.15v-.12c.13-17,.25-32.49.35-45l.08.1-25-5.08-6.82-1.4-1.77-.37-.61-.14.61.11,1.78.34,6.83,1.36,25,5,.08,0v.07c-.08,12.5-.18,27.94-.29,45l-.13-.12H196.9l-.12.1c.19-1.25.38-2.52.57-3.79,1-6.71,2-13.26,2.93-19.59.48-3.17.95-6.27,1.4-9.32s.93-6,1.3-8.94l.59-4.31a40.58,40.58,0,0,0,.37-4.21c.05-1.39,0-2.76,0-4.11,0-.67-.07-1.34-.12-2a4.91,4.91,0,0,0-.39-1.89,5.46,5.46,0,0,0-1.18-1.48,11.07,11.07,0,0,0-1.51-1.14,15.35,15.35,0,0,0-1.63-.91l-1.67-.76c-2.21-1-4.36-1.89-6.44-2.67-4.15-1.59-8-2.8-11.37-3.83s-6.31-1.85-8.7-2.54l-5.51-1.59-1.43-.42Z"/><path class="cls-10" d="M210.36,113.87c.21-.33,3-3.55,3.76-3.55a3,3,0,0,1,1.61.86,2.84,2.84,0,0,1,1.62-.22c.64.22,3.65,2.8,3.65,3.77v1.61a4.11,4.11,0,0,1,0,1.29c-.1.75-1.93,2-1.93,2H208.75s-2-1.33-1.72-2.58S210.36,113.87,210.36,113.87Z"/><path class="cls-11" d="M215.73,111.18a4.22,4.22,0,0,1,.65.36l1.71,1.08a5.24,5.24,0,0,1,.56.39,1.52,1.52,0,0,1,.42.64,3.12,3.12,0,0,1,.09.8l0,.82c.06,1.13.12,2.36.18,3.65l0,.59v.1l-.1,0-.63.15h0a1.37,1.37,0,0,1-.81-.31,2.18,2.18,0,0,1-.52-.62,5.32,5.32,0,0,1-.54-1.39,12.35,12.35,0,0,1-.36-2.48l.06.08-1.81-.71a3.39,3.39,0,0,1-.64-.3,5.55,5.55,0,0,1,.68.21l1.83.63.05,0V115a13.6,13.6,0,0,0,.4,2.43,5.51,5.51,0,0,0,.53,1.33,1.41,1.41,0,0,0,1.13.8h0l.63-.15-.09.12,0-.58c-.06-1.3-.11-2.53-.16-3.66,0-.28,0-.56,0-.82a3.42,3.42,0,0,0-.07-.75,1.3,1.3,0,0,0-.35-.56,4.7,4.7,0,0,0-.53-.38l-1.66-1.14C215.94,111.35,215.73,111.19,215.73,111.18Z"/><path class="cls-11" d="M208.75,119.31a2.92,2.92,0,0,1,.69-.1l1.88-.15h0a18.69,18.69,0,0,0,2.13.39,12,12,0,0,0,1.23.1,1.39,1.39,0,0,0,1.14-.33.94.94,0,0,0,.18-.63c0-.23,0-.47,0-.72a1,1,0,0,0-.28-.53,1.93,1.93,0,0,0-.52-.38,3.82,3.82,0,0,0-2.21-.4,1.72,1.72,0,0,1-1.46-.58.74.74,0,0,1-.19-.55,1.53,1.53,0,0,0,.27.49,1.68,1.68,0,0,0,1.38.47,4,4,0,0,1,2.33.36,2.79,2.79,0,0,1,.57.42,1.15,1.15,0,0,1,.35.7c0,.22.05.47.05.73a1.3,1.3,0,0,1-.24.78,1.08,1.08,0,0,1-.64.37,2.72,2.72,0,0,1-.69,0,10.34,10.34,0,0,1-1.27-.11,18.75,18.75,0,0,1-2.14-.43h0l-1.88.07A4.76,4.76,0,0,1,208.75,119.31Z"/><path class="cls-11" d="M219.27,119.26a15.79,15.79,0,0,1,.83-1.87,8.12,8.12,0,0,1,1-1.82,8.63,8.63,0,0,1-.72,1.92A5.84,5.84,0,0,1,219.27,119.26Z"/><path class="cls-6" d="M196.88,121.44l37.23.49,12-33.61a1.41,1.41,0,0,0-.74-1.79h0a1.41,1.41,0,0,0-1.89.8l-11.81,31.83-34.78.34a1,1,0,0,0-1,1h0A1,1,0,0,0,196.88,121.44Z"/><path class="cls-8" d="M141.4,96.49s18.19,24.76,21,24.76H189V111.18l-20.09-4.74S159,86,156.82,83.34s-8-6.16-12.42-2.22S141.4,96.49,141.4,96.49Z"/><path class="cls-10" d="M189,112.15l4.36-.35s.09-1.61,1-2.18.86-1.81,1.43-1.71a2.53,2.53,0,0,0,.95,0l3.61-3,3-2,2.38-.48s1.42.38,0,1.71l-1.52.86-1.34,1.33,3-1.49a1,1,0,0,1,.89,0,12.93,12.93,0,0,1,2.34,1.31.66.66,0,0,1,0,1l1.33,1.14s.28,1.52-1.24,1.14l-1.23-.28-1.62,1.61s5.51-1.14,5.89-1a1.09,1.09,0,0,1,0,1.81c-.85.76-4.18.57-4.94,1.33s-5.79,5.35-7,5.63S189,121.25,189,121.25Z"/><path class="cls-11" d="M210.54,108.19a7,7,0,0,1-.75-.53l-.81-.57c-.15-.11-.31-.21-.48-.32a1.2,1.2,0,0,0-.51-.21,3.2,3.2,0,0,0-1.06.45c-.33.17-.62.34-.87.48a4.18,4.18,0,0,1-.8.45,2.52,2.52,0,0,1,.71-.59c.23-.17.52-.35.84-.54.17-.1.34-.2.52-.29a1.5,1.5,0,0,1,.65-.2.49.49,0,0,1,.2,0l.16.07.28.15.5.34c.3.22.56.44.78.62C210.33,107.89,210.57,108.17,210.54,108.19Z"/><path class="cls-11" d="M197.19,107.54c0,.06-.41.45-.94,1s-1,.93-1,.88a3,3,0,0,1,.84-1.06A2.78,2.78,0,0,1,197.19,107.54Z"/><path class="cls-6" d="M156.82,83.34a11.33,11.33,0,0,1,1.05,1.53c.63,1,1.52,2.59,2.58,4.6,2.15,4,5.1,9.83,8.55,16.92l-.07,0,20.1,4.72.1,0v10.29H162.64a1.94,1.94,0,0,1-.33,0,1.17,1.17,0,0,1-.33-.11,3.34,3.34,0,0,1-.55-.33,10.85,10.85,0,0,1-1-.8,44.41,44.41,0,0,1-3.31-3.46c-2-2.32-3.85-4.56-5.49-6.61-3.27-4.11-5.82-7.51-7.58-9.86l-2-2.72-.51-.71-.17-.25a2.37,2.37,0,0,1,.19.23l.53.7,2,2.69c1.78,2.34,4.36,5.71,7.64,9.81,1.64,2,3.46,4.27,5.5,6.58a46.24,46.24,0,0,0,3.31,3.44,10.38,10.38,0,0,0,.95.78,3.4,3.4,0,0,0,.52.31,1,1,0,0,0,.56.1H189l-.12.13V111.18l.09.12-20.09-4.76h0l0,0c-3.43-7.09-6.35-12.92-8.46-17-1-2-1.92-3.57-2.53-4.62-.31-.52-.55-.92-.73-1.17Z"/><path class="cls-6" d="M154.18,81.72s-.62-.21-1.64-.44a13.18,13.18,0,0,0-1.81-.27,14.05,14.05,0,0,0-2.24,0,12.8,12.8,0,0,0-3.93,1c-1,.41-1.5.77-1.53.73a1.87,1.87,0,0,1,.37-.28,7.87,7.87,0,0,1,1.09-.61,10.24,10.24,0,0,1,1.74-.67,12.91,12.91,0,0,1,2.24-.43,13.34,13.34,0,0,1,2.28,0,11.2,11.2,0,0,1,1.83.33,9,9,0,0,1,1.19.4A1.64,1.64,0,0,1,154.18,81.72Z"/><path class="cls-6" d="M165.25,111a6.82,6.82,0,0,1,1.36-2.34,7.06,7.06,0,0,1,2-1.85c0,.06-.86.85-1.78,2S165.32,111.05,165.25,111Z"/><path class="cls-6" d="M164.64,107.93a3.93,3.93,0,0,1,1.72-1,4.16,4.16,0,0,1,2-.31c0,.08-.87.17-1.89.54S164.68,108,164.64,107.93Z"/><path class="cls-7" d="M181.71,159.61a3.31,3.31,0,0,0-2.16-1.42c-16.74-5.4-34.7-8-52-4.85a12.93,12.93,0,0,0-5.88,2.2c-1.65,1.32-2.65,3.7-1.77,5.62l3.56,1.14a226.18,226.18,0,0,1,53.29.37,6.87,6.87,0,0,0,3.55-.17A2.3,2.3,0,0,0,181.71,159.61Z"/><path class="cls-6" d="M162.29,154.08h-.11l-.33,0-1.24-.19c-1.07-.17-2.63-.42-4.56-.64a109.25,109.25,0,0,0-15.17-.72c-1.49,0-2.94.1-4.33.21s-2.74.19-4,.3a2.8,2.8,0,0,1-.5,0,2.26,2.26,0,0,0-.45,0,5.44,5.44,0,0,0-.9.14l-1.74.36a31.1,31.1,0,0,0-3.06.83,17.86,17.86,0,0,0-4.16,1.93c-.45.3-.79.55-1,.72l-.25.2c-.06.05-.1.07-.1.06l.08-.08.24-.22a11.78,11.78,0,0,1,1-.76,17.2,17.2,0,0,1,4.15-2,31.28,31.28,0,0,1,3.08-.86l1.73-.38a5.6,5.6,0,0,1,.94-.14,2.68,2.68,0,0,1,.49,0,3.53,3.53,0,0,0,.46,0c1.27-.12,2.63-.2,4-.31s2.85-.19,4.34-.22a100.86,100.86,0,0,1,15.2.8c1.93.24,3.49.52,4.56.72l1.23.23.32.06C162.25,154.06,162.29,154.07,162.29,154.08Z"/><path class="cls-7" d="M120.34,126.8l28.53,1a.72.72,0,0,1,.68.81l-4.11,34.22h6.43l3.32-37.66a2.21,2.21,0,0,0-2.11-2.48l-33.51-1.2Z"/><polygon class="cls-7" points="271.97 124.31 267.5 124.31 267.5 125.3 277.35 219.38 281.94 219.38 271.97 124.31"/><polygon class="cls-7" points="172.16 124.31 176.63 124.31 176.63 125.32 167.45 219.35 162.86 219.35 172.16 124.31"/><path class="cls-6" d="M172.16,124.31s0,.17,0,.49-.08.81-.13,1.44c-.12,1.26-.3,3.11-.52,5.5-.46,4.79-1.13,11.71-1.95,20.29-1.66,17.14-4,40.88-6.54,67.33l-.12-.14h4.59l-.12.12c4.35-44.18,8-81.6,9.26-94h0v-1l0,0-3.38,0h0l3.4,0h0v1h0c-1.21,12.43-4.82,49.86-9.1,94v.11h-4.84v-.13c2.61-26.48,5-50.26,6.65-67.41.85-8.57,1.54-15.48,2-20.25.24-2.38.43-4.22.55-5.48.07-.62.12-1.09.15-1.42S172.16,124.31,172.16,124.31Z"/><rect class="cls-7" x="161.4" y="121.25" width="127.96" height="4.05"/><path class="cls-6" d="M275.73,125.3c0,.07-25.5.12-57,.12s-57,0-57-.12,25.5-.13,57-.13S275.73,125.23,275.73,125.3Z"/></g></g></svg>