<svg xmlns="http://www.w3.org/2000/svg" viewBox="0 0 400 220"><defs><style>.cls-1{fill:#fff;}.cls-2{fill:#e0e0e0;}.cls-3{fill:#fafafa;}.cls-4{fill:#ebebeb;}.cls-5{fill:#f5f5f5;}.cls-6{fill:#263238;}.cls-7{font-size:12.09px;font-family:Poppins-Medium, Poppins;font-weight:500;}.cls-8{fill:#eb6471;}.cls-9{fill:#50536d;}.cls-10{fill:#282937;}.cls-11{fill:#eebd9d;}.cls-12{fill:#d79870;}.cls-13{opacity:0.4;}.cls-14{opacity:0.3;}</style></defs><g id="Layer_2" data-name="Layer 2"><g id="Background_Complete" data-name="Background Complete"><rect class="cls-1" width="400" height="220"/></g><g id="Layer_10" data-name="Layer 10"><rect class="cls-2" x="49.92" y="18.8" width="47.59" height="49.61"/><rect class="cls-3" x="46.7" y="18.8" width="47.59" height="49.61"/><path class="cls-2" d="M94.31,68.43H46.68V18.79H94.31Zm-47.6,0H94.28V18.82H46.71Z"/><rect class="cls-1" x="53.1" y="25.47" width="34.8" height="36.27"/><path class="cls-2" d="M53.1,62a6.58,6.58,0,0,1-.86,1c-.56.59-1.34,1.39-2.21,2.25s-1.68,1.63-2.28,2.17a5.36,5.36,0,0,1-1,.84,5.51,5.51,0,0,1,.85-1c.56-.59,1.34-1.39,2.22-2.25s1.68-1.63,2.28-2.18A4.6,4.6,0,0,1,53.1,62Z"/><path class="cls-2" d="M87.89,61.9a4.87,4.87,0,0,1,1,.86c.59.55,1.38,1.33,2.25,2.21s1.63,1.68,2.17,2.27a5.2,5.2,0,0,1,.84,1,5.58,5.58,0,0,1-1-.86c-.58-.55-1.38-1.34-2.24-2.21s-1.64-1.69-2.18-2.28A5.77,5.77,0,0,1,87.89,61.9Z"/><path class="cls-2" d="M87.8,25.57a5.58,5.58,0,0,1,.86-1c.55-.59,1.33-1.38,2.21-2.24s1.68-1.63,2.27-2.18a6.18,6.18,0,0,1,1-.84,5.58,5.58,0,0,1-.86,1c-.55.58-1.33,1.38-2.21,2.25s-1.69,1.63-2.28,2.18A5.51,5.51,0,0,1,87.8,25.57Z"/><path class="cls-2" d="M53,25.66a6.17,6.17,0,0,1-1-.86c-.58-.56-1.38-1.34-2.24-2.21s-1.63-1.68-2.18-2.28a5.51,5.51,0,0,1-.83-1,6,6,0,0,1,1,.85c.59.56,1.38,1.34,2.25,2.22s1.63,1.68,2.18,2.28A5.51,5.51,0,0,1,53,25.66Z"/><path class="cls-2" d="M87.8,61.75a1.62,1.62,0,0,1,0-.18v-.51c0-.45,0-1.11,0-2,0-1.71,0-4.21,0-7.39,0-6.35,0-15.4-.07-26.24l.14.14-34.7,0h0l.15-.16c0,13.32,0,25.77,0,36.28l-.13-.14,25.12.07,7.06,0h1.9l-1.84,0-7,0-25.21.07H53v-.13c0-10.51,0-23,0-36.28v-.15h.16l34.7,0h.13v.13c0,10.87-.05,20-.06,26.33,0,3.16,0,5.65,0,7.36,0,.84,0,1.48,0,1.93v.49C87.8,61.69,87.8,61.75,87.8,61.75Z"/><rect class="cls-4" x="64.69" y="37.8" width="11.61" height="11.61"/><polygon class="cls-2" points="334.88 21.08 334.88 65.93 270.47 65.93 268.15 21.39 334.88 21.08"/><rect class="cls-1" x="278.14" y="11.41" width="44.44" height="64.42" transform="translate(256.74 343.97) rotate(-90)"/><path class="cls-2" d="M332.87,66.14h-65v-45h65Zm-64.41-.61h63.8V21.7h-63.8Z"/><rect class="cls-1" x="275.13" y="26.91" width="50.46" height="33.4"/><path class="cls-2" d="M325.59,26.91h-1l-2.77,0-10.4,0-36.32.07.14-.15c0,10.21,0,21.51,0,33.4h0l-.16-.16,50.46,0-.13.13c0-10.16.05-18.5.07-24.3,0-2.9,0-5.16,0-6.72,0-.77,0-1.35,0-1.76s0-.62,0-.62,0,.2,0,.59,0,1,0,1.74c0,1.55,0,3.8,0,6.69,0,5.82,0,14.19.06,24.38v.13h-.13l-50.46,0H275v-.16h0c0-11.89,0-23.19,0-33.4v-.14h.15l36.42.07,10.36,0,2.75,0h.93Z"/><path class="cls-2" d="M268.15,21.27a5.1,5.1,0,0,1,1.11.71c.66.48,1.55,1.16,2.52,1.93s1.82,1.51,2.42,2.06a6.17,6.17,0,0,1,.93.94c-.06.07-1.61-1.21-3.55-2.75A35.23,35.23,0,0,1,268.15,21.27Z"/><path class="cls-2" d="M332.56,21.39a30.9,30.9,0,0,1-3.38,2.89,31.92,31.92,0,0,1-3.59,2.63A29.85,29.85,0,0,1,329,24,30.77,30.77,0,0,1,332.56,21.39Z"/><path class="cls-1" d="M332.51,65.84,325.33,60"/><path class="cls-2" d="M325.33,60A32.55,32.55,0,0,1,329,62.81a31.33,31.33,0,0,1,3.49,3,34.77,34.77,0,0,1-3.69-2.79A33.74,33.74,0,0,1,325.33,60Z"/><path class="cls-2" d="M268.15,65.83A30.9,30.9,0,0,1,271.5,63a31.35,31.35,0,0,1,3.55-2.61,29.17,29.17,0,0,1-3.35,2.86A30.46,30.46,0,0,1,268.15,65.83Z"/><rect class="cls-5" x="295.66" y="27.03" width="11.18" height="31.75" transform="translate(258.34 344.16) rotate(-90)"/><polygon class="cls-5" points="104.39 177.59 104.39 198.95 135.62 198.95 170.08 198.95 170.08 177.59 104.39 177.59"/><polygon class="cls-2" points="101.63 171.62 101.63 177.59 172.37 177.59 172.37 171.62 135.62 171.62 101.63 171.62"/><polygon class="cls-2" points="137 198.95 170.08 198.95 170.08 177.59 172.37 177.59 172.37 171.62 135.62 171.62 135.62 177.04 137 198.95"/><rect class="cls-2" x="113.57" y="181.03" width="13.32" height="3.22"/><rect class="cls-1" x="111.86" y="188.27" width="17.11" height="6.79"/><polygon class="cls-5" points="303.34 139.1 288.24 200.15 292.22 200.15 307.69 139.1 303.34 139.1"/><polygon class="cls-5" points="331.78 139.1 345.9 200.15 341.93 200.15 327.43 139.1 331.78 139.1"/><polygon class="cls-5" points="319.97 199.25 315.35 199.25 314.66 129.19 319.28 129.19 319.97 199.25"/><rect class="cls-4" x="284.33" y="88.04" width="65.28" height="41.82"/><rect class="cls-5" x="300.61" y="138.46" width="32.76" height="4.04"/><path class="cls-5" d="M288.67,124.4a4,4,0,0,1,0,.77h-.08c-.07-2-.12-8.82-.12-16.85,0-4.85,0-9.23.05-12.46,0-1.56,0-2.84.05-3.78q0-.61,0-1a1.65,1.65,0,0,1,0-.36,1.65,1.65,0,0,1,0,.36q0,.41,0,1c0,.94,0,2.22,0,3.78,0,3.23,0,7.61.05,12.46,0,8-.05,14.8-.12,16.85h-.08A4,4,0,0,1,288.67,124.4Z"/><path class="cls-5" d="M293.53,124.4a5.48,5.48,0,0,1,0,.77h-.09c-.06-2-.11-8.82-.11-16.85,0-4.85,0-9.23,0-12.46,0-1.56,0-2.84.06-3.78q0-.61,0-1a1.65,1.65,0,0,1,0-.36,1.65,1.65,0,0,1,0,.36q0,.41,0,1c0,.94,0,2.22.05,3.78,0,3.23,0,7.61.05,12.46,0,8-.05,14.8-.12,16.85h-.09A4.4,4.4,0,0,1,293.53,124.4Z"/><path class="cls-5" d="M298.39,124.4a5.48,5.48,0,0,1,0,.77h-.09c-.06-2-.11-8.82-.11-16.85,0-4.85,0-9.23,0-12.46,0-1.56,0-2.84.05-3.78q0-.61,0-1a1.26,1.26,0,0,1,0-.36,1.65,1.65,0,0,1,0,.36q0,.41,0,1c0,.94,0,2.22.05,3.78,0,3.23,0,7.61.05,12.46,0,8-.05,14.8-.12,16.85h-.09A4.4,4.4,0,0,1,298.39,124.4Z"/><path class="cls-5" d="M303.25,124.4a5.48,5.48,0,0,1,0,.77h-.09c-.07-2-.12-8.82-.12-16.85,0-4.85,0-9.23.05-12.46,0-1.56,0-2.84.05-3.78q0-.61,0-1c0-.24,0-.36,0-.36a1.65,1.65,0,0,1,0,.36q0,.41,0,1c0,.94,0,2.22.05,3.78,0,3.23,0,7.61.05,12.46,0,8-.05,14.8-.12,16.85h-.09A3.4,3.4,0,0,1,303.25,124.4Z"/><path class="cls-5" d="M308.1,124.4a4.4,4.4,0,0,1,0,.77h-.09c-.07-2-.12-8.82-.12-16.85,0-4.85,0-9.23.05-12.46,0-1.56,0-2.84.05-3.78q0-.61,0-1a1.65,1.65,0,0,1,0-.36,1.26,1.26,0,0,1,0,.36q0,.41,0,1c0,.94,0,2.22.05,3.78,0,3.23,0,7.61,0,12.46,0,8,0,14.8-.11,16.85h-.09A5.48,5.48,0,0,1,308.1,124.4Z"/><path class="cls-5" d="M313,124.4a4.4,4.4,0,0,1,.05.77h-.09c-.07-2-.12-8.82-.12-16.85,0-4.85,0-9.23.05-12.46,0-1.56,0-2.84,0-3.78q0-.61,0-1a1.65,1.65,0,0,1,0-.36,1.65,1.65,0,0,1,0,.36q0,.41,0,1c0,.94,0,2.22.06,3.78,0,3.23,0,7.61,0,12.46,0,8-.05,14.8-.11,16.85h-.09A5.48,5.48,0,0,1,313,124.4Z"/><path class="cls-5" d="M317.82,124.4a4.4,4.4,0,0,1,.05.77h-.09c-.07-2-.12-8.82-.12-16.85,0-4.85,0-9.23,0-12.46,0-1.56,0-2.84.05-3.78q0-.61,0-1a1.65,1.65,0,0,1,0-.36,1.65,1.65,0,0,1,0,.36q0,.41,0,1c0,.94,0,2.22.05,3.78,0,3.23,0,7.61.05,12.46,0,8-.05,14.8-.11,16.85h-.09A4,4,0,0,1,317.82,124.4Z"/><path class="cls-5" d="M322.68,124.4a5.48,5.48,0,0,1,0,.77h-.09c-.06-2-.11-8.82-.11-16.85,0-4.85,0-9.23.05-12.46,0-1.56,0-2.84.05-3.78q0-.61,0-1a1.65,1.65,0,0,1,0-.36,1.65,1.65,0,0,1,0,.36q0,.41,0,1c0,.94,0,2.22.05,3.78,0,3.23,0,7.61,0,12.46,0,8,0,14.8-.12,16.85h-.09A4.4,4.4,0,0,1,322.68,124.4Z"/><path class="cls-5" d="M327.54,124.4a5.48,5.48,0,0,1,0,.77h-.09c-.06-2-.11-8.82-.11-16.85,0-4.85,0-9.23,0-12.46,0-1.56,0-2.84.05-3.78q0-.61,0-1a2,2,0,0,1,0-.36,1.65,1.65,0,0,1,0,.36q0,.41,0,1c0,.94,0,2.22,0,3.78,0,3.23,0,7.61.05,12.46,0,8-.05,14.8-.12,16.85h-.09A4.4,4.4,0,0,1,327.54,124.4Z"/><path class="cls-5" d="M332.4,124.4a5.48,5.48,0,0,1,0,.77h-.09c-.07-2-.12-8.82-.12-16.85,0-4.85,0-9.23,0-12.46,0-1.56,0-2.84.05-3.78q0-.61,0-1c0-.24,0-.36,0-.36a1.65,1.65,0,0,1,0,.36q0,.41,0,1c0,.94,0,2.22.05,3.78,0,3.23,0,7.61.05,12.46,0,8-.05,14.8-.12,16.85h-.09A4.4,4.4,0,0,1,332.4,124.4Z"/><path class="cls-5" d="M337.25,124.4a4.4,4.4,0,0,1,.05.77h-.09c-.07-2-.12-8.82-.12-16.85,0-4.85,0-9.23.05-12.46,0-1.56,0-2.84.05-3.78q0-.61,0-1a1.65,1.65,0,0,1,0-.36s0,.12,0,.36,0,.61,0,1c0,.94,0,2.22.05,3.78,0,3.23,0,7.61,0,12.46,0,8,0,14.8-.11,16.85h-.09A5.48,5.48,0,0,1,337.25,124.4Z"/><path class="cls-5" d="M342.11,124.4a4.4,4.4,0,0,1,.05.77h-.09c-.07-2-.12-8.82-.12-16.85,0-4.85,0-9.23.05-12.46,0-1.56,0-2.84.05-3.78q0-.61,0-1a.18.18,0,1,1,.06,0l0,1c0,.94,0,2.22.05,3.78,0,3.23,0,7.61,0,12.46,0,8,0,14.8-.11,16.85h-.09A5.48,5.48,0,0,1,342.11,124.4Z"/><path class="cls-5" d="M347,124.4a4.4,4.4,0,0,1,0,.77h-.09c-.07-2-.12-8.82-.12-16.85,0-4.85,0-9.23.05-12.46,0-1.56,0-2.84.05-3.78q0-.61,0-1a.18.18,0,1,1,.06,0q0,.41,0,1c0,.94,0,2.22.05,3.78,0,3.23,0,7.61.05,12.46,0,8-.05,14.8-.11,16.85h-.09A5.48,5.48,0,0,1,347,124.4Z"/><path class="cls-6" d="M335.77,199c0,.06-62.94.12-140.58.12S54.6,199,54.6,199s62.93-.12,140.59-.12S335.77,198.89,335.77,199Z"/><rect class="cls-1" x="79.54" y="47.24" width="212.52" height="105.59"/><rect class="cls-2" x="79.54" y="47.24" width="212.52" height="13.1"/><path class="cls-6" d="M292.05,152.83c0-.68,0-40.48-.08-105.59l.08.08-212.5,0h0l.11-.11c0,37.22,0,72.94,0,105.59l-.1-.11,212.51.11-212.51.1h-.11v-.1c0-32.65,0-68.37,0-105.59v-.12h.13l212.5,0h.09v.09C292.09,112.35,292.05,152.15,292.05,152.83Z"/><rect class="cls-3" x="96.35" y="86.87" width="175.44" height="25.64" rx="2.44"/><path class="cls-6" d="M269.34,112.51a2.47,2.47,0,0,0,1-.22,2.42,2.42,0,0,0,1-.79,2.48,2.48,0,0,0,.46-1.64c0-2.65,0-6.56,0-11.59,0-2.52,0-5.32,0-8.38a4.76,4.76,0,0,0-.07-1.14,2.38,2.38,0,0,0-.53-1,2.5,2.5,0,0,0-1-.66,2.86,2.86,0,0,0-.58-.13h-5.79l-24.3,0L98.8,87a2.37,2.37,0,0,0-2,1.17,2.52,2.52,0,0,0-.31,1.17v20.25a3.66,3.66,0,0,0,.11,1.2,2.34,2.34,0,0,0,1.65,1.55,4.72,4.72,0,0,0,1.2.08h48.39l63.26,0,42.64,0,11.59,0h3l-3,0-11.59,0-42.64,0-63.26,0h-49a3.5,3.5,0,0,1-.64-.08,2.56,2.56,0,0,1-1.81-1.71,4,4,0,0,1-.12-1.27V89.32A2.53,2.53,0,0,1,96.57,88a2.59,2.59,0,0,1,2.23-1.29l140.69,0h30.1a3.18,3.18,0,0,1,.61.14,2.46,2.46,0,0,1,1,.7,2.42,2.42,0,0,1,.56,1.06,5.15,5.15,0,0,1,.07,1.17c0,3.06,0,5.86,0,8.38,0,5,0,8.94,0,11.59a2.6,2.6,0,0,1-.48,1.66,2.48,2.48,0,0,1-1,.79,2.34,2.34,0,0,1-.74.19Z"/><text class="cls-7" transform="translate(98.73 80.66)">SoftSkills</text><path class="cls-2" d="M112.73,101.27V102H109.4V97.53h3.24v.69h-2.41v1.15h2.13v.68h-2.13v1.22Z"/><path class="cls-2" d="M116.89,100V102h-.79v-1.83c0-.6-.29-.89-.8-.89a.89.89,0,0,0-.94,1V102h-.79V98.58h.75V99a1.46,1.46,0,0,1,1.16-.47A1.32,1.32,0,0,1,116.89,100Z"/><path class="cls-2" d="M119.93,101.78a1.27,1.27,0,0,1-.76.23,1,1,0,0,1-1.16-1.14V99.24h-.56v-.63H118v-.77h.79v.77h.9v.63h-.9v1.61c0,.33.16.51.46.51a.75.75,0,0,0,.45-.14Z"/><path class="cls-2" d="M123.63,100.53H121a1,1,0,0,0,1.09.81A1.21,1.21,0,0,0,123,101l.42.49a1.89,1.89,0,0,1-3.22-1.19,1.68,1.68,0,0,1,1.74-1.72,1.65,1.65,0,0,1,1.71,1.74A2,2,0,0,1,123.63,100.53ZM121,100h1.92a.92.92,0,0,0-1-.82A.94.94,0,0,0,121,100Z"/><path class="cls-2" d="M126.36,98.55v.75l-.19,0a.92.92,0,0,0-1,1V102h-.79V98.58h.75v.5A1.33,1.33,0,0,1,126.36,98.55Z"/><path class="cls-2" d="M132,98.58l-1.59,3.65a1.3,1.3,0,0,1-1.3,1,1.36,1.36,0,0,1-.9-.31l.31-.58a.84.84,0,0,0,.58.24c.28,0,.45-.14.6-.47l.06-.13-1.48-3.4h.82l1.07,2.5,1.07-2.5Z"/><path class="cls-2" d="M132.08,100.27a1.81,1.81,0,1,1,1.8,1.74A1.7,1.7,0,0,1,132.08,100.27Zm2.81,0a1,1,0,1,0-1,1.06A1,1,0,0,0,134.89,100.27Z"/><path class="cls-2" d="M139.71,98.58V102H139v-.43a1.38,1.38,0,0,1-1.09.48,1.34,1.34,0,0,1-1.45-1.5V98.58h.79v1.83c0,.61.29.9.79.9s.92-.34.92-1V98.58Z"/><path class="cls-2" d="M142.71,98.55v.75l-.19,0a.92.92,0,0,0-1,1V102h-.79V98.58h.75v.5A1.33,1.33,0,0,1,142.71,98.55Z"/><path class="cls-2" d="M148.48,100V102h-.79v-1.83c0-.6-.3-.89-.8-.89a.9.9,0,0,0-.95,1V102h-.79V98.58h.76V99a1.45,1.45,0,0,1,1.16-.47A1.32,1.32,0,0,1,148.48,100Z"/><path class="cls-2" d="M152.31,100v2h-.74v-.41a1.21,1.21,0,0,1-1.07.46c-.77,0-1.26-.43-1.26-1s.38-1,1.41-1h.87v0c0-.46-.28-.74-.84-.74a1.65,1.65,0,0,0-1,.34l-.31-.58a2.42,2.42,0,0,1,1.43-.41C151.75,98.55,152.31,99,152.31,100Zm-.79.93v-.4h-.81c-.54,0-.69.21-.69.45s.24.47.65.47A.87.87,0,0,0,151.52,100.91Z"/><path class="cls-2" d="M159,100V102h-.79v-1.83c0-.6-.27-.89-.76-.89s-.87.34-.87,1V102h-.8v-1.83c0-.6-.27-.89-.76-.89s-.87.34-.87,1V102h-.8V98.58h.76V99a1.39,1.39,0,0,1,1.1-.46,1.25,1.25,0,0,1,1.14.56,1.59,1.59,0,0,1,1.27-.56A1.29,1.29,0,0,1,159,100Z"/><path class="cls-2" d="M163.18,100.53h-2.65a1,1,0,0,0,1.09.81,1.21,1.21,0,0,0,.92-.37l.42.49a1.89,1.89,0,0,1-3.22-1.19,1.68,1.68,0,0,1,1.74-1.72,1.65,1.65,0,0,1,1.71,1.74A2,2,0,0,1,163.18,100.53Zm-2.66-.53h1.92a.92.92,0,0,0-1-.82A.94.94,0,0,0,160.52,100Z"/><path class="cls-2" d="M169,100V102h-.79v-1.83c0-.6-.29-.89-.8-.89a.89.89,0,0,0-.94,1V102h-.79V97.27h.79V99a1.48,1.48,0,0,1,1.12-.43A1.32,1.32,0,0,1,169,100Z"/><path class="cls-2" d="M173.22,100.53h-2.65a1,1,0,0,0,1.1.81,1.18,1.18,0,0,0,.91-.37l.43.49a1.9,1.9,0,0,1-3.23-1.19,1.68,1.68,0,0,1,1.75-1.72,1.65,1.65,0,0,1,1.71,1.74A2.12,2.12,0,0,1,173.22,100.53Zm-2.65-.53h1.91a.91.91,0,0,0-.95-.82A.93.93,0,0,0,170.57,100Z"/><path class="cls-2" d="M176,98.55v.75l-.18,0a.91.91,0,0,0-1,1V102H174V98.58h.76v.5A1.31,1.31,0,0,1,176,98.55Z"/><path class="cls-2" d="M179.75,100.53H177.1a1,1,0,0,0,1.09.81,1.21,1.21,0,0,0,.92-.37l.43.49a1.9,1.9,0,0,1-3.23-1.19,1.68,1.68,0,0,1,1.75-1.72,1.64,1.64,0,0,1,1.7,1.74A2,2,0,0,1,179.75,100.53Zm-2.66-.53H179a.91.91,0,0,0-.95-.82A.94.94,0,0,0,177.09,100Z"/><path class="cls-8" d="M142.22,138.11H104.46a9.38,9.38,0,0,1-9.38-9.39h0a9.38,9.38,0,0,1,9.38-9.38h37.76a9.38,9.38,0,0,1,9.38,9.38h0A9.38,9.38,0,0,1,142.22,138.11Z"/><rect class="cls-8" x="107.2" y="93.94" width="0.72" height="11.96"/><path class="cls-3" d="M107.16,128.49a2.37,2.37,0,0,1,2.49-2.39,2.33,2.33,0,0,1,1.83.78l-.55.52a1.65,1.65,0,0,0-1.24-.54,1.63,1.63,0,1,0,0,3.26,1.63,1.63,0,0,0,1.24-.55l.55.53a2.51,2.51,0,0,1-4.32-1.61Z"/><path class="cls-6" d="M109.64,130.89a2.55,2.55,0,0,1-1.78-.68,2.44,2.44,0,0,1,0-3.44,2.55,2.55,0,0,1,1.79-.68,2.37,2.37,0,0,1,1.84.78h0l-.56.54h0a1.62,1.62,0,0,0-1.23-.54,1.65,1.65,0,0,0-1.18.45,1.63,1.63,0,0,0-.47,1.17,1.59,1.59,0,0,0,.47,1.16,1.69,1.69,0,0,0,2.41-.09h0l.57.54h0A2.39,2.39,0,0,1,109.64,130.89Zm0-4.78a2.54,2.54,0,0,0-1.77.67,2.4,2.4,0,0,0,0,3.41,2.47,2.47,0,0,0,1.76.67,2.38,2.38,0,0,0,1.83-.76l-.54-.51a1.64,1.64,0,0,1-1.24.54,1.64,1.64,0,1,1,0-3.28,1.68,1.68,0,0,1,1.24.53l.54-.5A2.33,2.33,0,0,0,109.65,126.11Z"/><path class="cls-3" d="M111.81,129a1.89,1.89,0,1,1,1.88,1.82A1.78,1.78,0,0,1,111.81,129Zm2.94,0a1.05,1.05,0,1,0-1.06,1.11A1,1,0,0,0,114.75,129Z"/><path class="cls-6" d="M113.69,130.87a1.83,1.83,0,1,1,0-3.65,2,2,0,0,1,1.37.51,1.86,1.86,0,0,1,0,2.62A2,2,0,0,1,113.69,130.87Zm0-3.63a1.8,1.8,0,1,0,0,3.6,2,2,0,0,0,1.35-.5,1.86,1.86,0,0,0,0-2.6A2,2,0,0,0,113.69,127.24Zm0,2.92a1.12,1.12,0,1,1,1.07-1.12A1,1,0,0,1,113.69,130.16Zm0-2.22a1.1,1.1,0,1,0,1,1.1A1,1,0,0,0,113.69,127.94Z"/><path class="cls-3" d="M119.87,128.78v2H119v-1.92c0-.63-.31-.94-.84-.94a.94.94,0,0,0-1,1.07v1.79h-.83v-3.54h.79v.46a1.52,1.52,0,0,1,1.22-.5A1.38,1.38,0,0,1,119.87,128.78Z"/><path class="cls-6" d="M119.88,130.82H119v-1.93c0-.61-.29-.93-.83-.93a.93.93,0,0,0-1,1.06v1.8h-.85v-3.56h.81v.44a1.56,1.56,0,0,1,1.21-.48,1.5,1.5,0,0,1,1.07.38,1.57,1.57,0,0,1,.42,1.18Zm-.83,0h.81v-2a1.37,1.37,0,0,0-1.47-1.54,1.54,1.54,0,0,0-1.21.49l0,0v-.48h-.77v3.52h.81V129a1,1,0,0,1,1-1.08c.56,0,.85.33.85.95Z"/><path class="cls-3" d="M123.06,130.62a1.31,1.31,0,0,1-.8.24,1.09,1.09,0,0,1-1.22-1.2V128h-.58v-.67H121v-.8h.83v.8h.95V128h-.95v1.68c0,.35.17.53.49.53a.72.72,0,0,0,.46-.14Z"/><path class="cls-6" d="M122.26,130.87a1.1,1.1,0,0,1-1.23-1.21V128h-.59v-.69H121v-.81h.85v.81h1V128h-1v1.67c0,.34.17.52.48.52a.76.76,0,0,0,.46-.14h0l.24.6h0A1.31,1.31,0,0,1,122.26,130.87ZM120.47,128h.58v1.71a1.08,1.08,0,0,0,1.21,1.18,1.27,1.27,0,0,0,.78-.23l-.22-.57a.7.7,0,0,1-.46.14c-.32,0-.5-.19-.5-.54V128h1v-.64h-1v-.81h-.81v.81h-.58Z"/><path class="cls-3" d="M123.63,126.19a.53.53,0,1,1,.53.49A.49.49,0,0,1,123.63,126.19Zm.11,1.08h.83v3.54h-.83Z"/><path class="cls-6" d="M124.58,130.82h-.85v-3.56h.85Zm-.83,0h.81v-3.52h-.81Zm.41-4.1a.51.51,0,1,1,0-1,.5.5,0,0,1,.54.49A.52.52,0,0,1,124.16,126.7Zm0-1a.49.49,0,1,0,.52.47A.49.49,0,0,0,124.16,125.7Z"/><path class="cls-3" d="M129.15,128.78v2h-.83v-1.92c0-.63-.32-.94-.85-.94a.94.94,0,0,0-1,1.07v1.79h-.83v-3.54h.79v.46a1.52,1.52,0,0,1,1.22-.5A1.38,1.38,0,0,1,129.15,128.78Z"/><path class="cls-6" d="M129.16,130.82h-.85v-1.93c0-.61-.29-.93-.84-.93a.93.93,0,0,0-1,1.06v1.8h-.85v-3.56h.81v.44a1.56,1.56,0,0,1,1.21-.48,1.46,1.46,0,0,1,1.06.38,1.58,1.58,0,0,1,.43,1.18Zm-.83,0h.8v-2a1.37,1.37,0,0,0-1.46-1.54,1.54,1.54,0,0,0-1.22.49v-.45h-.77v3.52h.81V129a1,1,0,0,1,1-1.08c.56,0,.86.33.86.95Z"/><path class="cls-3" d="M133.63,127.27v3.54h-.79v-.45a1.45,1.45,0,0,1-1.14.5,1.4,1.4,0,0,1-1.52-1.57v-2H131v1.91c0,.64.31.95.83.95a.93.93,0,0,0,1-1.07v-1.79Z"/><path class="cls-6" d="M131.7,130.87a1.52,1.52,0,0,1-1.11-.39,1.59,1.59,0,0,1-.43-1.19v-2H131v1.92c0,.61.28.93.81.93s1-.38,1-1.05v-1.8h.85v3.56h-.81v-.43A1.48,1.48,0,0,1,131.7,130.87Zm-1.51-3.59v2a1.61,1.61,0,0,0,.41,1.18,1.54,1.54,0,0,0,1.1.37,1.44,1.44,0,0,0,1.13-.49l0,0v.47h.77v-3.52h-.81v1.78a1,1,0,0,1-1,1.08c-.55,0-.84-.33-.84-1v-1.9Z"/><path class="cls-3" d="M138,129.3h-2.78a1.07,1.07,0,0,0,1.14.85,1.29,1.29,0,0,0,1-.38l.44.51a2,2,0,0,1-3.38-1.24,1.75,1.75,0,0,1,1.83-1.81,1.73,1.73,0,0,1,1.79,1.83C138.05,129.13,138,129.22,138,129.3Zm-2.79-.55h2a1,1,0,0,0-1-.86A1,1,0,0,0,135.25,128.75Z"/><path class="cls-6" d="M136.38,130.87a2,2,0,0,1-1.43-.52,1.79,1.79,0,0,1-.53-1.31,1.76,1.76,0,0,1,1.84-1.82,1.74,1.74,0,0,1,1.8,1.84c0,.08,0,.2,0,.25h-2.78a1.06,1.06,0,0,0,1.13.82,1.25,1.25,0,0,0,1-.38h0l.46.52h0A1.81,1.81,0,0,1,136.38,130.87Zm-.12-3.63a1.81,1.81,0,0,0-1.29,3.09,2,2,0,0,0,1.41.51,1.8,1.8,0,0,0,1.42-.56l-.43-.5a1.29,1.29,0,0,1-1,.38,1.07,1.07,0,0,1-1.15-.85v0H138s0-.16,0-.23A1.72,1.72,0,0,0,136.26,127.24Zm1,1.52h-2a1,1,0,0,1,2,0Zm-2,0h2a1,1,0,0,0-1-.84A1,1,0,0,0,135.26,128.74Z"/><circle class="cls-1" cx="87.31" cy="53.27" r="2.11"/><circle class="cls-1" cx="95.08" cy="53.27" r="2.11"/><circle class="cls-1" cx="102.85" cy="53.27" r="2.11"/><path class="cls-9" d="M81.24,149.6a14.6,14.6,0,0,1,9-1.1,7.55,7.55,0,0,1,4.46,2c1.12,1.23,1.33,3.4.05,4.45a4.3,4.3,0,0,1-2.82.72c-2.39,0-5-.45-7,1-1.08.82-1.81,2.18-3.11,2.58a3.08,3.08,0,0,1-3.39-1.5,5.26,5.26,0,0,1-.38-3.88A5.93,5.93,0,0,1,81.24,149.6Z"/><path class="cls-9" d="M74.94,137.44c1.68,2.41,5,1.61,6.46.15S83.56,134,84.14,132c1.33-4.63,2.68-9.48,1.69-14.19A7.91,7.91,0,0,0,84,113.92a4.1,4.1,0,0,0-3.9-1.3c-1.65.43-2.67,2-3.41,3.58a33.65,33.65,0,0,0-3.34,14.52,11.7,11.7,0,0,0,1.58,6.72"/><path class="cls-9" d="M70.33,140.89a8.76,8.76,0,0,0,1.36-8,15.59,15.59,0,0,0-4.77-6.91,25.68,25.68,0,0,0-8.52-5,9.2,9.2,0,0,0-3.84-.65,4,4,0,0,0-3.21,1.95c-.9,1.71,0,3.79.89,5.48a64.93,64.93,0,0,0,5.6,8.53c1.68,2.16,3.6,4.3,6.16,5.27s5.21.87,6.57-.91"/><path class="cls-10" d="M74.83,173.66a5.61,5.61,0,0,0,.15-1.09c.08-.8.17-1.79.29-3a43.26,43.26,0,0,1,.67-4.37,33.73,33.73,0,0,1,1.59-5.15,18.75,18.75,0,0,1,2.63-4.66,9.84,9.84,0,0,1,3.33-2.77,9.28,9.28,0,0,1,2.8-.87,5,5,0,0,0,1.08-.16,5.86,5.86,0,0,0-1.1,0,8.6,8.6,0,0,0-2.92.76,10,10,0,0,0-3.51,2.79,18.59,18.59,0,0,0-2.73,4.76,32.43,32.43,0,0,0-1.58,5.24,37.21,37.21,0,0,0-.58,4.42c-.09,1.27-.13,2.29-.14,3A4.94,4.94,0,0,0,74.83,173.66Z"/><path class="cls-10" d="M75,171.37a1.71,1.71,0,0,0,0-.51v-1.45c0-1.25,0-3.07.06-5.31.11-4.49.5-9.33,1.25-16.14.7-6.4,1.65-13.86,2.66-18.7.21-1.11.43-2.1.63-3s.36-1.62.52-2.23l.34-1.4a3.19,3.19,0,0,0,.09-.5,1.63,1.63,0,0,0-.18.47L80,124c-.19.6-.38,1.35-.59,2.21s-.47,1.86-.71,3a163.54,163.54,0,0,0-2.79,17.36c-.75,6.82-1.08,13-1.11,17.54,0,2.25,0,4.07.07,5.33,0,.59.07,1.07.09,1.45A3.3,3.3,0,0,0,75,171.37Z"/><path class="cls-10" d="M75.06,159.38a9.2,9.2,0,0,0,0-1.51,41.23,41.23,0,0,0-.46-4.1,56.2,56.2,0,0,0-1.33-6,50.22,50.22,0,0,0-2.5-7.06,37.46,37.46,0,0,0-7.33-11.41,18.9,18.9,0,0,0-1.72-1.61c-.27-.22-.5-.44-.74-.62l-.67-.46a8.36,8.36,0,0,0-1.27-.81,43.39,43.39,0,0,1,4.17,3.72,39.47,39.47,0,0,1,7.15,11.37,57.2,57.2,0,0,1,2.51,7c.65,2.19,1.09,4.21,1.42,5.91s.49,3.09.6,4A10.45,10.45,0,0,0,75.06,159.38Z"/><polygon class="cls-8" points="63.48 180.53 67.05 198.76 83.93 198.76 87.02 180.53 63.48 180.53"/><rect class="cls-8" x="61.43" y="174.04" width="28.11" height="6.49"/><path class="cls-1" d="M86.16,185.91l-.1.15-.3.42-1.18,1.57-.06.07,0-.07-2.9-4.19h.17l-2.86,4.22-.09.13-.1-.12-3.4-4.2h.2l-.19.25-3,4-.1.13-.09-.14-2.86-4.21h.16l-3.52,4.19-.06.07,0-.08-1.11-1.93-.28-.52-.09-.18s0,.05.12.16.19.29.32.5c.28.46.67,1.09,1.15,1.89h-.11l3.47-4.23.09-.11.08.12c.88,1.27,1.85,2.69,2.88,4.2h-.19l3-4,.18-.24.1-.13.1.13c1.19,1.47,2.33,2.9,3.38,4.21h-.19l2.89-4.2.08-.12.09.12L84.58,188h-.1c.51-.65.93-1.16,1.23-1.54L86,186C86.11,186,86.15,185.9,86.16,185.91Z"/><path class="cls-6" d="M87.32,180.42c0,.07-5.3.13-11.84.13s-11.83-.06-11.83-.13,5.3-.13,11.83-.13S87.32,180.35,87.32,180.42Z"/><path class="cls-11" d="M244.13,124.53l3.43,3.68s14.35,24.06,16.4,25.61,5.48,3.33,7.53,3.05,7.51-4,7.51-4l-4.76-14.62-5.42-1.48-14.62-17Z"/><path class="cls-11" d="M246.88,127.43c-1.22-1.47-4.36-4.49-4.36-4.49l-1.33-1.41a2.24,2.24,0,0,0-.14.36,1.5,1.5,0,0,1-.34.65,1.14,1.14,0,0,1-1.31,0,2.84,2.84,0,0,1-1.41-2.42,2.8,2.8,0,0,1,1.31-2.35,2.06,2.06,0,0,1,.37-.72c1.12-1.44,3.75-1.25,3.75-1.25l-.39-.56s-1.79-1.11-4.78.78a2.21,2.21,0,0,1-1.5.33,1.13,1.13,0,0,1-.81-.49c-.43-.74,0-1.24,1.83-2.45s4-1.76,5.41-1.24a14.66,14.66,0,0,1,1.89.8s-3.26-5.26-3.45-5.6c-.56-1-.59-2.07,0-2.51.39-.28,1.1-.34,1.79.79s7.94,10.22,7.94,10.22l3,4.28Z"/><path class="cls-11" d="M253.31,120.3a1.62,1.62,0,0,1-1.87.13c-.6-.31-1.07-.82-1.65-1.17-1.71-1-4.06-.62-5.72-1.75-.24-.15-.47-.42-.37-.68s.41-.29.67-.3l6.66-.27"/><path class="cls-12" d="M251,116.26a2.61,2.61,0,0,0-.72-.05l-2,0-2.91.08-.84,0a1.33,1.33,0,0,0-1,.27.55.55,0,0,0-.06.62,1.11,1.11,0,0,0,.36.41,4.74,4.74,0,0,0,.86.46,24.86,24.86,0,0,0,3.51.76,5,5,0,0,1,1.41.53c.4.24.74.54,1.09.78a2.37,2.37,0,0,0,1.91.54c.49-.13.63-.41.61-.41a1.7,1.7,0,0,1-.64.26A2.22,2.22,0,0,1,251,120c-.32-.24-.66-.56-1.09-.83a5.28,5.28,0,0,0-1.48-.6,31.25,31.25,0,0,1-3.45-.77,4.52,4.52,0,0,1-.79-.41c-.23-.16-.35-.39-.24-.49s.42-.14.7-.15l.84,0,2.91-.16,2-.14A3.16,3.16,0,0,0,251,116.26Z"/><path class="cls-12" d="M243.51,115.78a2.62,2.62,0,0,0-1-.81,2.16,2.16,0,0,0-1.33-.11,5.56,5.56,0,0,0-1.55.67,8.89,8.89,0,0,1-1.58.78,2.81,2.81,0,0,1-1.44.12,1.13,1.13,0,0,1-.78-.6.6.6,0,0,1-.07-.35s0,.12.16.3a1,1,0,0,0,.72.48,2.73,2.73,0,0,0,1.34-.17,9.63,9.63,0,0,0,1.53-.78,5.41,5.41,0,0,1,1.63-.67,2.19,2.19,0,0,1,1.44.18,1.94,1.94,0,0,1,.74.64C243.49,115.65,243.52,115.77,243.51,115.78Z"/><path class="cls-12" d="M241.41,107a7.51,7.51,0,0,1,.65,1l1.52,2.55,1.55,2.53a6.21,6.21,0,0,1,.61,1.06,6.21,6.21,0,0,1-.76-1c-.44-.62-1-1.5-1.61-2.49s-1.11-1.91-1.46-2.59A5.67,5.67,0,0,1,241.41,107Z"/><path class="cls-12" d="M243,117.7a1.31,1.31,0,0,1-.38.06,1.13,1.13,0,0,0-.83.46.63.63,0,0,0,0,.61,3.5,3.5,0,0,0,.47.65,1.4,1.4,0,0,1,.38.9,1.17,1.17,0,0,1-.56.91,1.33,1.33,0,0,1-1,.15,1.75,1.75,0,0,1-.84-.5,5.38,5.38,0,0,1-.8-1.37,3.21,3.21,0,0,1-.26-1,.69.69,0,0,1,.06-.39s0,.14,0,.38a3.68,3.68,0,0,0,.33,1,5.9,5.9,0,0,0,.81,1.29,1.32,1.32,0,0,0,1.58.29,1,1,0,0,0,.45-.71,1.23,1.23,0,0,0-.32-.75,3.47,3.47,0,0,1-.48-.72.8.8,0,0,1,.05-.77,1.16,1.16,0,0,1,1-.46C242.91,117.66,243,117.68,243,117.7Z"/><path class="cls-12" d="M241.06,121.22s.1.09.15.32a1.11,1.11,0,0,1-.28.92,1.44,1.44,0,0,1-1.38.34,2.3,2.3,0,0,1-1.36-1.07,2.87,2.87,0,0,1-.41-1.69,2.61,2.61,0,0,1,.49-1.33,2.46,2.46,0,0,1,.67-.67.88.88,0,0,1,.31-.15,4.52,4.52,0,0,0-.84.91,2.64,2.64,0,0,0-.4,1.25,2.7,2.7,0,0,0,.39,1.55,2.16,2.16,0,0,0,1.21,1,1.25,1.25,0,0,0,1.2-.25,1,1,0,0,0,.31-.78C241.1,121.34,241,121.23,241.06,121.22Z"/><path class="cls-12" d="M246.85,122.54s.15-.17.51-.3a2.24,2.24,0,0,1,1.5,0l-.14.16a7,7,0,0,1-.31-.78,5.23,5.23,0,0,1-.26-2.87,13.38,13.38,0,0,0,.49,2.79c.09.27.19.53.29.76l.11.25-.25-.09a2.43,2.43,0,0,0-1.39-.08A5.42,5.42,0,0,1,246.85,122.54Z"/><path class="cls-12" d="M241.27,113.6c.07,0,.1.5-.25,1s-.82.63-.84.57.35-.29.64-.71S241.2,113.6,241.27,113.6Z"/><path class="cls-9" d="M235.58,198a35.18,35.18,0,0,1-10.93.47c-4.83-.72-15.66,0-15.65,6.4,0,7.11,14.44,5.35,20.07,4.22s11.24-2.14,11.24-2.14Z"/><path class="cls-10" d="M222.62,207.06a12.13,12.13,0,0,1-.7-2.47,11.37,11.37,0,0,1-.42-2.53,12.53,12.53,0,0,1,.69,2.47A11.78,11.78,0,0,1,222.62,207.06Z"/><path class="cls-10" d="M224.59,207.16a13.15,13.15,0,0,1-.49-2.54,11.9,11.9,0,0,1-.21-2.57,12.11,12.11,0,0,1,.49,2.53A12,12,0,0,1,224.59,207.16Z"/><path class="cls-10" d="M226.49,206.41a9.86,9.86,0,0,1-.4-2.21A8.89,8.89,0,0,1,226,202a9.86,9.86,0,0,1,.4,2.21A8.89,8.89,0,0,1,226.49,206.41Z"/><path class="cls-10" d="M229.48,205.67a7.63,7.63,0,0,1-.95-3.94,16.14,16.14,0,0,1,.48,2A13.12,13.12,0,0,1,229.48,205.67Z"/><path class="cls-10" d="M230.12,203.07a2.42,2.42,0,0,1,.76,0,6.11,6.11,0,0,1,2,.4,2,2,0,0,1,.63.33,1,1,0,0,1,.39.71,1.07,1.07,0,0,1-1.31.95,2.68,2.68,0,0,1-1.51-1.08,4.55,4.55,0,0,1-.85-1.77,4.49,4.49,0,0,1,.64-3.68.73.73,0,0,1,.43-.26.6.6,0,0,1,.48.15,1.31,1.31,0,0,1,.36.78,3.78,3.78,0,0,1-.08,1.44,4,4,0,0,1-1,1.82,3.84,3.84,0,0,1-.42.38c-.11.07-.17.11-.17.1s.2-.18.51-.55a4.08,4.08,0,0,0,.86-1.79,3.89,3.89,0,0,0,0-1.37,1.15,1.15,0,0,0-.29-.63.37.37,0,0,0-.56.1,4.5,4.5,0,0,0,.24,5.12,2.51,2.51,0,0,0,1.34,1,.84.84,0,0,0,1-.7.73.73,0,0,0-.3-.54,1.94,1.94,0,0,0-.56-.32,6.68,6.68,0,0,0-2-.47C230.39,203.08,230.12,203.09,230.12,203.07Z"/><path class="cls-10" d="M239.74,206l-.15,0-.43.11-1.68.38c-1.45.32-3.57.77-6.19,1.28s-5.76,1.08-9.28,1.56a25.41,25.41,0,0,1-5.57.28,12.35,12.35,0,0,1-2.92-.56,8.39,8.39,0,0,1-1.41-.62,4.63,4.63,0,0,1-1.23-1l0,0a3.4,3.4,0,0,1-.5-.61,3.74,3.74,0,0,1-.29-3.11,5,5,0,0,1,1.85-2.42,9.62,9.62,0,0,1,2.63-1.3c.46-.13.91-.29,1.37-.39s.9-.22,1.36-.28a56.82,56.82,0,0,1,9.64-.28c1.38,0,2.61,0,3.7-.08a23.57,23.57,0,0,0,2.77-.35l1-.21.72-.2.44-.12c.1,0,.15,0,.16,0l-.15.06-.43.14-.72.23-1,.24a24.56,24.56,0,0,1-2.78.4c-1.09.08-2.33.13-3.71.12a57.75,57.75,0,0,0-9.6.33c-.45.07-.89.19-1.34.28s-.89.26-1.34.39a9,9,0,0,0-2.56,1.27,4.79,4.79,0,0,0-1.75,2.29,3.46,3.46,0,0,0,.27,2.88,2.39,2.39,0,0,0,.45.54h0v0a4.28,4.28,0,0,0,1.14.91,8.55,8.55,0,0,0,1.35.6,11.85,11.85,0,0,0,2.86.55,25.1,25.1,0,0,0,5.52-.26c3.51-.47,6.64-1,9.27-1.5s4.75-.9,6.21-1.19l1.69-.33.43-.08C239.68,206,239.73,206,239.74,206Z"/><path class="cls-10" d="M218.62,209.39a8.87,8.87,0,0,1-.14-1.48c-.07-.91-.18-2.16-.36-3.54s-.41-2.62-.59-3.52a8.64,8.64,0,0,1-.25-1.46,6.85,6.85,0,0,1,.44,1.42,32.63,32.63,0,0,1,.95,7.09A7.24,7.24,0,0,1,218.62,209.39Z"/><g class="cls-13"><polygon points="233.81 198.27 237.47 207.43 240.31 206.91 234.87 197.96 233.81 198.27"/></g><path class="cls-8" d="M270.94,176.88l8.59-19.18-5-16.46a21.53,21.53,0,0,1,1-15.11l8.39-16.26,7.49-2.67L309,104.85a58.59,58.59,0,0,1,6.4,1.89,19.2,19.2,0,0,1,10.45,8.4h0l-14.21,41.42s9.64,21.08,8.43,30.75Z"/><path class="cls-8" d="M285.35,109.44s-9.84,2.18-13.42,15.6l-4.41,14.29,8.07.49Z"/><path class="cls-10" d="M274.86,140.29a.75.75,0,0,1-.09-.2c0-.13-.14-.33-.22-.59a10.86,10.86,0,0,1-.41-2.27,15.09,15.09,0,0,1,1.51-7.38c.32-.67.68-1.31,1-1.91s.69-1.18,1-1.74a18.6,18.6,0,0,0,1.35-3.1c.3-.92.52-1.67.68-2.19l.19-.6a.6.6,0,0,1,.08-.2s0,.07,0,.21l-.15.61c-.14.52-.34,1.28-.62,2.21a17.19,17.19,0,0,1-1.33,3.15c-.3.57-.64,1.15-1,1.76s-.71,1.22-1,1.88a15.6,15.6,0,0,0-1.55,7.29,12.55,12.55,0,0,0,.35,2.26C274.78,140,274.87,140.28,274.86,140.29Z"/><path class="cls-9" d="M250.45,184.75c0,.06-4.66-3.31-10.31-7.52S230,169.56,230,169.5s4.65,3.3,10.3,7.51S250.49,184.68,250.45,184.75Z"/><path class="cls-10" d="M319.28,185.38l-13.95-11.47h0a17.27,17.27,0,0,0-18.55-14.11h0a17.29,17.29,0,0,0-9.37,3.85L269.32,170c-12.58-3.43-31.7-8.79-41.52-11.55A14.52,14.52,0,0,0,216,160.23l-.18.12a14.51,14.51,0,0,0-6.26,15.49h0a14.49,14.49,0,0,0,6.56,9.09c5,3,12.65,7.73,19.25,11.68l-.87.69,5.84,9.61,12-3.71c8.13-1.16,25.29-3.39,25.29-3.39l-4.91-2.89,1.12-.35c9.35,8,20.77,11.63,34.92,5.45C315.73,198.75,320.09,190.88,319.28,185.38Z"/><path class="cls-9" d="M295.37,184.1a.59.59,0,0,1-.11.1l-.35.29-1.37,1.1-1,.78c-.37.29-.79.55-1.23.86l-1.43,1c-.25.17-.51.36-.78.53l-.85.52c-1.17.69-2.43,1.49-3.86,2.21-.71.37-1.43.77-2.19,1.15l-2.37,1.13A115.9,115.9,0,0,1,269,198.07c-7.84,2.7-15.09,4.65-20.29,6.22-1.3.39-2.47.74-3.5,1.07s-1.92.59-2.64.84l-1.66.54-.43.13-.15,0,.14-.07.42-.16,1.65-.59c.71-.26,1.6-.55,2.62-.88s2.2-.71,3.5-1.1c5.18-1.63,12.42-3.6,20.25-6.3,3.92-1.33,7.57-2.82,10.84-4.29l2.37-1.12c.76-.37,1.49-.77,2.19-1.13,1.43-.71,2.69-1.5,3.86-2.18l.86-.51.78-.51,1.44-1c.44-.31.87-.57,1.24-.85l1-.76,1.4-1.05.37-.27A.65.65,0,0,1,295.37,184.1Z"/><path class="cls-9" d="M296.41,188.59s-.14.1-.43.23-.71.3-1.23.49a30.09,30.09,0,0,1-4.21,1.22,30.54,30.54,0,0,1-4.34.62c-.56,0-1,.06-1.33,0a2.76,2.76,0,0,1-.49,0,13.29,13.29,0,0,1,1.8-.22c1.11-.13,2.64-.34,4.3-.7s3.14-.79,4.2-1.13S296.4,188.55,296.41,188.59Z"/><path class="cls-9" d="M275.69,165.26c0,.06-9.15,7.28-20.53,16.13s-20.65,16-20.69,15.91S243.61,190,255,181.17,275.64,165.2,275.69,165.26Z"/><path class="cls-9" d="M308.74,196.25a1.16,1.16,0,0,1,0-.3c0-.23,0-.51,0-.85,0-.75,0-1.82-.11-3.15a75.05,75.05,0,0,0-3.81-20.33c-.42-1.26-.78-2.28-1-3-.11-.32-.21-.59-.29-.81a1.08,1.08,0,0,1-.08-.29,1.16,1.16,0,0,1,.14.27c.09.21.21.47.34.78.3.69.69,1.69,1.14,3a67.38,67.38,0,0,1,3.82,20.39c0,1.34,0,2.41,0,3.16,0,.34,0,.62,0,.86A1.11,1.11,0,0,1,308.74,196.25Z"/><path class="cls-9" d="M273.29,196.11s0,0,.12.09l.33.28c.29.24.69.63,1.25,1.08A34.22,34.22,0,0,0,280,201a33.18,33.18,0,0,0,8.42,3.16c.41.11.83.18,1.26.26l1.3.23c.88.09,1.78.24,2.7.26a29.61,29.61,0,0,0,5.7-.17l1.45-.2,1.41-.29a26.49,26.49,0,0,0,2.72-.73,25.16,25.16,0,0,0,4.85-2.14,19.32,19.32,0,0,0,6.59-6,16.53,16.53,0,0,0,2.43-5.53c.16-.7.24-1.26.29-1.63l0-.43q0-.15,0-.15v.15l0,.43a14.26,14.26,0,0,1-.23,1.65,16.16,16.16,0,0,1-2.37,5.63,19.51,19.51,0,0,1-6.62,6.14,26.75,26.75,0,0,1-4.91,2.18,26.39,26.39,0,0,1-2.75.74l-1.42.29-1.46.21a30.21,30.21,0,0,1-5.76.16c-.93,0-1.84-.18-2.73-.27-.44-.07-.87-.16-1.31-.24s-.85-.15-1.27-.26a32.92,32.92,0,0,1-8.46-3.25,31.07,31.07,0,0,1-5-3.5c-.55-.47-.94-.87-1.22-1.13l-.31-.3Z"/><path class="cls-9" d="M279.89,199c-2.42-1.29-5.14-.53-7.46.25-1.54.52-3.14,1.35-4.71.91a7.55,7.55,0,0,1-2.84-2,17.88,17.88,0,0,0-13-4.68,5.37,5.37,0,0,0-3.59,1.62c-2.38,2.58-.58,5.93,1.54,8.1A23.52,23.52,0,0,0,264,210a33,33,0,0,0,15-2.07,5.16,5.16,0,0,0,2.74-7.1A4.53,4.53,0,0,0,279.89,199Z"/><g class="cls-13"><path d="M279.89,201c-2.43-1.29-5.15-.53-7.46.26-1.55.52-3.15,1.34-4.72.9a7.63,7.63,0,0,1-2.84-2,17.83,17.83,0,0,0-13.05-4.67,5.24,5.24,0,0,0-3.58,1.62,4.12,4.12,0,0,0-1,1.8,9.37,9.37,0,0,0,2.54,4.23A23.47,23.47,0,0,0,264,210a33.06,33.06,0,0,0,15-2.07,5.5,5.5,0,0,0,3.19-3.81,4.49,4.49,0,0,0-.46-1.23A4.63,4.63,0,0,0,279.89,201Z"/></g><path class="cls-10" d="M282.18,204.08a4.06,4.06,0,0,0-.59-1.44,4.77,4.77,0,0,0-1.3-1.27,5.29,5.29,0,0,0-2.22-.85c-1.8-.21-3.89.55-6.2,1.17a9.62,9.62,0,0,1-3.76.6,5.1,5.1,0,0,1-1.94-.67,12.65,12.65,0,0,1-1.66-1.25,17.4,17.4,0,0,0-6.63-3.94,16.88,16.88,0,0,0-3.29-.76,10.3,10.3,0,0,0-2.93,0,6.46,6.46,0,0,0-2.27.79,5.86,5.86,0,0,0-1.39,1.18,13.18,13.18,0,0,0-.89,1.29,5,5,0,0,1,.79-1.37,5.61,5.61,0,0,1,1.39-1.26,6.61,6.61,0,0,1,2.33-.86,10.35,10.35,0,0,1,3,0,16.75,16.75,0,0,1,3.36.75,19.13,19.13,0,0,1,3.48,1.53,15.71,15.71,0,0,1,1.69,1.1c.54.42,1.05.89,1.57,1.34a11.64,11.64,0,0,0,1.62,1.22,4.61,4.61,0,0,0,1.81.63,9.33,9.33,0,0,0,3.64-.57c2.3-.6,4.42-1.35,6.3-1.11a5.21,5.21,0,0,1,3.6,2.28,3.12,3.12,0,0,1,.45,1.1A1.27,1.27,0,0,1,282.18,204.08Z"/><path class="cls-10" d="M282.18,204.08a4.06,4.06,0,0,0-.59-1.44,4.77,4.77,0,0,0-1.3-1.27,5.29,5.29,0,0,0-2.22-.85c-1.8-.21-3.89.55-6.2,1.17a9.62,9.62,0,0,1-3.76.6,5.1,5.1,0,0,1-1.94-.67,12.65,12.65,0,0,1-1.66-1.25,17.4,17.4,0,0,0-6.63-3.94,16.88,16.88,0,0,0-3.29-.76,10.3,10.3,0,0,0-2.93,0,6.46,6.46,0,0,0-2.27.79,5.86,5.86,0,0,0-1.39,1.18,13.18,13.18,0,0,0-.89,1.29,5,5,0,0,1,.79-1.37,5.61,5.61,0,0,1,1.39-1.26,6.61,6.61,0,0,1,2.33-.86,10.35,10.35,0,0,1,3,0,16.75,16.75,0,0,1,3.36.75,19.13,19.13,0,0,1,3.48,1.53,15.71,15.71,0,0,1,1.69,1.1c.54.42,1.05.89,1.57,1.34a11.64,11.64,0,0,0,1.62,1.22,4.61,4.61,0,0,0,1.81.63,9.33,9.33,0,0,0,3.64-.57c2.3-.6,4.42-1.35,6.3-1.11a5.21,5.21,0,0,1,3.6,2.28,3.12,3.12,0,0,1,.45,1.1A1.27,1.27,0,0,1,282.18,204.08Z"/><path class="cls-10" d="M252.14,203.49a7.17,7.17,0,0,1,1.24-.86c.8-.48,1.92-1.1,3.21-1.71s2.49-1.07,3.37-1.38a6.17,6.17,0,0,1,1.45-.4,8.3,8.3,0,0,1-1.37.62c-.86.35-2,.86-3.31,1.46s-2.41,1.18-3.23,1.61A7,7,0,0,1,252.14,203.49Z"/><path class="cls-10" d="M253,205.92a43.42,43.42,0,0,1,4.73-2.47,45.65,45.65,0,0,1,4.88-2.18,43.42,43.42,0,0,1-4.73,2.47A45.65,45.65,0,0,1,253,205.92Z"/><path class="cls-10" d="M263,207c-.05.07-2.63-1.47-5.77-3.44s-5.63-3.64-5.59-3.72,2.63,1.47,5.77,3.44S263.06,206.89,263,207Z"/><path class="cls-10" d="M264.46,204.45a7,7,0,0,1-1.26-.84c-.76-.55-1.81-1.3-3-2.12s-2.25-1.53-3-2.05a6.76,6.76,0,0,1-1.23-.88,6.39,6.39,0,0,1,1.35.69c.81.47,1.92,1.16,3.09,2s2.21,1.61,2.94,2.21A6.65,6.65,0,0,1,264.46,204.45Z"/><path class="cls-10" d="M283,104.85a2.75,2.75,0,0,0,.1-1.22,3.48,3.48,0,0,0-.56-1.31,8.73,8.73,0,0,0-1.31-1.4,8.06,8.06,0,0,1-1.58-1.84,6.84,6.84,0,0,1-.92-2.65,7,7,0,0,1,.3-3.08,18.62,18.62,0,0,1,1.38-3,14.29,14.29,0,0,0,1.27-2.92,5.36,5.36,0,0,0,.06-2.86c-.49-1.81-1.57-3.23-2.12-4.61a5.51,5.51,0,0,1-.44-3.44,2.77,2.77,0,0,1,.35-.89c.11-.19.19-.27.2-.26a7.13,7.13,0,0,0-.37,1.18,5.59,5.59,0,0,0,.58,3.27c.56,1.32,1.67,2.71,2.23,4.63a5.77,5.77,0,0,1,0,3.11,15.38,15.38,0,0,1-1.3,3,19.36,19.36,0,0,0-1.36,2.9,6.49,6.49,0,0,0-.31,2.87,6.64,6.64,0,0,0,.82,2.5,8.06,8.06,0,0,0,1.47,1.8,8.82,8.82,0,0,1,1.31,1.51,3.48,3.48,0,0,1,.52,1.43,2.06,2.06,0,0,1-.12,1C283.06,104.77,283,104.86,283,104.85Z"/><path class="cls-10" d="M308.24,96.09a4.39,4.39,0,0,0,4,2.64,5.31,5.31,0,0,0,4.28-2.38,6.67,6.67,0,0,0,.92-4.89,8.09,8.09,0,0,1-.31-2.28c.13-1.08.92-2,1.19-3,.49-1.9-.91-3.91-2.72-4.67a8.87,8.87,0,0,0-5.78,0"/><path class="cls-10" d="M280.65,74.07c-1.75,1.75-1.08,4.05-.27,5.61s1.8,3.15,1.81,4.91-1,3.43-1.46,5.16a9.69,9.69,0,0,0,.52,6.64c.72,1.55,1.84,2.89,2.57,4.44s1,3.49,0,4.88A3,3,0,0,0,286,104a5.88,5.88,0,0,0,.51-2.79c-.07-3.62-1.81-7.14-1.38-10.74.26-2.09,1.24-4.1,1.1-6.2s-1.38-4-2.27-5.87-1.43-4.31-.23-6"/><path class="cls-10" d="M284.94,67.19a7,7,0,0,0-5.29,3.29,4.59,4.59,0,0,0,1.08,5.81c1.67,1.16,4,.78,5.74-.32a6.5,6.5,0,0,0,2.77-3.43,4.67,4.67,0,0,0-.66-4.27,3.66,3.66,0,0,0-4-1.23"/><path class="cls-10" d="M283.19,67a9.56,9.56,0,0,1,5.86-5.5,15.83,15.83,0,0,1,8.2-.4,47,47,0,0,1,7.9,2.48,17.38,17.38,0,0,1,5.34,2.76,11.68,11.68,0,0,1,3.24,4.94c1.29,3.52,1.35,6.09-.17,9.52-.66,1.49-.12,3.16-.71,4.68s-3.33,3.32-2.48,4.71"/><path class="cls-11" d="M309,104.85l-1.13-33.34a2.86,2.86,0,0,0-2.73-2.77l-15.46-3c-4.91-.26-7.83,5.93-7.88,10.85-.05,5.47.11,12.14,1,16.17,1.74,8.1,8,8.8,8,8.8s.18,3.17.35,6l-.27,12.56Z"/><path class="cls-10" d="M283.92,82.44a1.05,1.05,0,0,0,1.07,1,1,1,0,0,0,1-1,1.05,1.05,0,0,0-1.07-1A1,1,0,0,0,283.92,82.44Z"/><path class="cls-10" d="M283.42,79.42c.13.13.9-.5,2-.56s2,.46,2.1.32-.09-.31-.46-.55a2.91,2.91,0,0,0-1.69-.42,2.75,2.75,0,0,0-1.61.62C283.45,79.11,283.35,79.36,283.42,79.42Z"/><path class="cls-10" d="M294.36,82.28a1.05,1.05,0,0,0,1.07,1,1,1,0,0,0,1-1,1.05,1.05,0,0,0-1.07-1A1,1,0,0,0,294.36,82.28Z"/><path class="cls-10" d="M294.54,79.56c.14.13.9-.5,2-.56s2,.46,2.1.32-.09-.3-.46-.55a2.91,2.91,0,0,0-1.69-.42,2.72,2.72,0,0,0-1.61.62C294.58,79.25,294.48,79.5,294.54,79.56Z"/><path class="cls-10" d="M290.9,88.15a7,7,0,0,0-1.85-.23c-.29,0-.56-.06-.62-.26a1.45,1.45,0,0,1,.14-.86c.24-.71.48-1.46.74-2.24a37.67,37.67,0,0,0,1.6-5.84,37,37,0,0,0-2.07,5.7c-.24.78-.47,1.53-.7,2.25a1.68,1.68,0,0,0-.08,1.14.73.73,0,0,0,.49.39,1.8,1.8,0,0,0,.5,0A7.85,7.85,0,0,0,290.9,88.15Z"/><path class="cls-12" d="M290.84,101.53A20.8,20.8,0,0,0,301.63,98s-2.46,5.77-10.68,5.45Z"/><path class="cls-10" d="M293.86,76.29c.13.3,1.25.09,2.58.18s2.42.39,2.58.11-.13-.42-.58-.69a4.25,4.25,0,0,0-1.94-.57,4.36,4.36,0,0,0-2,.35C294,75.89,293.81,76.14,293.86,76.29Z"/><path class="cls-10" d="M283.68,76.66c.22.25,1-.06,1.91-.12s1.74.08,1.9-.2-.06-.38-.42-.61a2.62,2.62,0,0,0-1.58-.33A2.59,2.59,0,0,0,284,76C283.68,76.27,283.59,76.54,283.68,76.66Z"/><path class="cls-12" d="M291.53,90.71a1.88,1.88,0,0,1,1.66-.79,1.74,1.74,0,0,1,1.23.57,1.12,1.12,0,0,1,.15,1.25,1.28,1.28,0,0,1-1.36.43,4.22,4.22,0,0,1-1.39-.73,1.31,1.31,0,0,1-.32-.3.37.37,0,0,1,0-.39"/><path class="cls-10" d="M294.08,88.76c-.17,0-.11,1.14-1.05,2s-2.15.8-2.15,1,.28.21.8.19a2.84,2.84,0,0,0,1.8-.74,2.44,2.44,0,0,0,.8-1.67C294.3,89,294.16,88.75,294.08,88.76Z"/><path class="cls-10" d="M283.05,69.17c.54,2.56,4.65,2.76,7.19,2.11a8.32,8.32,0,0,0,7.5,2.75,2.24,2.24,0,0,1,1.12,0,2.32,2.32,0,0,1,.89.79,7.31,7.31,0,0,0,4.6,2.52,6.56,6.56,0,0,0,5.28,5.12s.81-.46.33-3.75-.51-10.17-.51-10.17L300.28,65l-10.81-1.4S282.15,64.83,283.05,69.17Z"/><path class="cls-9" d="M313.43,81.15a8.65,8.65,0,0,0-.68-2.26,5.79,5.79,0,0,0-1.72-2,5.86,5.86,0,0,0-3.23-1.16h-.14l-.05-.14a7.25,7.25,0,0,0-2.32-3.63,4.17,4.17,0,0,0-4.52-.5l-.24.13-.11-.26L300.3,71a6.43,6.43,0,0,0-5.49-3.78,7,7,0,0,0-1.58.13,3.54,3.54,0,0,1-1.62,0,2.93,2.93,0,0,1-1.26-.85,6.22,6.22,0,0,0-1-.85,4.5,4.5,0,0,0-3.73-.5,7,7,0,0,0-1.31.61s.08-.1.27-.27a4,4,0,0,1,1-.52,4.63,4.63,0,0,1,4,.4c.78.43,1.28,1.36,2.15,1.6s1.93-.28,3.11-.21a6.85,6.85,0,0,1,5.92,4c0,.11.09.22.13.32l-.35-.13a4.62,4.62,0,0,1,5,.55A7.64,7.64,0,0,1,308,75.42l-.19-.15a6.21,6.21,0,0,1,3.42,1.3A5.82,5.82,0,0,1,313,78.79a5.5,5.5,0,0,1,.47,1.73A1.7,1.7,0,0,1,313.43,81.15Z"/><path class="cls-9" d="M298.83,73.31s-.22.13-.66.26a6.87,6.87,0,0,1-1.93.21,7.89,7.89,0,0,1-5.74-2.68l.3.05-.26.14a6.23,6.23,0,0,1-3.64.55,5.87,5.87,0,0,1-2.75-1.22,5.46,5.46,0,0,1-1.33-1.51,1.68,1.68,0,0,1-.3-.68,9.69,9.69,0,0,0,1.83,1.92,5.85,5.85,0,0,0,2.61,1,5.93,5.93,0,0,0,3.36-.53l.24-.13.18-.09.13.14a8,8,0,0,0,5.38,2.67A15.38,15.38,0,0,0,298.83,73.31Z"/><path class="cls-9" d="M294,68.74c0,.14-1.19.1-2.57.51s-2.36,1-2.44.94a5.13,5.13,0,0,1,5-1.45Z"/><path class="cls-9" d="M290.84,68.64c-.1.09-.53-.23-1.08-.58s-1-.62-1-.75.63,0,1.24.35S290.94,68.56,290.84,68.64Z"/><path class="cls-9" d="M303.81,72.68c0,.13-1.1-.14-2.4,0s-2.29.55-2.35.42a4.36,4.36,0,0,1,4.75-.39Z"/><path class="cls-9" d="M306.32,76.93a6.23,6.23,0,0,1-3.34-.26,6.08,6.08,0,0,1-3-1.57c.07-.12,1.36.61,3.09,1.11S306.32,76.78,306.32,76.93Z"/><path class="cls-9" d="M312.08,79.74a16.58,16.58,0,0,0-2.2-1.07,16.79,16.79,0,0,0-2.43-.29,3.69,3.69,0,0,1,4.63,1.36Z"/><path class="cls-9" d="M311.25,68s-.14-.27-.46-.69A4.83,4.83,0,0,0,309.07,66a15.84,15.84,0,0,0-7.23-1.2,29.82,29.82,0,0,0-7.29,1.38c-1.82.57-2.94,1-3,.92a2.79,2.79,0,0,1,.74-.39c.49-.22,1.21-.52,2.12-.85a25.83,25.83,0,0,1,7.37-1.55,14.92,14.92,0,0,1,7.41,1.38A4.67,4.67,0,0,1,311,67.22C311.23,67.7,311.28,68,311.25,68Z"/><path class="cls-9" d="M312.17,72.4a13.3,13.3,0,0,0-1.39-2.23A10,10,0,0,0,305.44,67a18.44,18.44,0,0,0-6.33-.13,26.2,26.2,0,0,1-2.65.34,10.82,10.82,0,0,1,2.6-.68,16.64,16.64,0,0,1,6.48,0A9.69,9.69,0,0,1,311.05,70a6.81,6.81,0,0,1,1,1.74A2,2,0,0,1,312.17,72.4Z"/><path class="cls-9" d="M281.75,77.54a3,3,0,0,1-1.57-1,4.88,4.88,0,0,1,1.65-7.85,3,3,0,0,1,1.86-.33A15.34,15.34,0,0,0,282,69a5.06,5.06,0,0,0-2.56,3.29,5,5,0,0,0,1,4A15,15,0,0,0,281.75,77.54Z"/><path class="cls-10" d="M315.82,88.49c-.05-.07.78-.51,1.95-1.39a5.92,5.92,0,0,0,1.65-1.88,3.26,3.26,0,0,0,.14-2.88,3.84,3.84,0,0,0-2.1-2,4.5,4.5,0,0,0-2.46-.16,8.69,8.69,0,0,0-2.16.93s.13-.21.47-.47a4.7,4.7,0,0,1,1.61-.79,4.6,4.6,0,0,1,2.69.07A4.18,4.18,0,0,1,320,82.15a3.61,3.61,0,0,1-.19,3.28A5.88,5.88,0,0,1,318,87.38a11.06,11.06,0,0,1-1.55.88C316.05,88.44,315.84,88.52,315.82,88.49Z"/><path class="cls-10" d="M316.2,88.54a2.51,2.51,0,0,1,.38.7,19.61,19.61,0,0,1,.77,2,10.92,10.92,0,0,1,.51,3.22,7,7,0,0,1-1.1,3.85,5,5,0,0,1-3.39,2.15,3.6,3.6,0,0,1-3.09-1.06,3.27,3.27,0,0,1-1-2,1.38,1.38,0,0,1,.11-.8s0,.29.08.78a3.36,3.36,0,0,0,3.8,2.62,4.63,4.63,0,0,0,3.05-2,6.72,6.72,0,0,0,1.05-3.59,11.17,11.17,0,0,0-.39-3.12C316.55,89.62,316.12,88.57,316.2,88.54Z"/><path class="cls-10" d="M303.55,73.24c-1,2-.24,4.5.8,6.51s2.38,4,2.47,6.29C307,89.85,303.57,93.21,304,97a5.71,5.71,0,0,0,4.29,4.72c-1.8-1.21-2-3.86-1.27-5.92s4-7.47,4.49-9.59c1.62-7.1.93-7.92-1.55-10.42"/><path class="cls-9" d="M310.39,78.31a2.32,2.32,0,0,1-1.32,0,5.47,5.47,0,0,1-4.49-4.14,2.35,2.35,0,0,1-.05-1.32c.08,0,.13.49.39,1.22a6,6,0,0,0,4.23,3.9A8,8,0,0,1,310.39,78.31Z"/><path class="cls-9" d="M307.44,99.45s-.1,0-.26-.17a3.61,3.61,0,0,1-.59-.62,4.87,4.87,0,0,1-1-3,4.63,4.63,0,0,1,.56-2.15,9.64,9.64,0,0,1,1.58-2,7.15,7.15,0,0,0,1.53-2.13,6.14,6.14,0,0,0,.51-2.74A5.81,5.81,0,0,0,309,84a15.19,15.19,0,0,0-1.58-2.16A15.63,15.63,0,0,1,304.86,78a8.88,8.88,0,0,1-.77-3,3,3,0,0,1,.09-1.15,10.24,10.24,0,0,0,1,4,16.37,16.37,0,0,0,2.61,3.74,15,15,0,0,1,1.66,2.21,6.41,6.41,0,0,1,.85,2.89,6.73,6.73,0,0,1-.56,3,7.67,7.67,0,0,1-1.65,2.25,9.84,9.84,0,0,0-1.55,1.84,4.21,4.21,0,0,0-.56,2,4.83,4.83,0,0,0,.76,2.87C307.14,99.15,307.47,99.41,307.44,99.45Z"/><path class="cls-9" d="M311.22,78s.22.12.52.44a5.66,5.66,0,0,1,1,1.56A8.78,8.78,0,0,1,313,86.1,15,15,0,0,1,310,91.36a9.51,9.51,0,0,1-1.78,1.77,18.34,18.34,0,0,1,1.51-2A17.14,17.14,0,0,0,312.54,86a9.1,9.1,0,0,0-.1-5.78A12,12,0,0,0,311.22,78Z"/><path class="cls-10" d="M277.24,138.76l-4.57-8.44a1.75,1.75,0,0,0-1.53-.91H238.57a1.74,1.74,0,0,0-1.54.93h0L269.32,152l14.28,1.64h0a2.06,2.06,0,0,0,0-1.87Z"/><g class="cls-14"><path d="M311.69,158.08c-5.73-2.49-12.3-2.85-17.68-6-2.06-1.21-3.88-2.8-6-3.93s-4.66-1.76-6.88-.88-3.9,4.21-2.75,6.3c.44,1.11,2.54,2.16,3.74,2s2.32-.59,3.51-.74c2.55-.32,5,.94,7.3,2.08a121.63,121.63,0,0,0,15.34,6.39,8.3,8.3,0,0,0,3.79.62,3,3,0,0,0,2.63-2.45C314.82,159.88,313.18,158.73,311.69,158.08Z"/></g><path class="cls-9" d="M283.6,153.68l-11.42-22.37a1.79,1.79,0,0,0-1.59-1H236.87L249.44,153l34.16.71Z"/><path class="cls-4" d="M257.17,138.39a1.1,1.1,0,1,0-.17-1.54A1.11,1.11,0,0,0,257.17,138.39Z"/><path class="cls-11" d="M286.84,142l-3.39-2.62a7.33,7.33,0,0,0-5.72-2.74h-1.84l-1.27,1.42s-9,.4-9.38,1.51v.57l7.74.52s-6.58,0-7,0-1.84-.11-1.81.66.78,1.14,1.92,1.3c.46.07,6.17.57,6.17.57l-6.28-.06c-.7,0-.61,1.12-.2,1.26s8.37,2.46,8.37,2.46a4.85,4.85,0,0,1-2.45.83c-1.11-.08-3-1.5-3.39-.83s-.32,1.07-.08,1.22a28.8,28.8,0,0,0,3.7,1.74c.87.24,7.95,1.36,7.95,1.36l5.87-.76Z"/><path class="cls-12" d="M271.54,138.18a27.92,27.92,0,0,1,3.18-.11,24.6,24.6,0,0,1,3.18.08,25.26,25.26,0,0,1-3.18.11A24.71,24.71,0,0,1,271.54,138.18Z"/><path class="cls-11" d="M286.84,142l24.91,4.74,2.5-31.32s6.72-5.65,10.27-1.79a13.89,13.89,0,0,1,3.59,10.69c-.23,2.27-2.49,29-4.37,33.56-2.62,6.34-9.35,6-11.23,5.54s-28.67-13.14-28.67-13.14Z"/><path class="cls-8" d="M313.33,115.27c-.87,7.07-2.6,17.89-2.69,25,0,.29,17.13,1.72,17.13,1.72s.89-16.13.24-21a17.22,17.22,0,0,0-4.89-9.4h-5.38Z"/><path class="cls-10" d="M327.77,142a2.31,2.31,0,0,1-.35,0l-1-.08-3.66-.33-12.15-1.19h-.11v-.11l.05-.69c.34-4.93.66-9.39.88-12.64.13-1.6.23-2.9.3-3.83,0-.43.07-.78.09-1a2.52,2.52,0,0,1,.05-.36,1.67,1.67,0,0,1,0,.36l-.05,1c0,.92-.13,2.23-.22,3.83-.21,3.25-.5,7.71-.82,12.64,0,.24,0,.48-.05.7l-.1-.13,12.13,1.26,3.65.4,1,.12Z"/></g></g></svg>