<svg xmlns="http://www.w3.org/2000/svg" viewBox="0 0 400 221.21"><defs><style>.cls-1{fill:#fff;}.cls-2{fill:#ebebeb;}.cls-3{fill:#e0e0e0;}.cls-4{fill:#f5f5f5;}.cls-5{fill:#fafafa;}.cls-6{fill:#455a64;}.cls-7{fill:#eb6471;}.cls-8{opacity:0.3;}.cls-9{opacity:0.4;}.cls-10{fill:#263238;}.cls-11{fill:#eebd9d;}.cls-12{fill:#d79870;}.cls-13{fill:#50536d;}.cls-14{fill:#282937;}</style></defs><g id="Layer_2" data-name="Layer 2"><g id="Background_Complete" data-name="Background Complete"><rect class="cls-1" width="400" height="220"/></g><g id="Layer_10" data-name="Layer 10"><path class="cls-2" d="M291.93,179.51a11.67,11.67,0,0,1,7.24-.88,6,6,0,0,1,3.57,1.6,2.56,2.56,0,0,1,0,3.56,3.38,3.38,0,0,1-2.25.57c-1.92,0-4-.35-5.57.8-.87.65-1.45,1.74-2.49,2.07a2.47,2.47,0,0,1-2.71-1.21,4.23,4.23,0,0,1-.31-3.11A4.75,4.75,0,0,1,291.93,179.51Z"/><path class="cls-2" d="M286.89,169.78c1.35,1.92,4,1.28,5.18.11a9.79,9.79,0,0,0,2.19-4.5c1.06-3.7,2.14-7.59,1.34-11.36a6.2,6.2,0,0,0-1.45-3.09,3.29,3.29,0,0,0-3.12-1c-1.32.35-2.14,1.64-2.73,2.87a27,27,0,0,0-2.68,11.62,9.44,9.44,0,0,0,1.27,5.39"/><path class="cls-2" d="M283.2,172.53a7,7,0,0,0,1.08-6.43,12.36,12.36,0,0,0-3.81-5.53,20.39,20.39,0,0,0-6.82-4,7.23,7.23,0,0,0-3.07-.52,3.23,3.23,0,0,0-2.58,1.56c-.72,1.37,0,3,.72,4.39a52,52,0,0,0,4.48,6.82,12.11,12.11,0,0,0,4.93,4.23c2.05.78,4.18.69,5.26-.73"/><path class="cls-3" d="M286.8,198.77a3.56,3.56,0,0,0,.12-.88c.06-.63.14-1.43.23-2.38s.26-2.2.54-3.49a26.8,26.8,0,0,1,1.27-4.13,15,15,0,0,1,2.11-3.73,7.85,7.85,0,0,1,2.66-2.22,7.48,7.48,0,0,1,2.24-.7,4.26,4.26,0,0,0,.87-.12,3.75,3.75,0,0,0-.88,0,6.78,6.78,0,0,0-2.34.61,7.89,7.89,0,0,0-2.81,2.24,14.71,14.71,0,0,0-2.18,3.8,25.44,25.44,0,0,0-1.27,4.2,30.54,30.54,0,0,0-.46,3.54c-.08,1-.1,1.83-.12,2.4A4.69,4.69,0,0,0,286.8,198.77Z"/><path class="cls-3" d="M287,196.93a1.41,1.41,0,0,0,0-.4c0-.31,0-.69,0-1.16,0-1,0-2.46.06-4.26.09-3.59.39-7.46,1-12.91.57-5.13,1.33-11.1,2.13-15,.17-.88.35-1.68.51-2.37s.29-1.3.41-1.79.2-.83.28-1.12a2.92,2.92,0,0,0,.07-.4s-.06.13-.14.38L291,159c-.15.48-.3,1.08-.48,1.77s-.37,1.49-.56,2.37a133.88,133.88,0,0,0-2.24,13.89c-.59,5.47-.86,10.44-.89,14.05,0,1.8,0,3.26.06,4.26,0,.47.06.86.08,1.16A2.38,2.38,0,0,0,287,196.93Z"/><path class="cls-3" d="M287,187.34a8.6,8.6,0,0,0,0-1.21,31.63,31.63,0,0,0-.37-3.28,42.37,42.37,0,0,0-1.07-4.78,39.21,39.21,0,0,0-2-5.66,29.92,29.92,0,0,0-5.86-9.13A15.73,15.73,0,0,0,276.3,162c-.22-.17-.4-.35-.59-.49l-.54-.37a7.72,7.72,0,0,0-1-.66,37.19,37.19,0,0,1,3.34,3,31.74,31.74,0,0,1,5.72,9.11,43.46,43.46,0,0,1,2,5.6,46.56,46.56,0,0,1,1.14,4.73c.25,1.36.39,2.48.48,3.25A6.76,6.76,0,0,0,287,187.34Z"/><polygon class="cls-3" points="277.71 204.27 278.67 217.44 295.6 217.44 296.56 204.27 277.71 204.27"/><rect class="cls-3" x="276.08" y="199.07" width="22.5" height="5.19"/><polygon class="cls-2" points="276.08 216.94 276.08 218.38 277.13 218.38 298.21 218.38 298.21 216.94 276.08 216.94"/><polygon class="cls-3" points="278.17 220.91 277.13 218.38 297.4 218.38 296.19 220.91 278.17 220.91"/><path class="cls-4" d="M296.25,208.57l-.08.12-.26.34-1,1.26,0,.06-.05-.06-2.42-3.35h.14l-2.39,3.37-.07.11-.08-.1L287.19,207h.16l-.15.2-2.53,3.17-.09.1-.08-.11-2.38-3.37h.14l-2.94,3.34-.05.06,0-.06-.92-1.55-.24-.41c-.05-.1-.08-.15-.07-.15a.93.93,0,0,1,.1.13l.26.4,1,1.52h-.09c.76-.88,1.74-2,2.89-3.39l.08-.09.06.1,2.41,3.36h-.16L287,207l.16-.2.08-.1.08.1,2.82,3.37H290l2.41-3.36.07-.1.07.1,2.37,3.38h-.09l1-1.23.28-.32C296.21,208.6,296.24,208.57,296.25,208.57Z"/><path class="cls-4" d="M296.8,204.18c0,.06-4.24.1-9.47.1s-9.48,0-9.48-.1,4.24-.11,9.48-.11S296.8,204.12,296.8,204.18Z"/><path class="cls-4" d="M297.65,218.52c0,.06-4.61.1-10.29.1s-10.3,0-10.3-.1,4.61-.11,10.3-.11S297.65,218.46,297.65,218.52Z"/><rect class="cls-3" x="271.03" y="27.78" width="34.28" height="35.73"/><rect class="cls-5" x="268.71" y="27.78" width="34.28" height="35.73"/><path class="cls-3" d="M303,63.52H268.7V27.77H303Zm-34.28,0H303V27.79H268.72Z"/><rect class="cls-5" x="273.32" y="32.58" width="25.06" height="26.13"/><path class="cls-3" d="M273.32,58.88a3.78,3.78,0,0,1-.62.72c-.4.43-1,1-1.59,1.62s-1.21,1.17-1.64,1.57a3.79,3.79,0,0,1-.73.6,4.68,4.68,0,0,1,.62-.72c.4-.42,1-1,1.6-1.62s1.21-1.17,1.64-1.57A4,4,0,0,1,273.32,58.88Z"/><path class="cls-3" d="M298.38,58.82a4.18,4.18,0,0,1,.72.62c.42.4,1,1,1.62,1.59s1.17,1.21,1.56,1.64a4.22,4.22,0,0,1,.61.72s-.3-.21-.72-.61-1-1-1.62-1.6S299.37,60,299,59.54A4.4,4.4,0,0,1,298.38,58.82Z"/><path class="cls-3" d="M298.31,32.65a4.68,4.68,0,0,1,.62-.72c.4-.42,1-1,1.59-1.61s1.21-1.17,1.64-1.57a3.79,3.79,0,0,1,.73-.6,4.4,4.4,0,0,1-.62.71c-.4.43-1,1-1.6,1.62s-1.21,1.18-1.64,1.57A3.11,3.11,0,0,1,298.31,32.65Z"/><path class="cls-3" d="M273.25,32.72a4.18,4.18,0,0,1-.72-.62c-.42-.4-1-1-1.62-1.59s-1.17-1.21-1.56-1.64a3.66,3.66,0,0,1-.61-.73,3.78,3.78,0,0,1,.72.62c.42.4,1,1,1.62,1.6s1.18,1.21,1.57,1.64A4,4,0,0,1,273.25,32.72Z"/><path class="cls-3" d="M298.31,58.71v-.13c0-.09,0-.21,0-.36,0-.33,0-.8,0-1.41,0-1.24,0-3,0-5.33,0-4.57,0-11.09,0-18.9l.09.1-25,0h0l.11-.12c0,9.59,0,18.56,0,26.13l-.09-.09,18.1,0,5.08,0h0l-5.06,0-18.16.05h-.1v-.1c0-7.57,0-16.54,0-26.13v-.11h.11l25,0h.1v.09c0,7.83,0,14.38-.05,19,0,2.27,0,4.07,0,5.3,0,.6,0,1.07,0,1.39v.35A.55.55,0,0,1,298.31,58.71Z"/><rect class="cls-2" x="281.67" y="41.47" width="8.36" height="8.36"/><rect class="cls-3" x="271.03" y="71.99" width="34.28" height="35.73"/><rect class="cls-5" x="268.71" y="71.99" width="34.28" height="35.73"/><path class="cls-3" d="M303,107.73H268.7V72H303Zm-34.28,0H303V72H268.72Z"/><rect class="cls-5" x="273.32" y="76.79" width="25.06" height="26.13"/><path class="cls-3" d="M273.32,103.09a3.78,3.78,0,0,1-.62.72c-.4.42-1,1-1.59,1.62s-1.21,1.17-1.64,1.56a3.66,3.66,0,0,1-.73.61,3.78,3.78,0,0,1,.62-.72c.4-.42,1-1,1.6-1.62s1.21-1.18,1.64-1.57A4,4,0,0,1,273.32,103.09Z"/><path class="cls-3" d="M298.38,103a4.18,4.18,0,0,1,.72.62c.42.4,1,1,1.62,1.59s1.17,1.21,1.56,1.64a3.81,3.81,0,0,1,.61.72,3.47,3.47,0,0,1-.72-.61c-.42-.4-1-1-1.62-1.6s-1.18-1.21-1.57-1.64A4.4,4.4,0,0,1,298.38,103Z"/><path class="cls-3" d="M298.31,76.86a4.18,4.18,0,0,1,.62-.72c.4-.42,1-1,1.59-1.61s1.21-1.18,1.64-1.57.7-.63.73-.6a4.4,4.4,0,0,1-.62.71c-.4.42-1,1-1.6,1.62s-1.21,1.18-1.64,1.57A4,4,0,0,1,298.31,76.86Z"/><path class="cls-3" d="M273.25,76.93a4.18,4.18,0,0,1-.72-.62c-.42-.4-1-1-1.62-1.6s-1.17-1.21-1.56-1.63a4,4,0,0,1-.61-.73,3.78,3.78,0,0,1,.72.62c.42.4,1,1,1.62,1.59s1.18,1.22,1.57,1.64A4.19,4.19,0,0,1,273.25,76.93Z"/><path class="cls-3" d="M298.31,102.92v-.13c0-.09,0-.21,0-.36,0-.33,0-.8,0-1.41,0-1.24,0-3,0-5.33,0-4.57,0-11.09,0-18.9l.09.1h-25l.11-.11c0,9.59,0,18.56,0,26.13l-.09-.1,18.1.05,5.08,0h0l-5.06,0-18.16.05h-.1v-.09c0-7.57,0-16.54,0-26.13v-.11h25.2v.1c0,7.83,0,14.37-.05,19,0,2.28,0,4.07,0,5.31,0,.6,0,1.06,0,1.39v.35A.55.55,0,0,1,298.31,102.92Z"/><rect class="cls-2" x="281.67" y="85.67" width="8.36" height="8.36"/><path class="cls-3" d="M196.89,52l.3.49a3.35,3.35,0,0,0,1.4,1.29l.51.25-.49.3a3.35,3.35,0,0,0-1.29,1.4l-.25.52-.3-.5a3.48,3.48,0,0,0-1.4-1.29l-.52-.25.5-.3a3.33,3.33,0,0,0,1.28-1.4Z"/><path class="cls-3" d="M249.89,38.18l.29.49a3.48,3.48,0,0,0,1.4,1.29l.52.25-.49.3a3.29,3.29,0,0,0-1.29,1.4l-.26.51-.29-.49a3.48,3.48,0,0,0-1.4-1.29l-.52-.25.5-.3a3.33,3.33,0,0,0,1.28-1.4Z"/><path class="cls-3" d="M222.9,21.37l.14.25a1.73,1.73,0,0,0,.7.64l.26.13-.24.15a1.69,1.69,0,0,0-.65.7l-.13.26-.15-.25a1.61,1.61,0,0,0-.7-.64l-.26-.13.25-.15a1.75,1.75,0,0,0,.65-.7Z"/><path class="cls-3" d="M243.4,38.36l.15.25a1.66,1.66,0,0,0,.7.64l.26.13-.25.15a1.73,1.73,0,0,0-.64.7l-.13.26-.15-.25a1.73,1.73,0,0,0-.7-.64l-.26-.13.25-.15a1.66,1.66,0,0,0,.64-.7Z"/><path class="cls-3" d="M224,56.49l.15.24a1.69,1.69,0,0,0,.7.65l.26.13-.25.15a1.61,1.61,0,0,0-.64.7l-.13.26-.15-.25a1.75,1.75,0,0,0-.7-.65l-.26-.12.25-.15a1.73,1.73,0,0,0,.64-.7Z"/><path class="cls-2" d="M247.65,71.55c.18-1.33-1.69-2.42-3.09-2.53a7.92,7.92,0,0,1-2-.18c-1.37-.48-1.92-2.25-3.27-2.82a3.85,3.85,0,0,0-3.13.44,8.14,8.14,0,0,1-3,1.18c-.95.06-2-.29-2.8.17-.62.35-.94,1.06-1.51,1.48a3.62,3.62,0,0,1-2,.53,5.51,5.51,0,0,0-2,.33,1.61,1.61,0,0,0-1,1.63Z"/><path class="cls-4" d="M204.8,23.62c.25-1.82-2.32-3.31-4.25-3.47a11,11,0,0,1-2.75-.23c-1.88-.66-2.64-3.1-4.48-3.88-1.38-.58-3-.06-4.3.61a11.21,11.21,0,0,1-4.15,1.61c-1.3.09-2.71-.4-3.84.24-.85.47-1.29,1.45-2.07,2a5,5,0,0,1-2.71.73,8,8,0,0,0-2.79.46A2.2,2.2,0,0,0,172.07,24Z"/><rect class="cls-3" x="93.25" y="18.58" width="58.18" height="96.3"/><rect class="cls-2" x="91.31" y="18.58" width="58.18" height="96.3"/><rect class="cls-5" x="93.79" y="20.54" width="53.22" height="92.39"/><rect class="cls-2" x="103.92" y="32.54" width="32.73" height="68.38"/><path class="cls-3" d="M103.92,76.73c-.08-6.39,5.67-12.63,12-13.52,3-.42,6.22.17,9-1,5-2.06,6.63-8.75,11.7-10.73l.23,49.42h-33Z"/><path class="cls-6" d="M112.91,50a1,1,0,0,1,0,.14l.12.4a4.59,4.59,0,0,0,.2.66c.09.25.19.55.33.86l.23.51.28.54c.09.19.21.38.33.58s.24.4.39.6a13.32,13.32,0,0,0,2.24,2.51,12.54,12.54,0,0,0,3.46,2.14,11.34,11.34,0,0,0,2.16.68,20.23,20.23,0,0,0,2.39.33,17.91,17.91,0,0,1,5.13.94,12.42,12.42,0,0,1,4.46,3.34,16.18,16.18,0,0,1,3.08,4.67,8.49,8.49,0,0,1,.61,2.6,9.81,9.81,0,0,1-.16,2.55,30.05,30.05,0,0,1-1.36,4.52,22.45,22.45,0,0,0-1.07,3.94,8.16,8.16,0,0,0,.12,3.34A6.16,6.16,0,0,0,137,88.12a4.62,4.62,0,0,0,1.18,1.09c.31.2.49.27.48.28a2.93,2.93,0,0,1-.5-.25,4.5,4.5,0,0,1-1.21-1.07,6.28,6.28,0,0,1-1.13-2.29,8.33,8.33,0,0,1-.15-3.38,21.18,21.18,0,0,1,1.06-4,31.25,31.25,0,0,0,1.34-4.5,10.06,10.06,0,0,0,.15-2.52,8.26,8.26,0,0,0-.61-2.55,16.29,16.29,0,0,0-3-4.62,12.39,12.39,0,0,0-4.41-3.3,17.87,17.87,0,0,0-5.07-.93,22.55,22.55,0,0,1-2.41-.34,11.68,11.68,0,0,1-2.19-.7A13,13,0,0,1,117,56.89a12.83,12.83,0,0,1-2.24-2.55,6.76,6.76,0,0,1-.38-.61c-.12-.2-.24-.39-.33-.58l-.28-.55-.22-.51c-.14-.32-.23-.62-.32-.88a5.44,5.44,0,0,1-.19-.66l-.09-.41Z"/><path class="cls-6" d="M123.13,44.68l.11.1.31.3c.14.13.29.31.48.52s.38.46.58.77a10.8,10.8,0,0,1,1.25,2.33,11.07,11.07,0,0,1,.75,3.41,11.8,11.8,0,0,1-.07,2,16.47,16.47,0,0,1-.47,2.16c-.42,1.46-1,3-1.46,4.63a12.16,12.16,0,0,0-.36,2.58,11.3,11.3,0,0,0,.27,2.7,12.58,12.58,0,0,0,2.49,5.1,14.14,14.14,0,0,0,4.41,3.6,17.14,17.14,0,0,0,5,1.75c1.67.31,3.3.4,4.81.63a12.25,12.25,0,0,1,4.05,1.22,9.25,9.25,0,0,1,4,4.5,10,10,0,0,1,.5,1.6l.07.43c0,.09,0,.14,0,.14l0-.14-.09-.43a9.33,9.33,0,0,0-.52-1.57,9.21,9.21,0,0,0-1.37-2.23,9,9,0,0,0-2.66-2.19,12.13,12.13,0,0,0-4-1.19c-1.5-.23-3.13-.31-4.82-.61a17.56,17.56,0,0,1-5.08-1.76,14.34,14.34,0,0,1-4.46-3.64,12.85,12.85,0,0,1-2.52-5.17,11.34,11.34,0,0,1,.1-5.36c.43-1.66,1.05-3.17,1.47-4.63a15.92,15.92,0,0,0,.48-2.14,11.49,11.49,0,0,0,.08-2,11,11,0,0,0-.72-3.39,11.88,11.88,0,0,0-1.21-2.33c-.2-.3-.41-.54-.57-.77l-.46-.53-.3-.31Z"/><path class="cls-6" d="M148.11,80.69a2.37,2.37,0,0,1-.4.36c-.26.22-.64.54-1.13.91a46.45,46.45,0,0,1-3.94,2.72A45.43,45.43,0,0,1,138.43,87c-.55.26-1,.47-1.32.6a3.09,3.09,0,0,1-.5.19,4.29,4.29,0,0,1,.47-.25l1.3-.65c1.09-.56,2.58-1.36,4.17-2.34s3-2,4-2.67l1.16-.87A3,3,0,0,1,148.11,80.69Z"/><path class="cls-6" d="M145.41,78.59l-.4.23-1.09.6c-.93.5-2.2,1.21-3.57,2.06s-2.57,1.65-3.44,2.25l-1,.71-.38.24a2.18,2.18,0,0,1,.34-.3c.23-.18.57-.44,1-.75.85-.63,2-1.45,3.42-2.3s2.66-1.54,3.6-2l1.12-.55A2.2,2.2,0,0,1,145.41,78.59Z"/><path class="cls-6" d="M141.54,77.77a5.53,5.53,0,0,1-.78.57c-.49.33-1.18.77-1.95,1.24s-1.49.86-2,1.14a5.54,5.54,0,0,1-.87.42,6.59,6.59,0,0,1,.81-.52l2-1.19,2-1.19A5.51,5.51,0,0,1,141.54,77.77Z"/><path class="cls-6" d="M137.93,73.5a3.2,3.2,0,0,1-.59.43l-1.45,1-1.44,1a3.11,3.11,0,0,1-.62.39,3,3,0,0,1,.55-.48c.35-.28.85-.65,1.41-1s1.1-.71,1.49-.93A2.74,2.74,0,0,1,137.93,73.5Z"/><path class="cls-6" d="M137.64,69.69s-.42.26-1.11.66-1.63,1-2.62,1.67-1.86,1.38-2.47,1.89a10.67,10.67,0,0,1-1,.83,1.53,1.53,0,0,1,.23-.26c.16-.16.39-.39.69-.66a26.27,26.27,0,0,1,2.44-1.94,25.06,25.06,0,0,1,2.66-1.64c.35-.19.64-.33.85-.42A1.48,1.48,0,0,1,137.64,69.69Z"/><path class="cls-6" d="M135.75,66.73s-1.73,1.32-3.93,2.85-4,2.75-4,2.71,1.74-1.31,3.94-2.85S135.73,66.7,135.75,66.73Z"/><path class="cls-6" d="M134.25,63.4a1.54,1.54,0,0,1-.34.25l-.95.64c-.8.54-1.91,1.29-3.11,2.15s-2.27,1.66-3,2.24l-.91.69a2.17,2.17,0,0,1-.35.24,1.76,1.76,0,0,1,.31-.29c.2-.18.5-.43.88-.73.75-.61,1.81-1.43,3-2.29s2.33-1.59,3.15-2.11c.41-.25.74-.46,1-.59A2,2,0,0,1,134.25,63.4Z"/><path class="cls-6" d="M131.15,61.56s-1.47,1.12-3.34,2.42-3.41,2.32-3.44,2.28,1.47-1.12,3.35-2.42S131.13,61.52,131.15,61.56Z"/><path class="cls-6" d="M127.9,59.7a14.58,14.58,0,0,1-1.72,1.48,14.94,14.94,0,0,1-1.83,1.35,18.52,18.52,0,0,1,1.72-1.48A14.94,14.94,0,0,1,127.9,59.7Z"/><path class="cls-6" d="M125.71,55a6.86,6.86,0,0,1-.73.67c-.47.4-1.14.94-1.89,1.5s-1.45,1-2,1.38a5.28,5.28,0,0,1-.86.51,6.85,6.85,0,0,1,.79-.6c.5-.37,1.19-.86,1.94-1.42s1.42-1.08,1.91-1.46A6,6,0,0,1,125.71,55Z"/><path class="cls-6" d="M126.65,51.85a1.84,1.84,0,0,1-.33.26l-.95.65c-.81.54-2,1.26-3.23,2s-2.47,1.37-3.34,1.8c-.43.22-.79.39-1,.5a2,2,0,0,1-.39.16,2.48,2.48,0,0,1,.37-.22l1-.55c.85-.45,2-1.1,3.31-1.84s2.42-1.44,3.24-2l1-.6A1.54,1.54,0,0,1,126.65,51.85Z"/><path class="cls-6" d="M125.14,48.46a2.33,2.33,0,0,1-.36.27c-.24.18-.6.42-1,.71-.88.59-2.1,1.38-3.47,2.23s-2.63,1.59-3.55,2.11l-1.09.62a2.53,2.53,0,0,1-.41.2,1.93,1.93,0,0,1,.37-.26l1.07-.66,3.52-2.16,3.5-2.18,1.06-.66A2.7,2.7,0,0,1,125.14,48.46Z"/><path class="cls-6" d="M257.41,148.67s-.39-.35-1.12-1c-.36-.31-.81-.67-1.35-1.07a14.39,14.39,0,0,0-1.93-1.21,8.19,8.19,0,0,0-1.2-.52,3.72,3.72,0,0,0-1.36-.24,1.43,1.43,0,0,0-.66.15,1,1,0,0,0-.46.48,1.66,1.66,0,0,0-.13.71,3.64,3.64,0,0,0,.1.79,7.47,7.47,0,0,0,.58,1.57,15,15,0,0,0,.89,1.54,20.68,20.68,0,0,0,2.37,2.91,20.25,20.25,0,0,0,2.84,2.46,15.08,15.08,0,0,0,1.51.94,8.22,8.22,0,0,0,1.56.63,3.6,3.6,0,0,0,.78.12,1.7,1.7,0,0,0,.72-.11,1,1,0,0,0,.49-.44,1.57,1.57,0,0,0,.18-.65,4.17,4.17,0,0,0-.2-1.37,9.69,9.69,0,0,0-.49-1.22,14.67,14.67,0,0,0-1.15-2c-.38-.55-.74-1-1-1.38-.6-.74-1-1.13-.94-1.15a1.35,1.35,0,0,1,.3.25c.18.17.44.44.76.79s.7.81,1.1,1.36a15.4,15.4,0,0,1,1.23,2,8.37,8.37,0,0,1,.52,1.25,4,4,0,0,1,.24,1.49,1.88,1.88,0,0,1-.21.81,1.38,1.38,0,0,1-.66.6,2.16,2.16,0,0,1-.87.15,4.36,4.36,0,0,1-.87-.13,7.37,7.37,0,0,1-1.64-.65,13.47,13.47,0,0,1-1.57-1,21.14,21.14,0,0,1-5.31-5.47,14.11,14.11,0,0,1-.91-1.59,8,8,0,0,1-.6-1.67,4.14,4.14,0,0,1-.1-.87,2.06,2.06,0,0,1,.18-.87,1.37,1.37,0,0,1,.62-.64,1.84,1.84,0,0,1,.82-.18,4.13,4.13,0,0,1,1.47.28,8.32,8.32,0,0,1,1.24.57,13.74,13.74,0,0,1,1.93,1.28,16.08,16.08,0,0,1,1.32,1.14,10.32,10.32,0,0,1,.77.79Q257.42,148.66,257.41,148.67Z"/><path class="cls-6" d="M252.59,149.87s-.11.5-.3,1.4c-.1.45-.21,1-.29,1.65a13.63,13.63,0,0,0-.12,2.2,6.91,6.91,0,0,0,.13,1.26,3.67,3.67,0,0,0,.45,1.26,1.59,1.59,0,0,0,.45.48,1,1,0,0,0,.62.16,1.55,1.55,0,0,0,.67-.19,3.21,3.21,0,0,0,.64-.42,7,7,0,0,0,1.09-1.2,11.89,11.89,0,0,0,.92-1.45,18.84,18.84,0,0,0,1.42-3.34,19.14,19.14,0,0,0,.77-3.55,12.55,12.55,0,0,0,.09-1.72,7.71,7.71,0,0,0-.21-1.61,4,4,0,0,0-.27-.71,1.58,1.58,0,0,0-.44-.54,1.07,1.07,0,0,0-.61-.23,1.64,1.64,0,0,0-.64.14,3.5,3.5,0,0,0-1.09.76,7.5,7.5,0,0,0-.84,1,13.45,13.45,0,0,0-1.16,1.86c-.31.58-.54,1.09-.72,1.51-.36.85-.53,1.33-.56,1.32a1.23,1.23,0,0,1,.08-.36q.09-.36.33-1a16.5,16.5,0,0,1,.66-1.55A13.28,13.28,0,0,1,254.8,145a7.62,7.62,0,0,1,.84-1,4.15,4.15,0,0,1,1.18-.85,1.77,1.77,0,0,1,.8-.17,1.44,1.44,0,0,1,.81.28,2,2,0,0,1,.55.66,3.33,3.33,0,0,1,.31.79,7.42,7.42,0,0,1,.24,1.7,13.33,13.33,0,0,1-.08,1.78,19.07,19.07,0,0,1-.78,3.62,18.72,18.72,0,0,1-1.46,3.42,13.52,13.52,0,0,1-1,1.49,7.77,7.77,0,0,1-1.17,1.26,3.32,3.32,0,0,1-.71.46,1.83,1.83,0,0,1-.83.22,1.43,1.43,0,0,1-.83-.23,2,2,0,0,1-.55-.6,4,4,0,0,1-.47-1.38,8.79,8.79,0,0,1-.11-1.31,12.4,12.4,0,0,1,.19-2.24c.11-.65.24-1.21.36-1.65s.23-.79.31-1A2.19,2.19,0,0,1,252.59,149.87Z"/><path class="cls-6" d="M254.24,147.55s-.48.17-1.35.47c-.43.16-1,.36-1.55.63a14,14,0,0,0-1.94,1,8.75,8.75,0,0,0-1,.78,3.66,3.66,0,0,0-.83,1,1.45,1.45,0,0,0-.17.63,1.07,1.07,0,0,0,.18.62,1.57,1.57,0,0,0,.52.47,3.34,3.34,0,0,0,.69.32,7.43,7.43,0,0,0,1.6.3,12.29,12.29,0,0,0,1.72,0,18.87,18.87,0,0,0,3.58-.56,19.27,19.27,0,0,0,3.43-1.2,13.47,13.47,0,0,0,1.5-.83,7.15,7.15,0,0,0,1.26-1,3.75,3.75,0,0,0,.47-.6,1.73,1.73,0,0,0,.23-.67,1.06,1.06,0,0,0-.13-.63,1.67,1.67,0,0,0-.45-.47,3.62,3.62,0,0,0-1.23-.53,8.16,8.16,0,0,0-1.25-.21,14.74,14.74,0,0,0-2.2,0c-.65.05-1.21.12-1.66.19-.91.14-1.41.25-1.42.22s.12-.06.35-.13.58-.16,1-.25a15.26,15.26,0,0,1,1.67-.26,12.47,12.47,0,0,1,2.24,0,7.81,7.81,0,0,1,1.31.19,4.1,4.1,0,0,1,1.35.55,2,2,0,0,1,.56.59,1.35,1.35,0,0,1,.18.84,1.89,1.89,0,0,1-.26.81,3.9,3.9,0,0,1-.51.68,7.08,7.08,0,0,1-1.33,1.1,12.18,12.18,0,0,1-1.55.87,19.55,19.55,0,0,1-7.16,1.8,13,13,0,0,1-1.77,0,7.34,7.34,0,0,1-1.69-.34,3.18,3.18,0,0,1-.77-.36,1.94,1.94,0,0,1-.62-.59,1.43,1.43,0,0,1-.24-.82,1.9,1.9,0,0,1,.22-.79,4.09,4.09,0,0,1,.92-1.12,9.09,9.09,0,0,1,1.06-.79,14.67,14.67,0,0,1,2-1,16.58,16.58,0,0,1,1.59-.56c.44-.13.79-.22,1-.27S254.24,147.53,254.24,147.55Z"/><path class="cls-6" d="M256.78,150.46a1.35,1.35,0,1,1-1.64-1A1.36,1.36,0,0,1,256.78,150.46Z"/><path class="cls-7" d="M284.24,127.38l-.15-.07-.44-.22-1.68-.88L275.78,123h.05l-19.06,7.28-.17.06,0-.17c.18-.67.38-1.39.58-2.11l3.7-13.36v0l0,0,10.57-7.91,3-2.23.8-.59.21-.15.07,0-.06.05-.2.16-.78.61-3,2.27-10.53,8,0,0c-1.1,4-2.36,8.55-3.68,13.36-.2.72-.4,1.44-.58,2.11l-.13-.11,19.09-7.24h0l0,0,6.16,3.3,1.66.9.43.24Z"/><polygon class="cls-7" points="259.22 130.01 258.08 130.35 257.71 131.48 257.04 130.5 255.85 130.5 256.57 129.56 256.2 128.43 257.32 128.82 258.29 128.12 258.25 129.31 259.22 130.01"/><polygon class="cls-7" points="262.51 114.3 261.79 114.57 261.6 115.31 261.12 114.71 260.36 114.75 260.79 114.11 260.5 113.4 261.24 113.61 261.84 113.12 261.86 113.89 262.51 114.3"/><polygon class="cls-7" points="276.94 103.23 276.42 104.02 276.77 104.89 275.86 104.64 275.13 105.24 275.1 104.3 274.3 103.79 275.18 103.47 275.42 102.55 276 103.29 276.94 103.23"/><polygon class="cls-7" points="285.39 126.39 284.87 127.17 285.21 128.05 284.31 127.79 283.58 128.4 283.54 127.45 282.75 126.95 283.63 126.62 283.87 125.7 284.45 126.45 285.39 126.39"/><polygon class="cls-7" points="276.53 122.51 276.19 123.01 276.42 123.57 275.83 123.4 275.37 123.79 275.35 123.19 274.84 122.86 275.4 122.66 275.55 122.07 275.93 122.55 276.53 122.51"/><circle class="cls-7" cx="217.79" cy="41.06" r="9.65" transform="translate(142.17 249.39) rotate(-80.73)"/><g class="cls-8"><path class="cls-1" d="M216.54,44.07a1.58,1.58,0,1,1-3.15,0,1.58,1.58,0,0,1,3.15,0Z"/></g><g class="cls-8"><path class="cls-1" d="M214.3,39.53a.92.92,0,1,1-.91-.91A.92.92,0,0,1,214.3,39.53Z"/></g><path class="cls-7" d="M208.43,43.41c0,.17-8.26,8.13-6.12,9.83s11.14-2.66,18.82-8.86,14.68-13.72,12.76-15.72-11.51,3.91-11.51,3.91l1.15.73s5.8-3.72,7.63-2.27-3.39,7.08-10.77,12.47-14.51,9.17-15.62,7.69,4.12-6.4,4.12-6.4Z"/><g class="cls-8"><path d="M208.43,43.41c0,.17-8.26,8.13-6.12,9.83s11.14-2.66,18.82-8.86,14.68-13.72,12.76-15.72-11.51,3.91-11.51,3.91l1.15.73s5.8-3.72,7.63-2.27-3.39,7.08-10.77,12.47-14.51,9.17-15.62,7.69,4.12-6.4,4.12-6.4Z"/></g><g class="cls-8"><path class="cls-1" d="M212.47,34.26c.08.1-.57.65-1.31,1.77a9.1,9.1,0,0,0-1.56,4.85A9.22,9.22,0,0,0,211,45.79c.7,1.14,1.33,1.72,1.25,1.81s-.83-.38-1.69-1.52a8.59,8.59,0,0,1-1.67-5.22,8.75,8.75,0,0,1,.62-3,8.19,8.19,0,0,1,1.26-2.15C211.63,34.61,212.43,34.19,212.47,34.26Z"/></g><path class="cls-7" d="M232.39,49.57a5.6,5.6,0,1,1,5.47,5.73A5.6,5.6,0,0,1,232.39,49.57Z"/><g class="cls-9"><path d="M239.82,47.56a.92.92,0,1,1,1.83,0,.93.93,0,0,1-.94.89A.91.91,0,0,1,239.82,47.56Z"/></g><g class="cls-9"><path d="M241.65,49.69a.53.53,0,0,1,.54-.52.53.53,0,1,1,0,1.06A.52.52,0,0,1,241.65,49.69Z"/></g><g class="cls-9"><path d="M240.93,51.32a.2.2,0,0,1,0,.39.19.19,0,0,1-.19-.2A.2.2,0,0,1,240.93,51.32Z"/></g><path class="cls-10" d="M255.53,91.38s-.08-7.1-.08-15.85,0-15.85.08-15.85.09,7.09.09,15.85S255.58,91.38,255.53,91.38Z"/><path class="cls-10" d="M256.48,60a14.29,14.29,0,0,1-1.08-1.84h.16l0,0a16.13,16.13,0,0,1-.92,2,13.48,13.48,0,0,1,.76-2l0,0,.07-.16.08.15A14.43,14.43,0,0,1,256.48,60Z"/><path class="cls-10" d="M255.36,55.94s-.29-.14-.5-.45a1,1,0,0,1-.22-.64c.05,0,.17.25.36.54S255.39,55.9,255.36,55.94Z"/><path class="cls-10" d="M254.86,56.85a7.35,7.35,0,0,1,.4-1.13,7.66,7.66,0,0,1,.46-1.11,3.16,3.16,0,0,1-.3,1.17A3.27,3.27,0,0,1,254.86,56.85Z"/><path class="cls-10" d="M253.26,63.86a9.09,9.09,0,0,0,.29-1,9.94,9.94,0,0,0,0-1,1.42,1.42,0,0,1,.15,1A1.44,1.44,0,0,1,253.26,63.86Z"/><path class="cls-10" d="M253.57,62.53s0,.14-.24.19a.46.46,0,0,1-.56-.45.47.47,0,0,1,.18-.4.5.5,0,0,1,.34-.09c.2,0,.27.16.25.16s-.1,0-.26,0a.35.35,0,1,0,0,.7C253.47,62.59,253.55,62.51,253.57,62.53Z"/><path class="cls-10" d="M280.21,89.13c0,.05-6.07.08-13.56.08s-13.56,0-13.56-.08,6.07-.09,13.56-.09S280.21,89.08,280.21,89.13Z"/><path class="cls-10" d="M280.49,89.1a4.35,4.35,0,0,1-1.12-.36,4.16,4.16,0,0,1-1.05-.51,4.19,4.19,0,0,1,1.11.35A3.81,3.81,0,0,1,280.49,89.1Z"/><path class="cls-10" d="M280.78,89.2a3,3,0,0,1-.89.4,2.65,2.65,0,0,1-1,.24,3.27,3.27,0,0,1,.9-.4A2.66,2.66,0,0,1,280.78,89.2Z"/><path class="cls-10" d="M254.26,90s.24.14.35.56a1.21,1.21,0,0,1-.06.74.79.79,0,0,1-.27.37.47.47,0,0,1-.51,0,1,1,0,0,1-.39-.83.87.87,0,0,1,.3-.68.71.71,0,0,1,.47-.15c.12,0,.18,0,.18.06a.9.9,0,0,1-.18,0,.71.71,0,0,0-.39.18.8.8,0,0,0-.23.59.83.83,0,0,0,.33.68.29.29,0,0,0,.33,0,.7.7,0,0,0,.22-.29,1.18,1.18,0,0,0,.08-.65A2.13,2.13,0,0,0,254.26,90Z"/><path class="cls-10" d="M276.34,90.35s.1-.06.23.05a.36.36,0,0,1,.12.27.62.62,0,0,1-.16.35c-.2.21-.54.29-.71.55a.46.46,0,0,0,0,.44.43.43,0,0,0,.77-.09.45.45,0,0,0-.09-.43,1.1,1.1,0,0,0-.36-.29c-.13-.07-.29-.17-.32-.33a.44.44,0,0,1,.08-.38.57.57,0,0,1,.23-.17c.15,0,.23,0,.23,0s-.08,0-.2.09a.57.57,0,0,0-.18.17.35.35,0,0,0-.05.29c.05.21.45.24.69.55a.6.6,0,0,1,.12.58.58.58,0,0,1-.49.41.59.59,0,0,1-.57-.89,1.14,1.14,0,0,1,.4-.34,1.31,1.31,0,0,0,.35-.22.44.44,0,0,0,.15-.27.25.25,0,0,0-.07-.21A.25.25,0,0,0,276.34,90.35Z"/><path class="cls-10" d="M276.26,89.71a1.89,1.89,0,0,1-.08-.75,1.93,1.93,0,0,1,.08-.75,1.65,1.65,0,0,1,.09.75A1.62,1.62,0,0,1,276.26,89.71Z"/><path class="cls-10" d="M283.52,89.16a1.41,1.41,0,0,1-.47.07l-.5,0a.19.19,0,0,1-.12,0,.16.16,0,0,1-.06-.15.25.25,0,0,1,.11-.16l.22-.23a.72.72,0,0,0,.27-.48.28.28,0,0,0-.21-.31.45.45,0,0,0-.29,0c-.08,0-.12.05-.13,0s0,0,.09-.09a.52.52,0,0,1,.35-.12.43.43,0,0,1,.35.43.85.85,0,0,1-.3.59l-.23.23s-.07.07-.07.08,0,0,0,0h0v0h.54A1.46,1.46,0,0,1,283.52,89.16Z"/><path class="cls-10" d="M259.14,89.13s0-.17,0-.47,0-.73,0-1.24c0-1.06,0-2.52,0-4.18l.08.08h-1.57c.17-.17.05,0,.08-.08h0V85c0,.55,0,1.09,0,1.59,0,1,0,1.86,0,2.55l-.05,0,1.14,0,.43,0a2.69,2.69,0,0,1-.39,0l-1.18,0h-.05v-.05c0-.69,0-1.56,0-2.55V85c0-.29,0-.57,0-.86v-.88h0l.09-.09h1.66v.08c0,1.7,0,3.19,0,4.24,0,.5,0,.91,0,1.22A2.17,2.17,0,0,1,259.14,89.13Z"/><path class="cls-10" d="M274.15,89.13s0-.06,0-.18,0-.29,0-.5c0-.44,0-1.06,0-1.82,0-1.54,0-3.67,0-6.09l.09.09h-1.58c.17-.17.05,0,.08-.09h0v2.6c0,.84,0,1.63,0,2.37,0,1.46,0,2.69,0,3.6l0,0,1.15,0h.43a3,3,0,0,1-.4,0l-1.18,0h0v-.05c0-.91,0-2.14,0-3.6,0-.74,0-1.53,0-2.37v-2.6h0l.08-.08h1.66v.08c0,2.45,0,4.62,0,6.15,0,.75,0,1.36,0,1.8V89C274.15,89.08,274.15,89.13,274.15,89.13Z"/><path class="cls-10" d="M262.94,89.13a.77.77,0,0,1,0-.22l0-.62c0-.55,0-1.32,0-2.27,0-1.93,0-4.59,0-7.59l.09.08h-1.58c.17-.17.05,0,.08-.08h0v3.31c0,1.06,0,2.07,0,3,0,1.82,0,3.34,0,4.38l0,0,1.16,0h0l-1.18,0h0v0c0-1,0-2.56,0-4.38,0-.92,0-1.93,0-3V78.45h0s-.09.08.08-.09H263v.09c0,3,0,5.7,0,7.65,0,.94,0,1.7,0,2.25,0,.25,0,.45,0,.6S262.94,89.13,262.94,89.13Z"/><path class="cls-10" d="M266.65,89.1a.44.44,0,0,0,0-.09V87.79c0-.84,0-2,0-3.53,0-3,0-7.11,0-11.74l.09.08h-1.58c.17-.17.05,0,.09-.08h0v2.7c0,.89,0,1.76,0,2.6,0,1.68,0,3.26,0,4.69,0,2.86,0,5.15,0,6.57l0,0,1.16,0h0l-1.18,0h0v0c0-1.42,0-3.71,0-6.57,0-1.43,0-3,0-4.69v-5.3h0s-.09.08.08-.09h1.66v.09c0,4.65,0,8.8,0,11.81,0,1.47,0,2.67,0,3.5,0,.4,0,.72,0,1v.32Z"/><path class="cls-10" d="M270.45,89.1v-.58c0-.38,0-.92,0-1.62,0-1.42,0-3.45,0-6,0-5,0-12,0-19.81l.08.08h-1.57l.08-.08h0V70.5c0,2.94,0,5.68,0,8.13,0,4.88,0,8.58,0,10.47l0,0,1.18,0h-1.21v0c0-1.89,0-5.59,0-10.47,0-2.45,0-5.19,0-8.13,0-1.48,0-3,0-4.57V61.12h0l.09-.09h1.66v.09c0,7.81,0,14.82,0,19.88,0,2.51,0,4.54,0,6l0,1.61V89A.79.79,0,0,1,270.45,89.1Z"/><path class="cls-7" d="M101.7,90.76,103,114.31l39.39-2.25Zm6.58,9.14,16.94,9-16.37.93Z"/><path class="cls-10" d="M105.61,92.81a4.51,4.51,0,0,1-.63,1.48,5.12,5.12,0,0,1-.86,1.35,9.15,9.15,0,0,1,1.49-2.83Z"/><path class="cls-10" d="M111.65,95.93a4.42,4.42,0,0,1-.62,1.44,4.62,4.62,0,0,1-.86,1.31,4.42,4.42,0,0,1,.62-1.45A4.48,4.48,0,0,1,111.65,95.93Z"/><path class="cls-10" d="M117.69,99.05a4.55,4.55,0,0,1-.76,1.37,4.44,4.44,0,0,1-1,1.2,8.53,8.53,0,0,1,1.75-2.57Z"/><path class="cls-10" d="M123.63,102.31a4.3,4.3,0,0,1-.76,1.37,4.24,4.24,0,0,1-1,1.2,4.7,4.7,0,0,1,.76-1.36A4.81,4.81,0,0,1,123.63,102.31Z"/><path class="cls-10" d="M129.83,105.5a4.51,4.51,0,0,1-.69,1.45,4.72,4.72,0,0,1-.93,1.31,5.09,5.09,0,0,1,.7-1.46A4.66,4.66,0,0,1,129.83,105.5Z"/><path class="cls-10" d="M136.28,108.86a4.3,4.3,0,0,1-.62,1.38,4.24,4.24,0,0,1-.85,1.24,4.14,4.14,0,0,1,.61-1.38A4,4,0,0,1,136.28,108.86Z"/><path class="cls-10" d="M107.49,93.8c.07,0,0,.38-.25.77s-.42.67-.49.63,0-.38.25-.77S107.43,93.76,107.49,93.8Z"/><path class="cls-10" d="M109.47,94.78c.07,0,0,.39-.25.77s-.42.68-.49.64,0-.38.25-.77S109.41,94.75,109.47,94.78Z"/><path class="cls-10" d="M113.88,97.11c.07,0,0,.39-.25.78s-.43.67-.49.63,0-.38.25-.77S113.81,97.08,113.88,97.11Z"/><path class="cls-10" d="M115.86,98.1c.07,0,0,.38-.25.77s-.43.68-.5.64,0-.38.26-.77S115.79,98.06,115.86,98.1Z"/><path class="cls-10" d="M119.85,100.33c.06,0,0,.39-.25.78s-.43.67-.5.63.05-.38.26-.77S119.78,100.3,119.85,100.33Z"/><path class="cls-10" d="M121.74,101.33c.07,0,0,.38-.25.77s-.43.67-.5.63.05-.38.26-.77S121.67,101.29,121.74,101.33Z"/><path class="cls-10" d="M125.81,103.44c.07,0,0,.38-.25.77s-.42.68-.49.64.05-.38.25-.77S125.75,103.4,125.81,103.44Z"/><path class="cls-10" d="M128,104.6c.06,0,0,.39-.26.77s-.42.68-.49.64,0-.38.25-.77S127.94,104.57,128,104.6Z"/><path class="cls-10" d="M132,106.68c.06,0,0,.38-.26.77s-.42.67-.49.63.05-.38.25-.77S131.88,106.64,132,106.68Z"/><path class="cls-10" d="M134.22,107.85c.06,0-.05.38-.25.77s-.43.67-.5.63.05-.38.26-.77S134.15,107.81,134.22,107.85Z"/><path class="cls-7" d="M169.06,58a.62.62,0,0,0,0-.09v-.25c0-.22,0-.54,0-1,0-.84,0-2.07,0-3.63,0-3.12,0-7.56,0-12.89l.07.07-17.82,0h0l.09-.09c0,6.52,0,12.64,0,17.82l-.08-.08,12.89,0,3.63,0h0l-3.61,0-12.94,0h-.07V58c0-5.18,0-11.3,0-17.82V40.1h18v.07c0,5.35,0,9.81,0,12.94,0,1.55,0,2.77,0,3.61,0,.41,0,.73,0,1V58Z"/><path class="cls-7" d="M169.06,58l.13-.1.41-.26,1.58-1L177,53l0,.06c0-4.65,0-10.81,0-17.55l.09.08H177l-17.57,0h0l-6,3.37-1.64.91-.43.24-.15.07.14-.09.42-.25,1.62-.94,6-3.42h0l17.57,0h.13v.09c0,6.74,0,12.9,0,17.55v0l0,0-5.83,3.57-1.6,1-.42.25Z"/><path class="cls-7" d="M177,35.54s-1.74,1.11-3.94,2.39-4,2.29-4,2.25,1.74-1.11,3.93-2.39S177,35.5,177,35.54Z"/><path class="cls-7" d="M152.09,57.27s-.15.18-.38.31-.44.21-.47.17.15-.18.38-.32S152.06,57.23,152.09,57.27Z"/><path class="cls-7" d="M153.78,56.3s-.15.18-.38.31-.44.21-.47.17.15-.18.38-.32S153.75,56.25,153.78,56.3Z"/><path class="cls-7" d="M155.47,55.32s-.15.19-.38.32-.44.21-.47.17.15-.18.38-.32S155.45,55.28,155.47,55.32Z"/><path class="cls-7" d="M157.16,54.35s-.15.19-.38.32-.44.21-.47.17.15-.18.38-.32S157.14,54.31,157.16,54.35Z"/><path class="cls-7" d="M158.85,53.38s-.15.19-.38.32-.44.21-.47.17.15-.18.38-.32S158.83,53.34,158.85,53.38Z"/><path class="cls-7" d="M159.28,51.68s.08.22.08.48,0,.49-.09.49-.08-.22-.08-.49S159.23,51.68,159.28,51.68Z"/><path class="cls-7" d="M159.29,49.73c.05,0,.09.22.08.49s0,.48-.08.48-.09-.22-.09-.49S159.25,49.73,159.29,49.73Z"/><path class="cls-7" d="M159.31,47.78c.05,0,.08.22.08.49s0,.48-.09.48-.08-.22-.08-.49S159.26,47.78,159.31,47.78Z"/><path class="cls-7" d="M159.32,45.83c.05,0,.09.22.08.49s0,.48-.08.48-.09-.22-.08-.48S159.28,45.83,159.32,45.83Z"/><path class="cls-7" d="M159.34,43.88s.08.22.08.49,0,.48-.09.48-.08-.21-.08-.48S159.29,43.88,159.34,43.88Z"/><path class="cls-7" d="M159.35,41.93c.05,0,.09.22.09.49s-.05.49-.09.49-.09-.22-.08-.49S159.31,41.93,159.35,41.93Z"/><path class="cls-7" d="M159.37,40s.08.22.08.49,0,.49-.09.49-.08-.22-.08-.49S159.32,40,159.37,40Z"/><path class="cls-7" d="M159.38,38c.05,0,.09.22.09.49s-.05.49-.09.49-.09-.22-.08-.49S159.34,38,159.38,38Z"/><path class="cls-7" d="M159.4,36.08s.08.22.08.49,0,.49-.09.49-.08-.22-.08-.49S159.35,36.08,159.4,36.08Z"/><path class="cls-7" d="M176,53.09s.22-.07.49-.07.49,0,.49.07-.22.08-.49.08S176,53.14,176,53.09Z"/><path class="cls-7" d="M174.09,53.09s.22-.07.49-.07.49,0,.49.07-.22.08-.49.08S174.09,53.14,174.09,53.09Z"/><path class="cls-7" d="M172.14,53.09s.22-.07.49-.07.49,0,.49.07-.22.08-.49.08S172.14,53.14,172.14,53.09Z"/><path class="cls-7" d="M170.19,53.09s.22-.07.49-.07.49,0,.49.07-.22.08-.49.08S170.19,53.14,170.19,53.09Z"/><path class="cls-7" d="M168.24,53.09s.22-.07.49-.07.49,0,.49.07-.22.08-.49.08S168.24,53.14,168.24,53.09Z"/><path class="cls-7" d="M166.29,53.09s.22-.07.49-.07.49,0,.49.07-.22.08-.49.08S166.29,53.14,166.29,53.09Z"/><path class="cls-7" d="M164.35,53.09s.21-.07.48-.07.49,0,.49.07-.22.08-.49.08S164.35,53.14,164.35,53.09Z"/><path class="cls-7" d="M162.4,53.09s.21-.07.48-.07.49,0,.49.07-.22.08-.49.08S162.4,53.14,162.4,53.09Z"/><path class="cls-7" d="M160.45,53.09s.22-.07.48-.07.49,0,.49.07-.22.08-.49.08S160.45,53.14,160.45,53.09Z"/><path class="cls-7" d="M159.27,53.09s0-.07.1-.07.1,0,.1.07,0,.08-.1.08S159.27,53.14,159.27,53.09Z"/><path class="cls-7" d="M179.17,47.15a1.42,1.42,0,0,0,.45,0,1.37,1.37,0,0,0,.92-.69,1.86,1.86,0,0,0,0-1.7.54.54,0,0,0-.35-.28.58.58,0,0,0-.45.12,2.11,2.11,0,0,0-.57,1,4.35,4.35,0,0,0-.25,1.21h-.17c0-1.29,0-2.41,0-3.22v-.94a1.55,1.55,0,0,1,0-.34,1.55,1.55,0,0,1,0,.34c0,.25,0,.56,0,.94,0,.8.06,1.93.09,3.22h-.17a4.8,4.8,0,0,1,.26-1.26,3.87,3.87,0,0,1,.25-.55,1.24,1.24,0,0,1,.38-.47.75.75,0,0,1,.58-.15.64.64,0,0,1,.45.36,1.91,1.91,0,0,1,0,1.83,1.41,1.41,0,0,1-1,.71,1.16,1.16,0,0,1-.34,0Z"/><path class="cls-10" d="M129.76,130.58l.2.06.6.21A12.18,12.18,0,0,1,132.7,132a11.54,11.54,0,0,1,2.81,2.59,10.51,10.51,0,0,1,2.11,4.58,10.29,10.29,0,0,1-.78,6,9.51,9.51,0,0,1-2,2.81,8.63,8.63,0,0,1-1.41,1.13c-.26.16-.52.32-.8.46a8.13,8.13,0,0,1-.85.38,16.69,16.69,0,0,1-7.72.71c-1.35-.13-2.71-.32-4.09-.54a24.76,24.76,0,0,1-4.14-1,10.48,10.48,0,0,1-3.7-2.08,8.61,8.61,0,0,1-1.36-1.6,9,9,0,0,1-.86-1.87,9.79,9.79,0,0,1-.39-4,10.71,10.71,0,0,1,1.08-3.66,12.2,12.2,0,0,1,5-4.91,16.66,16.66,0,0,1,5.84-1.86,22.1,22.1,0,0,1,5.07,0,33.87,33.87,0,0,1,3.77.61c1,.23,1.81.44,2.35.59l.6.18.2.07-.21,0-.6-.16c-.54-.13-1.33-.33-2.35-.55a34.84,34.84,0,0,0-3.78-.58,21.88,21.88,0,0,0-5,.06,16.33,16.33,0,0,0-5.78,1.87,12.06,12.06,0,0,0-4.9,4.84,10.22,10.22,0,0,0-1.06,3.6,9.56,9.56,0,0,0,.39,3.89,8.33,8.33,0,0,0,.84,1.82,7.86,7.86,0,0,0,1.32,1.56,10.35,10.35,0,0,0,3.64,2,24.5,24.5,0,0,0,4.11,1c1.37.21,2.73.41,4.07.54a16.55,16.55,0,0,0,7.63-.69,9,9,0,0,0,4.94-4.68,10.13,10.13,0,0,0,.79-5.94,10.46,10.46,0,0,0-2-4.54,11.85,11.85,0,0,0-2.77-2.59,11.69,11.69,0,0,0-2.12-1.15c-.25-.11-.45-.17-.58-.23Z"/><path class="cls-10" d="M116.34,143.57a2.06,2.06,0,0,1-.41.05l-1.12.06h-.37a1.29,1.29,0,0,1-.43,0,.36.36,0,0,1-.21-.16.78.78,0,0,1-.07-.25l0-.46c0-.63-.07-1.31-.11-2s-.09-1.4-.09-2a1.7,1.7,0,0,1,.21-.89,1.24,1.24,0,0,1,.61-.53,2.55,2.55,0,0,1,1.13-.12,1.25,1.25,0,0,1,.41.07,1.66,1.66,0,0,1-.41,0,2.55,2.55,0,0,0-1.07.17,1.11,1.11,0,0,0-.53.48,1.77,1.77,0,0,0-.17.82c0,.61.07,1.3.11,2s.07,1.4.1,2c0,.3,0,.68.17.73a1.56,1.56,0,0,0,.38,0h1.49Z"/><path class="cls-10" d="M115.77,140.28a2.84,2.84,0,0,1-1,.12,2.74,2.74,0,0,1-1-.08,3,3,0,0,1,1-.12A2.7,2.7,0,0,1,115.77,140.28Z"/><path class="cls-10" d="M121,139.35a11.2,11.2,0,0,1-1.59.08,9.56,9.56,0,0,1-1.6,0,4.91,4.91,0,0,1,1.59-.21A4.6,4.6,0,0,1,121,139.35Z"/><path class="cls-10" d="M121.31,141.75a5.29,5.29,0,0,1-1.57.11,5.21,5.21,0,0,1-1.57-.19,8.06,8.06,0,0,1,1.57,0A7.64,7.64,0,0,1,121.31,141.75Z"/><path class="cls-10" d="M129.76,143.19s0-.22,0-.61a6.43,6.43,0,0,0-.3-1.66,1.79,1.79,0,0,0-.58-.95.52.52,0,0,0-.55,0,1.28,1.28,0,0,0-.42.52,7.14,7.14,0,0,0-.51,3.12h-.19a13.8,13.8,0,0,0,0-2.31c0-.31-.07-.63-.14-.93a1.13,1.13,0,0,0-.42-.72.62.62,0,0,0-.73,0,1.12,1.12,0,0,0-.46.64,5.37,5.37,0,0,0-.15.8c0,.26,0,.53-.06.78a13.62,13.62,0,0,0,0,1.43h-.15c0-1.13-.08-2.05-.11-2.73,0-.3,0-.55,0-.74s0-.27,0-.27a1.11,1.11,0,0,1,0,.26l.06.75.17,2.72h-.15a11.5,11.5,0,0,1,0-1.45c0-.26,0-.52,0-.79a4.38,4.38,0,0,1,.15-.84,1.32,1.32,0,0,1,.54-.74.93.93,0,0,1,.47-.14.85.85,0,0,1,.48.17,1.34,1.34,0,0,1,.5.84c.07.31.1.63.14.95a13.22,13.22,0,0,1,0,2.35h-.19a7,7,0,0,1,.55-3.2,1.56,1.56,0,0,1,.48-.57.65.65,0,0,1,.71,0,1.8,1.8,0,0,1,.63,1,5.85,5.85,0,0,1,.25,1.69,4,4,0,0,1,0,.45C129.78,143.14,129.77,143.19,129.76,143.19Z"/><path class="cls-10" d="M134.17,142.87a.57.57,0,0,1-.24.17,1.81,1.81,0,0,1-.78.19,2.05,2.05,0,0,1-1.16-.31,2,2,0,0,1-.83-1.21,1.94,1.94,0,0,1,.19-1.45,2,2,0,0,1,.88-.81,2,2,0,0,1,.78-.19.6.6,0,0,1,.3.05,2.6,2.6,0,0,0-1,.27,1.93,1.93,0,0,0-.79.77,1.84,1.84,0,0,0-.16,1.32,1.86,1.86,0,0,0,.74,1.1,2.05,2.05,0,0,0,1.06.32A2.83,2.83,0,0,0,134.17,142.87Z"/><path class="cls-10" d="M135.35,137.17a11.38,11.38,0,0,0-2.23.39l-.34.11.25-.25a7.15,7.15,0,0,0,1.25-1.52,2.24,2.24,0,0,0,.26-1.55c0-.23-.19-.42-.39-.43a1.29,1.29,0,0,0-.57.16,2.18,2.18,0,0,0-.69.55,2.7,2.7,0,0,1-.2.27.73.73,0,0,1,.14-.31,1.88,1.88,0,0,1,.69-.64,1.34,1.34,0,0,1,.64-.19.53.53,0,0,1,.37.17.93.93,0,0,1,.19.37,2.38,2.38,0,0,1-.27,1.69,6.2,6.2,0,0,1-1.3,1.55l-.08-.14a6.26,6.26,0,0,1,1.65-.27A2.23,2.23,0,0,1,135.35,137.17Z"/><polygon class="cls-11" points="169.02 131.23 179.73 129.16 200.28 133.88 210.7 136.05 210.85 150.28 187.61 154.56 171.94 149.92 166.01 141.19 169.02 131.23"/><path class="cls-7" d="M161.41,132.65l10.11-2.38s7.15,22.09,24.79,21.14c14.37-.77,14.39-15.36,14.39-15.36l10.51,1.86s4.41,26.68-.42,45.4c-4,15.58-7.59,36.94-7.59,36.94H143.37l18-87.6Z"/><path class="cls-7" d="M263.84,201s-28.8-50.45-34-56.93c-5.67-7.09-10.2-6.27-10.2-6.27l-3,34,24.49,34.74,5.83,2.11Z"/><path class="cls-7" d="M162.62,132.36s-16.37,1.31-22.24,28.13c-2.66,12.13-6,26.35-7,35.9-.7,6.93,3.58,14.14,10.48,15l8.68,1.6a9.11,9.11,0,0,0,10.52-6.81L166,194.07l-7.8-2.6L160,155.32Z"/><path class="cls-10" d="M222.55,156.66a1.74,1.74,0,0,1,.08.38l.16,1.08.12.78.09.94c.07.67.15,1.43.19,2.28a58.09,58.09,0,0,1,0,6,71.93,71.93,0,0,1-.73,7.26c-.37,2.57-.85,5-1.33,7.19s-.95,4.15-1.36,5.8-.76,3-1,3.89c-.12.43-.22.78-.29,1.05a1.93,1.93,0,0,1-.12.36,1.48,1.48,0,0,1,.07-.37l.24-1.07c.23-.95.54-2.28.93-3.91s.85-3.61,1.31-5.81.93-4.61,1.3-7.16.64-5,.75-7.25.11-4.25,0-5.94c0-.85-.09-1.61-.14-2.28l-.08-.94q0-.42-.09-.78c-.05-.45-.08-.81-.11-1.08A3.49,3.49,0,0,1,222.55,156.66Z"/><path class="cls-10" d="M166.77,195.39s0-.07-.08-.22l-.21-.64c-.09-.3-.2-.64-.32-1.05a3,3,0,0,0-.58-1.3,4.07,4.07,0,0,0-1.52-.92,12.71,12.71,0,0,0-2-.58,30.9,30.9,0,0,0-5-.52h-.14l0-.13c.45-2.89.95-6.17,1.48-9.64,1-6.07,1.82-11.56,2.45-15.57.32-2,.58-3.57.77-4.71.09-.54.17-1,.22-1.28l.07-.33c0-.08,0-.11,0-.11a.87.87,0,0,1,0,.11l0,.34c0,.31-.1.74-.17,1.28-.17,1.14-.4,2.75-.69,4.73-.61,4-1.45,9.5-2.37,15.58l-1.5,9.63-.12-.13a30.1,30.1,0,0,1,5.08.56,11.71,11.71,0,0,1,2.07.61,4.18,4.18,0,0,1,1.55,1,1.9,1.9,0,0,1,.4.7l.18.66.29,1.06.18.65A1,1,0,0,1,166.77,195.39Z"/><path class="cls-10" d="M144.23,199.49a2.59,2.59,0,0,1,.13-.67,9.63,9.63,0,0,1,.63-1.76,12,12,0,0,1,9.61-7,12.91,12.91,0,0,1,1.87-.06,2.54,2.54,0,0,1,.68.09,23.51,23.51,0,0,0-2.53.16,12.32,12.32,0,0,0-9.46,6.89A23.11,23.11,0,0,0,144.23,199.49Z"/><path class="cls-10" d="M148,186.14a1.17,1.17,0,0,1,.4,0,7.6,7.6,0,0,1,1.08.05,12.51,12.51,0,0,1,6.52,2.68c.35.29.62.54.8.72s.26.29.25.31-.44-.35-1.17-.88a14.12,14.12,0,0,0-3-1.72,14.79,14.79,0,0,0-3.38-.93C148.57,186.2,148,186.18,148,186.14Z"/><path class="cls-10" d="M165,151.41a2.89,2.89,0,0,1,0-.72c0-.46,0-1.12-.09-1.94a31.7,31.7,0,0,0-1.09-6.32,32.05,32.05,0,0,0-2.36-6c-.38-.73-.7-1.31-.94-1.71a5.07,5.07,0,0,1-.34-.63,3.43,3.43,0,0,1,.43.58c.26.38.61.95,1,1.67A28.29,28.29,0,0,1,165,148.74a18.45,18.45,0,0,1,0,2A6.89,6.89,0,0,1,165,151.41Z"/><g class="cls-8"><path d="M221.8,179.18a25.22,25.22,0,0,0,.62-23.62,66.09,66.09,0,0,1-.74,23.59"/></g><g class="cls-8"><path d="M184.66,187.18c-3.17.93-7.56,1.16-10.65,0,2.42,3.43,7.08,4.67,11.12,3.56s7.77-5.17,8.09-9.35A17.34,17.34,0,0,1,184.66,187.18Z"/></g><path class="cls-10" d="M196.31,175.76a2.61,2.61,0,0,1-.08.28c-.06.18-.13.46-.27.79a16.61,16.61,0,0,1-1.36,2.76,18.27,18.27,0,0,1-2.86,3.56,17.75,17.75,0,0,1-4.59,3.2,18.07,18.07,0,0,1-5.36,1.58,17.84,17.84,0,0,1-4.57,0,16.48,16.48,0,0,1-3-.66c-.35-.1-.61-.22-.79-.28l-.27-.12s.39.11,1.09.31a19,19,0,0,0,3,.57,18.19,18.19,0,0,0,18.63-11A9.69,9.69,0,0,1,196.31,175.76Z"/><path class="cls-10" d="M161,211a.54.54,0,0,1-.13.14,3.37,3.37,0,0,1-.4.34,6.28,6.28,0,0,1-1.73.92,10.43,10.43,0,0,1-2.86.52,27.15,27.15,0,0,1-3.54-.13c-2.5-.22-4.75-.58-6.37-.87-.8-.14-1.46-.27-1.91-.36a6.37,6.37,0,0,1-.69-.17,2.89,2.89,0,0,1,.71.07l1.92.28c1.63.24,3.87.57,6.36.79a26.86,26.86,0,0,0,3.51.14,9.84,9.84,0,0,0,2.81-.45A8.46,8.46,0,0,0,161,211Z"/><path class="cls-10" d="M217.77,78.68l2.06-2c2.76,1.2,4,4.39,4.49,7.36s.41,6.08,1.66,8.81c1,2.09,2.73,4,2.52,6.33s-2.18,4-2.19,6.16,1.76,3.74,2.78,5.58c2.08,3.75,3.43,19.07,2.34,23.22-9.13-.79-25.31-1.77-34.45-3.86C199.4,114.53,209.53,92.31,217.77,78.68Z"/><path class="cls-11" d="M204.86,140.45Z"/><path class="cls-11" d="M221.86,92.73a20.71,20.71,0,0,0-18-21.79A20.1,20.1,0,0,0,181.27,89l-2.7,45.21a4,4,0,0,0,.69,2.47A18.5,18.5,0,0,0,191,144.19a19.35,19.35,0,0,0,11.91-2.47,3.85,3.85,0,0,0,2-3.31l.19-10.12a.07.07,0,0,1,.06-.07,13.46,13.46,0,0,0,2.84-.08c2.68-.65,9.5-3.27,11.79-13.29C220.53,111.53,221.3,102.11,221.86,92.73Z"/><path class="cls-10" d="M207,107.51a12.32,12.32,0,0,1,2.93-.32c.46,0,.9-.07,1-.37a2.23,2.23,0,0,0-.22-1.35c-.35-1.11-.73-2.28-1.12-3.5-1.56-5-2.66-9.07-2.45-9.13s1.63,3.93,3.19,8.92c.37,1.23.73,2.4,1.07,3.52a2.53,2.53,0,0,1,.12,1.77,1.12,1.12,0,0,1-.79.61,3.71,3.71,0,0,1-.78,0A11.84,11.84,0,0,1,207,107.51Z"/><path class="cls-10" d="M218.9,96.51c-.2.22-1.38-.78-3.08-.83s-3,.84-3.15.61.12-.5.67-.92a4.07,4.07,0,0,1,5,.18C218.83,96,219,96.41,218.9,96.51Z"/><path class="cls-10" d="M201.64,96.94c-.23.22-1.47-.91-3.32-1.06s-3.3.69-3.48.43.15-.51.78-.91a4.62,4.62,0,0,1,5.44.5C201.59,96.4,201.75,96.85,201.64,96.94Z"/><path class="cls-12" d="M205.08,128.22s-6.93.07-15.22-5.62c0,0,2.15,9.14,15.16,8.85Z"/><path class="cls-12" d="M206,111.68a3.24,3.24,0,0,0-2.8-1.37,2.94,2.94,0,0,0-2.1.92,1.82,1.82,0,0,0-.27,2.09,2.2,2.2,0,0,0,2.3.74,6.8,6.8,0,0,0,2.36-1.18,2,2,0,0,0,.55-.48.61.61,0,0,0,0-.66"/><path class="cls-10" d="M201.66,108.35c.29,0,.17,1.91,1.74,3.38s3.65,1.4,3.65,1.67c0,.12-.49.33-1.36.3a4.92,4.92,0,0,1-3.05-1.29,4.13,4.13,0,0,1-1.33-2.82C201.28,108.79,201.53,108.33,201.66,108.35Z"/><path class="cls-10" d="M201.92,89.93c-.21.47-2,.11-4.09.2s-3.84.52-4.09.07c-.11-.21.22-.64.94-1a6.74,6.74,0,0,1,3.08-.81,6.82,6.82,0,0,1,3.14.61C201.65,89.31,202,89.71,201.92,89.93Z"/><path class="cls-10" d="M219.27,90.31c-.36.4-1.79,0-3.51,0s-3.17.28-3.51-.13c-.15-.2.07-.6.71-1a5.41,5.41,0,0,1,2.84-.67,5.34,5.34,0,0,1,2.81.79C219.23,89.7,219.43,90.11,219.27,90.31Z"/><path class="cls-10" d="M205.48,68.68a6.08,6.08,0,0,0-4.62-2.61c-7.91-1.2-16.76,3.57-21.19,10.24s-4.68,16.61-1.43,23.93l4.94-3.09c9.92-4.09,16.92-13.65,23.3-23.52C207.35,72.29,206.29,70.06,205.48,68.68Z"/><path class="cls-10" d="M217.66,73c-3.31-3.77-5.72-7.52-12.6-4.9-1,1.92,1,4.42,2.74,5.88,2.49,2.14,4.67,3.58,6.31,5.11,3.31,3.1,7.07,13.5,7.39,19.17,0,.36.63-4.87,1-4.92s2.33-2.35,2.07-5.47C223.69,77.25,221,76.8,217.66,73Z"/><path class="cls-6" d="M200.86,66.07a2.94,2.94,0,0,1,1.55.13,6.65,6.65,0,0,1,3.12,2.06,5.34,5.34,0,0,1,.63.89,4.92,4.92,0,0,1,.36.95,10.49,10.49,0,0,1,.41,1.63,2.34,2.34,0,0,1-.15,1.54c-.07,0,0-.59-.19-1.48a14,14,0,0,0-.49-1.55,4.08,4.08,0,0,0-.35-.86,5.49,5.49,0,0,0-.58-.81,7.38,7.38,0,0,0-2.87-2C201.44,66.2,200.86,66.15,200.86,66.07Z"/><path class="cls-10" d="M217.34,99.78a1.51,1.51,0,0,1-1.43,1.54,1.43,1.43,0,0,1-1.57-1.33,1.49,1.49,0,0,1,1.42-1.54A1.44,1.44,0,0,1,217.34,99.78Z"/><path class="cls-10" d="M200.78,99.88a1.51,1.51,0,0,1-1.43,1.55,1.44,1.44,0,0,1-1.57-1.33,1.5,1.5,0,0,1,1.42-1.55A1.44,1.44,0,0,1,200.78,99.88Z"/><path class="cls-10" d="M155.21,112.47a7.75,7.75,0,0,1,3.72-3.63c1.73-.64,3.65-1,5-2.25,2.1-1.93,2-5.15,1.81-8s-.24-6,1.91-7.92c1.8-1.57,4.66-1.71,6.22-3.51,1-1.2,1.25-2.86,1.61-4.39,1-4.11,3.25-11.28,15.36-15.41l-10.71,40.69c.8.22,2.71,2,2.81,3.27s-.4,2.32-.41,3.47c0,1.42,1.54,2.26,2.52,3.31a6.39,6.39,0,0,1,1.42,5,35.21,35.21,0,0,1-1.93,7.1c-9.94-1-24.43-1.33-32-7.67C151.16,121.45,153.13,115.9,155.21,112.47Z"/><path class="cls-11" d="M183.18,97.15c-.18-.1-7.5-3-8,4.7s7.35,6.57,7.38,6.35S183.18,97.15,183.18,97.15Z"/><path class="cls-12" d="M180.42,105.15s-.14.08-.37.17a1.3,1.3,0,0,1-1,0c-.8-.34-1.4-1.68-1.36-3.06a4.56,4.56,0,0,1,.49-1.9,1.56,1.56,0,0,1,1.08-1,.67.67,0,0,1,.76.42c.09.22,0,.37.08.38s.17-.12.13-.44a1,1,0,0,0-.28-.5,1,1,0,0,0-.73-.24,1.91,1.91,0,0,0-1.47,1.11,4.52,4.52,0,0,0-.59,2.12c0,1.55.66,3,1.75,3.44a1.45,1.45,0,0,0,1.24-.13C180.4,105.33,180.45,105.16,180.42,105.15Z"/><path class="cls-6" d="M210.55,99.17a15.53,15.53,0,0,1,.25-1.73,7,7,0,0,1,2.53-3.89,7,7,0,0,1,2.93-1.34,7,7,0,0,1,3.67.25,7.16,7.16,0,0,1,3.28,2.38,7,7,0,0,1,.13,8.25,6.67,6.67,0,0,1-1.45,1.5,6.46,6.46,0,0,1-1.75,1,7.11,7.11,0,0,1-3.67.38,7.11,7.11,0,0,1-5.62-5.06,16,16,0,0,1-.3-1.72v.45a2.94,2.94,0,0,0,.05.55,3.88,3.88,0,0,0,.15.74,7,7,0,0,0,2.63,3.93,7.12,7.12,0,0,0,3.05,1.32,7.2,7.2,0,0,0,3.78-.36,6.8,6.8,0,0,0,1.82-1,7,7,0,0,0,1.51-1.55,7.19,7.19,0,0,0-.14-8.55,6.77,6.77,0,0,0-1.56-1.51,6.85,6.85,0,0,0-1.84-1,7.31,7.31,0,0,0-3.8-.23,7.14,7.14,0,0,0-5.51,5.42,4.81,4.81,0,0,0-.12.75,3.94,3.94,0,0,0,0,.55v.45Z"/><path class="cls-6" d="M191.13,99.48a11.53,11.53,0,0,1,.24-1.72,7,7,0,0,1,9.13-5,7.09,7.09,0,0,1,3.28,2.39,6.94,6.94,0,0,1,.13,8.24,7.15,7.15,0,0,1-3.2,2.49,7.17,7.17,0,0,1-3.66.37,7.07,7.07,0,0,1-5.62-5.06,11.37,11.37,0,0,1-.3-1.72s0,0,0,.12v.34a2.91,2.91,0,0,0,.05.54,6.48,6.48,0,0,0,.15.74,7.17,7.17,0,0,0,5.68,5.25,7.24,7.24,0,0,0,3.79-.36,6.48,6.48,0,0,0,1.81-1,6.74,6.74,0,0,0,1.51-1.55A7.19,7.19,0,0,0,204,95a6.93,6.93,0,0,0-1.55-1.51,7.21,7.21,0,0,0-1.85-.95,7.3,7.3,0,0,0-3.8-.23,7.14,7.14,0,0,0-5.51,5.42,6.38,6.38,0,0,0-.12.75,2.74,2.74,0,0,0,0,.55v.34C191.12,99.44,191.12,99.48,191.13,99.48Z"/><path class="cls-6" d="M205,99s.24-.3.71-.67A3.39,3.39,0,0,1,210,98.2c.48.35.7.67.74.65a1.9,1.9,0,0,0-.62-.8,3.48,3.48,0,0,0-2.28-.83,3.39,3.39,0,0,0-2.24.92A1.9,1.9,0,0,0,205,99Z"/><path class="cls-6" d="M181.41,96.66a7.13,7.13,0,0,0,1.43.29c.88.14,2.11.27,3.47.39l3.48.31a11.89,11.89,0,0,0,1.45.12,6.45,6.45,0,0,0-1.42-.3c-.89-.14-2.12-.27-3.48-.39l-3.48-.31A8.85,8.85,0,0,0,181.41,96.66Z"/><path class="cls-1" d="M221.77,103.52a9.19,9.19,0,0,0,1.51-2.43,9.41,9.41,0,0,0,.44-2.83,2.05,2.05,0,0,1,.15.85,5.69,5.69,0,0,1-.34,2.07,5.5,5.5,0,0,1-1.09,1.79A2.11,2.11,0,0,1,221.77,103.52Z"/><path class="cls-1" d="M223,95.57c0-.06.33.09.49.43s.1.65,0,.65-.13-.26-.27-.54S222.94,95.63,223,95.57Z"/><path class="cls-1" d="M204,102s.1-.4.21-1a7.24,7.24,0,0,0,0-2.55,7.44,7.44,0,0,0-.91-2.38,10.36,10.36,0,0,1-.57-.9,2.8,2.8,0,0,1,.73.8,6.44,6.44,0,0,1,.94,5.07A2.68,2.68,0,0,1,204,102Z"/><path class="cls-3" d="M177.29,108.1s-.1.15-.25.43a2.56,2.56,0,0,0-.33,1.28,2.35,2.35,0,0,0,.71,1.75,2.55,2.55,0,0,0,2.17.7,2.6,2.6,0,0,0,1.8-1.41,2.43,2.43,0,0,0,.06-1.9,2.75,2.75,0,0,0-.76-1.08c-.24-.21-.4-.29-.39-.31a1.12,1.12,0,0,1,.45.23,2.59,2.59,0,0,1,.87,1.1,2.54,2.54,0,0,1,0,2.06,2.65,2.65,0,0,1-4.36.78,2.55,2.55,0,0,1-.73-1.93,2.52,2.52,0,0,1,.43-1.32A1.26,1.26,0,0,1,177.29,108.1Z"/><path class="cls-3" d="M219.77,114a2.15,2.15,0,0,0,1.33.09,2.64,2.64,0,0,0,1.23-.76,3.17,3.17,0,0,0,.8-1.59,2.89,2.89,0,0,0-.21-1.74,3.21,3.21,0,0,0-.9-1.16,5.2,5.2,0,0,0-1.21-.65s.14,0,.38,0a2.66,2.66,0,0,1,.94.46,3.19,3.19,0,0,1,1,1.19,3.1,3.1,0,0,1,.25,1.9,3.31,3.31,0,0,1-.88,1.7,2.81,2.81,0,0,1-1.36.78,2,2,0,0,1-1.06-.06C219.86,114.14,219.76,114,219.77,114Z"/><path class="cls-11" d="M191.86,213.85l7.45,2.2a52.6,52.6,0,0,0,6.11,2.23c2.49.57,4.18-.21,4.27-1.58s-1.84-1.57-1.84-1.57a37.67,37.67,0,0,1-4.77-2.2,8.43,8.43,0,0,1-2.67-3l2.67.36s5.6,4.05,7.71,5.24,2.58-.92,2.76-1.56-6.25-7.17-6.25-7.17,6.16,3.95,7.26,4.94,2.76,1.31,3.12.67,1.38-.65,0-3.37-12.4-10-12.4-10l3-.64,3.31,1.47a8.32,8.32,0,0,0,1.38,3.15c1.19,1.77,3.31,0,3.31,0L215,196.16l-6.52-4.09s-6.8.83-7.81,1.29a7.15,7.15,0,0,0-2.11,2.38l-1.84.74c-2.85.83-2.76,3.68-3.68,3.77s-27.73-5.14-27.73-5.14l-2.43-.63c-4,3.05-5.62,8.09-6.33,12.56,0,0-.74,2.19,0,3.39Z"/><path class="cls-12" d="M187,209.08a1.19,1.19,0,0,1,0-.44,2.42,2.42,0,0,1,0-.51,3.74,3.74,0,0,1,.13-.67A9.56,9.56,0,0,1,189,204a20.09,20.09,0,0,1,2.77-2.78,7.81,7.81,0,0,1,1.3-1,11.21,11.21,0,0,1-1.18,1.11,25.81,25.81,0,0,0-2.69,2.81,10.38,10.38,0,0,0-1.9,3.34C187,208.45,187,209.08,187,209.08Z"/><path class="cls-12" d="M198.58,195.74s-.23.12-.57.39a6.33,6.33,0,0,0-1.22,1.41,6.66,6.66,0,0,0-.62,1.13,6.32,6.32,0,0,0-.29,1.44,3.6,3.6,0,0,1-.59,1.58,6.52,6.52,0,0,0-.89,1.5,4.08,4.08,0,0,0,0,2.84l0,.09-.08.06a5.62,5.62,0,0,0-2.37,3.25,8.23,8.23,0,0,0-.22,1.61,1.18,1.18,0,0,1-.05-.44,4.63,4.63,0,0,1,.13-1.21,5.51,5.51,0,0,1,2.38-3.42l-.05.15a4.3,4.3,0,0,1,0-3,6.57,6.57,0,0,1,.93-1.55,3.36,3.36,0,0,0,.56-1.49,7.08,7.08,0,0,1,.33-1.48,7.26,7.26,0,0,1,.66-1.15,5.68,5.68,0,0,1,1.32-1.38,1.94,1.94,0,0,1,.45-.25Q198.57,195.73,198.58,195.74Z"/><path class="cls-12" d="M205,198.75a3.28,3.28,0,0,1-1.9-.21,3.18,3.18,0,0,1-1.6-1c0-.06.72.46,1.69.8S205,198.67,205,198.75Z"/><path class="cls-12" d="M206.75,206.17a16.76,16.76,0,0,1-2.82-1.07,19.11,19.11,0,0,1-2.72-1.32,16.34,16.34,0,0,1,2.82,1.08A18.5,18.5,0,0,1,206.75,206.17Z"/><path class="cls-12" d="M200.7,209.84a6.27,6.27,0,0,1-1.45-.54,6.81,6.81,0,0,1-1.41-.63,3.55,3.55,0,0,1,1.51.39A3.76,3.76,0,0,1,200.7,209.84Z"/><path class="cls-12" d="M205.82,206.65a6.29,6.29,0,0,0-1.12.94,5.52,5.52,0,0,0-.65,1.31s-.07-.18,0-.46a2.41,2.41,0,0,1,1.34-1.7C205.63,206.63,205.81,206.62,205.82,206.65Z"/><path class="cls-12" d="M208.51,202.57c0,.07-.46.33-.79.89a8.43,8.43,0,0,0-.42,1.1,1.32,1.32,0,0,1,.2-1.24C207.88,202.68,208.5,202.5,208.51,202.57Z"/><path class="cls-12" d="M207.76,195.19s-.13-.12-.2-.36a1.88,1.88,0,0,1,0-1A1.86,1.86,0,0,1,208,193c.18-.18.33-.24.35-.21a5.26,5.26,0,0,0-.58,1.13A5,5,0,0,0,207.76,195.19Z"/><path class="cls-4" d="M262.11,197.5a8.84,8.84,0,0,0-7.18-8c-6.83-1.37-18.79,4.44-18.79,4.44l-33.56,23.38,1,2.89,34-4.74,3.12,1.19L264.67,201l22.57-16.32-2.5-2a88.85,88.85,0,0,1-10.5,6.23C270.05,190.82,264,194.1,262.11,197.5Z"/><path class="cls-13" d="M202.05,221.21l28.4-17.64,30-4.82a4.14,4.14,0,0,0,4.06,1.64h0l24.68-17.08.46,1L241.8,218a4.11,4.11,0,0,1-4.17-.81Z"/><path class="cls-10" d="M260.46,198.75s-.07.07-.23.19l-.69.5c-.61.43-1.48,1.06-2.54,1.86-2.13,1.58-5,3.84-8.15,6.4s-5.94,4.93-7.95,6.66l-2.38,2.06-.65.55q-.23.19-.24.18s.06-.08.2-.22.37-.35.62-.59c.54-.51,1.34-1.23,2.33-2.12,2-1.77,4.76-4.16,7.9-6.73s6-4.8,8.21-6.34c1.08-.78,2-1.39,2.59-1.8l.72-.46Z"/><path class="cls-3" d="M260.15,195.08c-2.72-2.92-7-4-11-3.65s-7.76,1.79-11.47,3.26L203,218.47l.31.89,34.92-23.63s7.8-2.53,11.25-2.95A18.39,18.39,0,0,1,260.15,195.08Z"/><path class="cls-3" d="M265.6,198.2l16.7-11.26S268.62,194.05,265.6,198.2Z"/><path class="cls-10" d="M203,218.47s0-.05.14-.12l.43-.31,1.66-1.17,6.16-4.26,20.36-14,5.91-4h0a41.76,41.76,0,0,1,10.56-3.18,15.87,15.87,0,0,1,8.66,1.22,10.63,10.63,0,0,1,2.77,1.87,7.92,7.92,0,0,1,1.55,2,6.56,6.56,0,0,1,.6,1.45l.09.4,0,.13a8.48,8.48,0,0,0-.8-1.93,8.12,8.12,0,0,0-1.56-1.92,10.84,10.84,0,0,0-2.75-1.81,15.75,15.75,0,0,0-8.56-1.15,42.55,42.55,0,0,0-10.49,3.19h0l-5.91,4-20.4,13.91-6.2,4.2-1.69,1.13-.45.29Z"/><path class="cls-10" d="M233.37,200.5a1.43,1.43,0,0,1,.26-.17l.78-.41c.68-.35,1.66-.84,2.91-1.41a38.18,38.18,0,0,1,10.19-3.12,22.32,22.32,0,0,1,10.57,1,16.08,16.08,0,0,1,2.92,1.4c.33.19.57.38.73.49a1.11,1.11,0,0,1,.25.19s-.37-.22-1-.59a17,17,0,0,0-2.93-1.31,22.7,22.7,0,0,0-10.47-.89,40.78,40.78,0,0,0-10.16,3c-1.25.54-2.25,1-2.94,1.33l-.79.37Z"/><path class="cls-10" d="M286.34,184s-.07.07-.22.17l-.65.43-2.41,1.55c-2,1.31-4.84,3.11-7.93,5.14s-5.85,3.9-7.86,5.25l-2.38,1.6-.65.43c-.15.09-.23.14-.24.13l.21-.18.63-.46c.54-.4,1.34-1,2.33-1.67,2-1.39,4.73-3.29,7.82-5.32s5.91-3.81,8-5.08c1-.63,1.87-1.14,2.45-1.48l.68-.39Z"/><path class="cls-11" d="M271.15,202a11.7,11.7,0,0,1-1.3,2.32c-.64.76-2.74,1.83-2.91,3.29s.18,4.86-2.09,7.45a12.74,12.74,0,0,1-5.39,3.5l-9-.88-14.32-5.63a1.26,1.26,0,0,1-.91-1.5,1.78,1.78,0,0,1,1.49-1.35l.35-.06s-.83-.67.35-1.85c1-1,3.15-.44,4.26-.07s7.59,3.07,8.75,3.49,1.83.69,1.83.69-8.3-5.6-8.42-6.33a1.6,1.6,0,0,1,.8-1.9c1-.72,2.66.06,4.26.73,1.19.5,8.79,4.25,8.79,4.25s.34-.33,0-1-2.87-3.92-3.27-4.51-.49-.95-.1-1.45c.55-.72,2-1.07,3.35.16.85.79,3.87,2.82,3.87,2.82L275.54,194s1.74,0,1.14,2.37S271.15,202,271.15,202Z"/><path class="cls-12" d="M260.76,210.52a3.58,3.58,0,0,1-2.51-2.11c.07,0,.48.58,1.17,1.16S260.79,210.45,260.76,210.52Z"/><path class="cls-12" d="M261.9,204.45s.18-.08.48,0a2.26,2.26,0,0,1,1.08.48,2.16,2.16,0,0,1,.67,1c.09.29.08.48.05.48a3,3,0,0,0-2.28-1.88Z"/><path class="cls-12" d="M262.56,207.25c-.08,0-.12-.74-.41-1.6s-.72-1.48-.65-1.53a3.77,3.77,0,0,1,1.06,3.13Z"/><path class="cls-12" d="M270.82,201.32s-.18-.08-.36-.32a2.28,2.28,0,0,1-.42-1.09,2.24,2.24,0,0,1,.17-1.15c.12-.27.25-.4.28-.39a3.26,3.26,0,0,0,.33,2.95Z"/><path class="cls-12" d="M258.2,214a2.16,2.16,0,0,1-1,0,6.45,6.45,0,0,1-2.21-.82,12.23,12.23,0,0,1-1.9-1.38c-.46-.4-.72-.66-.69-.69a4.26,4.26,0,0,1,.8.54,19,19,0,0,0,1.92,1.3,8,8,0,0,0,2.12.87C257.83,214,258.2,214,258.2,214Z"/><path class="cls-12" d="M260.53,212.59c.07,0,.08.51-.34.92s-.94.4-.93.33.4-.17.74-.52S260.46,212.58,260.53,212.59Z"/><path class="cls-12" d="M264,210.08s0,.14-.07.31a1.26,1.26,0,0,1-.56.53,1.3,1.3,0,0,1-.77.11c-.19-.05-.29-.12-.28-.15s.46,0,.94-.2S263.89,210.05,264,210.08Z"/><path class="cls-12" d="M251.89,215.78c0,.07-3.37-1.32-7.45-3.1s-7.36-3.28-7.33-3.35,3.36,1.33,7.44,3.11S251.91,215.72,251.89,215.78Z"/><path class="cls-10" d="M310.6,220.27c0,.07-50.68.13-113.18.13s-113.19-.06-113.19-.13,50.66-.13,113.19-.13S310.6,220.19,310.6,220.27Z"/><path class="cls-13" d="M90.7,166.71l10.91,53.56h94.68a1.89,1.89,0,0,0,1.89-1.9h0a1.89,1.89,0,0,0-1.89-1.89H177.23l-10.11-49.8a2.07,2.07,0,0,0-2-1.66l-72.36-.79A2.07,2.07,0,0,0,90.7,166.71Z"/><path class="cls-13" d="M90.7,166.71l0-.16a1.77,1.77,0,0,1,0-.48,2.09,2.09,0,0,1,1-1.57,2.37,2.37,0,0,1,.63-.25,3,3,0,0,1,.74,0h1.71l4.26,0,27.36.25,19.07.2,10.69.11,5.6.06,2.87,0c.24,0,.47,0,.73,0a2.35,2.35,0,0,1,.73.21,2.2,2.2,0,0,1,1,1.09,3.47,3.47,0,0,1,.2.73l.15.72.29,1.45.6,2.92c.39,2,.8,4,1.21,6q1.23,6,2.51,12.33c1.7,8.4,3.48,17.13,5.31,26.13l-.13-.11H196a3.73,3.73,0,0,1,.74.05,2,2,0,0,1,.54,3.75,2,2,0,0,1-.89.24h-50.3l-44.45,0h-.08l0-.08-7.92-39.13c-.94-4.64-1.66-8.25-2.16-10.7-.24-1.22-.42-2.16-.55-2.79l-.18-1s.08.32.21.95.33,1.57.58,2.79c.51,2.45,1.25,6.05,2.21,10.68l8,39.12-.1-.08,44.45,0h50.29a1.76,1.76,0,0,0,.31-3.48,5,5,0,0,0-.69,0H177.12l0-.1c-1.82-9-3.59-17.73-5.3-26.13q-1.28-6.3-2.5-12.33c-.4-2-.81-4-1.2-6-.2-1-.4-2-.6-2.92-.09-.49-.19-1-.29-1.45l-.15-.72a2.71,2.71,0,0,0-.18-.68,1.93,1.93,0,0,0-.93-1,1.87,1.87,0,0,0-.65-.19c-.22,0-.48,0-.71,0l-2.87,0-5.6-.07-10.69-.12-19.07-.22L99,164.35l-4.26-.06-1.71,0a2.9,2.9,0,0,0-.73,0,2.21,2.21,0,0,0-.61.23,2,2,0,0,0-1,1.53A2.79,2.79,0,0,0,90.7,166.71Z"/><circle class="cls-1" cx="131.2" cy="191.22" r="3.13"/><path class="cls-14" d="M90.79,167.15h5l13.54.06,44.67.32,6.45,0H162a4.52,4.52,0,0,1,.81,0,2.27,2.27,0,0,1,.77.31,2.23,2.23,0,0,1,1,1.31c.12.52.21,1,.31,1.52.8,4,1.57,7.93,2.31,11.63,1.47,7.42,2.78,14.09,3.89,19.7l2.61,13.29.69,3.61c.08.41.13.72.17.94l.06.33a2.29,2.29,0,0,1-.08-.32l-.2-.94-.74-3.6c-.64-3.14-1.56-7.67-2.69-13.27s-2.46-12.28-4-19.69c-.74-3.71-1.51-7.6-2.32-11.63-.1-.5-.2-1-.31-1.51a1.93,1.93,0,0,0-.85-1.15,2.13,2.13,0,0,0-.68-.28,4.65,4.65,0,0,0-.76,0h-1.59l-6.46-.05-44.66-.39-13.54-.15-3.68-.06-.95,0Z"/></g></g></svg>